<?xml version="1.0" standalone="no"?>
<!DOCTYPE svg PUBLIC "-//W3C//DTD SVG 20010904//EN"
 "http://www.w3.org/TR/2001/REC-SVG-20010904/DTD/svg10.dtd">
<svg version="1.0" xmlns="http://www.w3.org/2000/svg"
 width="300.000000pt" height="300.000000pt" viewBox="0 0 300.000000 300.000000"
 preserveAspectRatio="xMidYMid meet">
<metadata>
Created by potrace 1.11, written by Peter Selinger 2001-2013
</metadata>
<g transform="translate(0.000000,300.000000) scale(0.100000,-0.100000)"
fill="#000000" stroke="none">
<path d="M1395 2517 c-11 -8 -45 -27 -75 -44 -30 -17 -148 -84 -261 -150 -114
-66 -213 -123 -220 -127 -8 -3 -83 -46 -167 -95 -114 -65 -149 -91 -140 -98 7
-6 47 -30 88 -53 41 -23 91 -51 110 -62 19 -11 86 -49 147 -84 l113 -64 32 19
c18 10 117 66 219 125 l186 107 229 -132 c126 -73 231 -133 232 -135 2 -1 4
-118 3 -258 0 -149 4 -256 9 -256 5 0 65 32 132 71 68 39 143 83 168 96 104
59 160 95 161 106 4 52 3 501 -1 507 -5 8 -104 66 -602 354 -170 98 -316 180
-325 182 -10 3 -27 -1 -38 -9z"/>
<path d="M490 1451 l0 -539 222 -128 c122 -70 227 -127 233 -127 5 0 41 18 79
41 37 23 70 42 72 42 2 0 25 13 51 28 27 16 96 57 156 91 59 35 107 64 107 66
0 1 -15 10 -32 20 -18 9 -42 22 -53 28 -11 7 -98 57 -193 112 l-172 100 0 270
0 270 -142 80 c-78 44 -167 94 -197 111 -31 17 -73 41 -93 52 l-38 22 0 -539z"/>
<path d="M2225 1359 c-66 -39 -145 -85 -175 -101 -30 -17 -66 -39 -80 -48 -14
-9 -30 -19 -35 -21 -24 -9 -455 -263 -455 -268 0 -4 26 -20 58 -37 52 -28 612
-352 757 -437 33 -19 62 -32 65 -27 4 6 5 968 1 1003 -2 13 -14 7 -136 -64z"/>
<path d="M1285 816 c-77 -45 -165 -97 -195 -113 -30 -17 -69 -39 -87 -49 l-31
-18 54 -33 c29 -17 72 -43 96 -56 70 -40 241 -138 273 -158 l30 -18 211 122
c116 67 221 129 234 138 23 15 18 18 -197 142 -121 70 -227 127 -234 126 -8 0
-77 -37 -154 -83z"/>
</g>
</svg>
