<?xml version="1.0" encoding="utf-8"?>
<!-- Generator: Adobe Illustrator 19.0.0, SVG Export Plug-In . SVG Version: 6.00 Build 0)  -->
<svg version="1.1" id="Layer_1" xmlns="http://www.w3.org/2000/svg" xmlns:xlink="http://www.w3.org/1999/xlink" x="0px" y="0px"
	 viewBox="-889.2 960.1 68.5 82.5" style="enable-background:new -889.2 960.1 68.5 82.5;" xml:space="preserve">
<style type="text/css">
	.st0{fill:#3F444E;}
	.st1{fill:#3299B9;}
	.st2{fill:#FFFFFF;}
</style>
<g>
	<g>
		<g>
			<g>
				<polygon class="st0" points="-903.4,761.6 -903.4,787.2 -881,800.2 -881,774.3 				"/>
				<polygon class="st0" points="-858.5,735.4 -902.1,760.6 -879.5,773.4 -858.5,761.3 -836.1,774.3 -813.7,761.3 				"/>
			</g>
			<g>
				<polygon class="st0" points="-881.7,825.7 -859.3,812.7 -881,800.2 -881,800.2 -903.4,787.2 -903.4,813.1 -884.3,824.2 				"/>
				<polygon class="st0" points="-880.2,826.6 -858.5,839.1 -836.1,826.1 -857.8,813.6 				"/>
			</g>
			<polygon class="st0" points="-813.7,786.3 -813.7,761.3 -836.1,774.3 -836.1,799.3 			"/>
		</g>
		<polygon class="st0" points="-813.7,788.1 -856.1,812.7 -813.7,837.2 		"/>
	</g>
</g>
<g>
	<g>
		<polygon class="st0" points="-638.5,735.4 -682.1,760.6 -659.5,773.4 -638.5,761.3 -616.1,774.3 -616.1,799.3 -593.7,786.3 
			-593.7,761.3 		"/>
		<polygon class="st0" points="-661,800.2 -661,800.2 -661,774.3 -683.4,761.6 -683.4,787.2 -683.4,813.1 -664.3,824.2 
			-661.7,825.7 -639.3,812.7 		"/>
		<polygon class="st0" points="-660.2,826.6 -638.5,839.1 -616.1,826.1 -637.8,813.6 		"/>
		<polygon class="st0" points="-593.7,837.2 -593.7,788.1 -636.1,812.7 		"/>
	</g>
</g>
<g>
	<g>
		<g>
			<g>
				<path class="st0" d="M-378.7,810.2l-19.3-12.5c-1.7-1.1-3.7-1.3-5.5-0.9c-0.6,0.2-1.2,0.4-1.8,0.7l-3.2-2.1
					c3.8-7,5.1-15.3,3.1-23.5c-4.3-17.7-22.2-28.6-39.9-24.4c-17.7,4.3-28.6,22.2-24.4,39.9c4.3,17.7,22.2,28.7,40,24.4
					c7-1.7,12.9-5.6,17.3-10.7l3.3,2.1c-0.2,2.5,0.9,5.1,3.2,6.5l19.3,12.5c1.7,1.1,3.8,1.4,5.6,1c1.7-0.4,3.3-1.5,4.4-3.1
					C-374.4,816.8-375.4,812.3-378.7,810.2z M-431.1,805.8c-14.5,3.5-29-5.4-32.6-19.8c-3.5-14.5,5.4-29,19.8-32.5
					c14.5-3.5,29,5.4,32.6,19.8C-407.8,787.8-416.7,802.3-431.1,805.8z"/>
			</g>
		</g>
		<g>
			<rect x="-449.5" y="777.3" class="st0" width="24.1" height="5.2"/>
		</g>
		<g>
			<rect x="-440" y="767.9" class="st0" width="5.2" height="24.1"/>
		</g>
	</g>
</g>
<g>
	<g>
		<path class="st1" d="M-837.5,964.1c-11.7-5.3-21.6-5.7-32.1,1.3c-8.1,5.4-10.9,18.7-10.8,20.3c0.1,1.6,1.9,4.1-3.3,7.5
			c-5.2,3.5-5.8,2.6-5.4,5c0.3,1.7,2.1,2.6,2.8,3.5c0.7,0.9,1.3,2,0.4,3.1c-0.6,0.7-2,0.9-1.2,2.9c0.8,1.7,3.2,1.9,4.1,2.1
			c0.3,0.1-2.3-0.4-3.3,0.1c-0.8,0.3-1.7,1.7-1.2,2.6c0.5,0.9,1.9,1.3,2.2,1.5c0.4,0.2,0.3,1.8,0.3,2.2c0.1,1.8-1,3.3-1.7,4.9
			c-0.8,1.7,0.4,5.3,4.2,6.2c3.8,0.8,5.4,0.8,8.1,1c5,0.5,8.8,7.9,9.3,14c2.2,0.3,8.5,0.4,10.7,0.4c7.3,0,14.2-1.8,20.4-5.1
			c-3.2-17.8,6.6-19.5,11.7-36.7C-820.2,993.9-817.2,973.3-837.5,964.1z M-847.9,998.2l-0.7,0.6l-2.4-2.3c-0.6,0.3-1.3,0.5-2,0.7
			l-0.1,3.1l-0.9,0.1l-2.3,0.3l-0.9,0.1l-1-3.3c-0.7-0.1-1.4-0.2-2.1-0.4l-1.6,2.7l-0.9-0.4l-2.2-0.9l-0.9-0.4l0.8-3.2
			c-0.6-0.4-1.2-0.9-1.7-1.4l-2.7,1.5l-0.6-0.7l-1.4-1.9l-0.6-0.7l2.2-2.3c-0.3-0.7-0.6-1.4-0.8-2.1l-3-0.1l-0.1-0.9l-0.3-2.3
			l-0.1-0.9l3.1-0.9c0.1-0.8,0.2-1.5,0.4-2.2l-2.6-1.6l0.4-0.9l0.9-2.2l0.4-0.9l3.2,0.8c0.4-0.6,0.9-1.1,1.4-1.7l-1.5-2.7l0.7-0.6
			l1.9-1.4l0.7-0.6l2.4,2.3c0.7-0.3,1.3-0.5,2-0.7l0.1-3.1l0.9-0.1l2.3-0.3l0.9-0.1l1,3.3c0.7,0.1,1.4,0.2,2.1,0.4l1.6-2.7l0.9,0.4
			l2.2,0.9l0.9,0.4l-0.8,3.2c0.6,0.4,1.2,0.9,1.7,1.4l2.7-1.5l0.6,0.7l1.4,1.9l0.6,0.7l-2.2,2.3c0.3,0.7,0.6,1.4,0.8,2.1l3,0.1
			l0.1,0.9l0.3,2.3l0.1,0.9l-3.1,0.9c-0.1,0.8-0.2,1.5-0.4,2.2l2.6,1.5l-0.4,0.9l-0.9,2.2l-0.4,0.9l-3.2-0.8
			c-0.4,0.6-0.9,1.1-1.4,1.7l1.5,2.7l-0.7,0.6L-847.9,998.2z M-829.2,1002.3l-2,0.3c-0.1,0.8-0.4,1.6-0.8,2.3c0,0,0.1,0,0.1,0.1
			l1.3,1.7c0.2,0.3,0.2,0.7-0.1,0.9l-2.2,1.7c-0.3,0.2-0.7,0.2-0.9-0.1l-1.2-1.6c-0.5,0.2-0.9,0.3-1.4,0.4c-0.3,0-0.6,0-1,0
			c0,0,0,0.1,0,0.1l-0.8,1.9c-0.1,0.3-0.5,0.5-0.8,0.4l-2.5-1c-0.3-0.1-0.5-0.5-0.3-0.8l0.8-1.9c-0.6-0.5-1.2-1.1-1.6-1.9
			c0,0-0.1,0-0.1,0l-2.1,0.3c-0.4,0-0.7-0.2-0.7-0.5l-0.4-2.7c0-0.3,0.2-0.7,0.5-0.7l2-0.3c0.1-0.8,0.4-1.6,0.8-2.3
			c0,0-0.1,0-0.1-0.1l-1.3-1.7c-0.2-0.3-0.2-0.7,0.1-0.9l2.2-1.7c0.3-0.2,0.7-0.2,0.9,0.1l1.2,1.6c0.5-0.2,0.9-0.3,1.4-0.4
			c0.3,0,0.7,0,1,0c0,0,0-0.1,0-0.1l0.8-1.9c0.1-0.3,0.5-0.5,0.8-0.3l2.5,1c0.3,0.1,0.5,0.5,0.3,0.8l-0.8,1.9
			c0.6,0.5,1.2,1.1,1.6,1.9c0,0,0.1,0,0.1,0l2.1-0.3c0.4,0,0.7,0.2,0.7,0.5l0.4,2.7C-828.6,1002-828.9,1002.3-829.2,1002.3z"/>
		<path class="st1" d="M-840.3,1002c-0.2-1.6,0.9-3.1,2.6-3.3c1.6-0.2,3.1,0.9,3.3,2.6c0.2,1.6-0.9,3.1-2.6,3.3
			C-838.6,1004.8-840.1,1003.7-840.3,1002z"/>
		<path class="st1" d="M-856.9,971.9c-6.4,0-11.6,5.2-11.6,11.6s5.2,11.6,11.6,11.6s11.6-5.2,11.6-11.6S-850.5,971.9-856.9,971.9z
			 M-856.9,988.7c-2.9,0-5.2-2.3-5.2-5.2c0-2.9,2.3-5.2,5.2-5.2c2.9,0,5.2,2.3,5.2,5.2C-851.7,986.4-854,988.7-856.9,988.7z"/>
	</g>
</g>
<g>
	<g>
		<polygon class="st0" points="-626.1,979.9 -631.1,982.5 -635.1,979.9 		"/>
		<polygon class="st0" points="-640.6,979.9 -644.6,982.5 -649.6,979.9 		"/>
		<polygon class="st0" points="-637.9,980 -632.8,983.3 -637.9,986 -643,983.3 		"/>
		<polygon class="st0" points="-634.5,986.1 -631.2,984.4 -628.5,986.1 		"/>
		<polygon class="st0" points="-641.2,986.1 -647.2,986.1 -644.5,984.4 		"/>
		<polygon class="st0" points="-624.5,986.3 -624.5,986.2 -625.2,986.2 -629.5,983.5 -623.2,980.2 -616.7,986.3 		"/>
		<polygon class="st0" points="-646.2,983.5 -650.5,986.2 -651.6,986.2 -651.6,986.3 -659.4,986.3 -652.7,980.1 		"/>
		<polygon class="st0" points="-627.2,987.9 -638,1008.8 -648.9,987.9 		"/>
		<polygon class="st0" points="-625.3,987.9 -616.6,987.9 -634.4,1005.5 		"/>
		<polygon class="st0" points="-659.5,987.9 -650.8,987.9 -641.6,1005.5 		"/>
		<rect x="-650.8" y="1030.3" class="st0" width="23.5" height="4.9"/>
		<g>
			<path class="st0" d="M-600,1014.6h-78.1v-45.7h78.1V1014.6z M-596.7,963.5h-84.7c-1.2,0-2.2,1-2.2,2.2v60.9c0,1.2,1,2.2,2.2,2.2
				h84.7c1.2,0,2.2-1,2.2-2.2v-60.9C-594.4,964.5-595.4,963.5-596.7,963.5"/>
			<path class="st0" d="M-621.6,1036.3h-34.8c-0.9,0-1.6,0.7-1.6,1.6v0.6h38v-0.6C-620,1037-620.7,1036.3-621.6,1036.3"/>
		</g>
	</g>
</g>
<g>
	<g>
		<g>
			<path class="st0" d="M-434.9,1026.6H-448v-10.5H-469v-11.3l20.6-33.6h13.5v32.4h5.5v12.5h-5.5L-434.9,1026.6L-434.9,1026.6z
				 M-444.5,1023.2h6.2v-10.5h5.5v-5.6h-5.5v-32.4h-8.1l-19.1,31.1v6.8h21.1L-444.5,1023.2L-444.5,1023.2z M-444.5,1007.1h-15.6
				l15.6-25.4V1007.1z M-454,1003.6h6v-9.7L-454,1003.6z"/>
		</g>
		<g>
			<path class="st0" d="M-412.1,1026.6h-13.2v-13.2h13.2V1026.6z M-421.9,1023.2h6.3v-6.3h-6.3V1023.2z"/>
		</g>
		<g>
			<path class="st0" d="M-390,1027.3c-11.8,0-19.5-7.3-19.5-18.7v-19.1c0-11.1,8.2-19.1,19.5-19.1c11.3,0,19.5,8,19.5,19v19.2
				C-370.6,1020-378.2,1027.3-390,1027.3z M-390,974c-9.3,0-16,6.6-16,15.6v19.1c0,9.5,6,15.2,16,15.2c9.9,0,16-5.8,16-15.2v-19.2
				C-374,980.5-380.8,974-390,974z M-390.1,1017.5c-5.7,0-9.5-3.8-9.5-9.3V990c0-5.7,4-9.7,9.6-9.7c5.8,0,9.5,3.8,9.5,9.7v18.3
				C-380.5,1013.7-384.4,1017.5-390.1,1017.5z M-390,983.7c-4.5,0-6.2,3.2-6.2,6.2v18.2c0,3.7,2.3,5.9,6,5.9c3.8,0,6.2-2.3,6.2-5.8
				V990C-383.9,986-386.1,983.7-390,983.7z"/>
		</g>
	</g>
</g>
<g>
	<g>
		<path class="st0" d="M-868.7,1245.2c0-6.2,1-10.7,2.7-13.6c1.8-2.9,5.3-6.3,10.7-10.4c3.1-2.6,5.6-5.3,7.5-8.3
			c1.9-3,2.8-6.3,2.8-9.9c0-4.1-1.1-7.2-3.2-9.5c-2.1-2.3-5.2-3.4-9.2-3.4c-3.3,0-6,1-8.3,2.9c-2.3,1.9-3.4,4.8-3.5,8.5h-18.8
			l-0.1-0.4c-0.1-8.5,2.7-14.9,8.4-19.4c5.7-4.5,13.1-6.7,22.3-6.7c9.9,0,17.6,2.5,23.2,7.5c5.6,5,8.4,11.8,8.4,20.4
			c0,5.6-1.6,10.8-4.9,15.5c-3.3,4.8-7.4,8.7-12.3,12c-2.7,2.1-4.5,4.2-5.3,6.2c-0.8,2.1-1.3,5-1.3,8.6L-868.7,1245.2L-868.7,1245.2
			z M-849.3,1272.5h-19.4V1256h19.4L-849.3,1272.5L-849.3,1272.5z"/>
	</g>
</g>
<g>
	<g>
		<path class="st0" d="M-671.4,1207.7c0,6.1,5,11.1,11.1,11.1c5.7,0,10.4-4.3,11-9.8h-12.4v-12.2
			C-667.1,1197.4-671.4,1202.1-671.4,1207.7z"/>
		<path class="st0" d="M-660.3,1196.6c0,0-0.1,0-0.1,0v11.1h11.2C-649.2,1201.6-654.2,1196.6-660.3,1196.6z M-659.2,1198
			c4.5,0.5,8,4,8.6,8.5h-8.6V1198z"/>
		<polygon class="st0" points="-644.2,1205.4 -636.7,1206.5 -626.5,1206.5 -624.2,1204.2 -644.2,1204.2 		"/>
		<path class="st0" d="M-644.2,1199.4v2.3h26.2c-0.6-0.7-1.1-1.5-1.5-2.3H-644.2z"/>
		<path class="st0" d="M-682.7,1181.9v10h4.4v35h53.7c0-0.9,0-1.7,0.1-2.6h-51.2v-32.4h55.7c1.1-3.7,4.1-6.4,7.6-6.4
			c3.5,0,6.5,2.7,7.6,6.4h3.4v10.8c1.1,0.6,2.1,1.5,2.6,2.7v-13.6h4.4v-10L-682.7,1181.9L-682.7,1181.9z"/>
		<path class="st0" d="M-612.4,1202.3c3.3,0,6-3.3,6-7.4c0-4.1-2.7-7.4-6-7.4c-3.3,0-6,3.3-6,7.4
			C-618.3,1199-615.7,1202.3-612.4,1202.3z"/>
		<path class="st0" d="M-604.1,1204.1c-0.1,0-0.1,0-0.2,0c-0.1,0-0.1,0-0.2,0c-1-0.1-1.9-0.2-2.9-0.3l0,0.1l2.5,2.2l-3,1.5l1.4,2.4
			l-3.9,8.6l-0.6-12.1l0.6-0.5l-0.7-2.7h-2.4l-0.7,2.7l0.6,0.5l-0.6,12.1l-3.9-8.6l1.4-2.4l-3.1-1.5l2.6-2.2l0-0.1
			c-0.7,0.1-1.4,0.1-2.1,0.2c-0.2,0-0.5,0-0.7,0.1c0,0-0.1,0-0.1,0c-0.1,0-0.3,0.1-0.4,0.1c-0.4,0.2-0.9,0.4-1.2,0.8l-4.7,4.7
			l-0.2,0.2l-2.6-0.4l-13.2-2c-0.4,2.8-0.8,5.5-1,8.3l13.3,1.2l3.3,0.3l0.8,0.1l0.2,0c0.4-0.2,3.5-1.6,3.5-1.6l0.3-0.4
			c-0.2,6.6-0.4,13.3-0.5,19.9c0,0.1,0,0.1,0,0.2c0.3,0,0.5,0,0.8,0l0.9,28.4h8.1c0.2-8.3,0.1-22.8,0-28.4c0.3,0,0.5,0,0.8,0
			l0.9,28.4h8.1c0.2-8.3,0.1-22.8,0-28.4c0.3,0,0.5,0,0.8,0c0-0.1,0-0.1,0-0.1c1.2-0.1,2.5-0.1,3.7-0.3l-2.2-27.8
			C-600.7,1205.5-602.3,1204-604.1,1204.1z"/>
	</g>
</g>
<path class="st0" d="M-401.6,1246.6h-42.8v-63.3h42.8V1246.6z M-423,1260c-2.4,0-4.4-2-4.4-4.4c0-2.4,2-4.3,4.4-4.3
	c2.4,0,4.4,1.9,4.4,4.3C-418.6,1258.1-420.6,1260-423,1260 M-429.5,1173.9h12.9c0.3,0,0.7,0.4,0.7,1c0,0.6-0.3,1-0.7,1h-12.9
	c-0.4,0-0.6-0.4-0.6-1C-430.1,1174.4-429.8,1173.9-429.5,1173.9 M-405.9,1168.5h-34.3c-4.1,0-7.5,3.4-7.5,7.5v82
	c0,4.2,3.4,7.5,7.5,7.5h34.3c4.2,0,7.5-3.4,7.5-7.5v-82C-398.3,1171.8-401.7,1168.5-405.9,1168.5"/>
<g>
	<g>
		<rect x="-864.7" y="1459.7" class="st0" width="21.9" height="4.5"/>
		<g>
			<path class="st0" d="M-817.5,1445.2h-72.6v-42.5h72.6L-817.5,1445.2L-817.5,1445.2z M-814.4,1397.6h-78.7c-1.1,0-2.1,0.9-2.1,2.1
				v56.6c0,1.1,0.9,2.1,2.1,2.1h78.7c1.2,0,2.1-0.9,2.1-2.1v-56.6C-812.3,1398.6-813.3,1397.6-814.4,1397.6"/>
			<path class="st0" d="M-837.6,1465.3h-32.4c-0.8,0-1.5,0.7-1.5,1.5v0.6h35.3v-0.6C-836.1,1465.9-836.8,1465.3-837.6,1465.3"/>
		</g>
	</g>
</g>
<g>
	<g>
		<path class="st0" d="M-677.1,1440.6v-15.1l36.2-22.2v18.3l-19.5,11.6l19.5,11.4v18.3L-677.1,1440.6z M-637,1440.6v-15.1l36.2-22.2
			v18.3l-19.5,11.6l19.5,11.4v18.3L-637,1440.6z"/>
	</g>
</g>
<g>
	<g>
		<path class="st0" d="M-460.6,1444.3l19.2-11.2l-19.2-11.4v-18l35.7,21.9v14.9l-35.7,21.9V1444.3z M-421.1,1444.3l19.2-11.2
			l-19.2-11.4v-18l35.7,21.9v14.9l-35.7,21.9V1444.3z"/>
	</g>
</g>
<g>
	<g>
		<path class="st0" d="M-864.3,1691.9C-864.3,1691.9-864.2,1691.9-864.3,1691.9c0.1,0.1,0.1,0.2,0.1,0.3c0,0,0,0,0,0
			c0.1,0.1,0.1,0.2,0.2,0.2c0,0,0,0,0.1,0c0,0,0.1,0,0.1,0.1c0,0,0.1,0,0.1,0c0,0,0.1,0,0.1,0c0.1,0,0.2,0,0.3,0l0,0
			c0.1,0,0.2,0,0.2,0c0,0,0,0,0,0c0.1,0,0.2-0.1,0.3-0.1c0,0,0,0,0.1,0c0.1-0.1,0.1-0.1,0.2-0.2c0,0,0-0.1,0.1-0.1
			c0,0,0.1-0.1,0.1-0.1l11.1-21.7l21.6,6.1c0.1,0,0.2,0,0.3,0c0.2,0,0.4-0.1,0.6-0.2c0.3-0.2,0.5-0.5,0.5-0.8l13.1-75.9
			c0.1-0.4-0.1-0.9-0.5-1.1c-0.3-0.2-0.7-0.2-1-0.1c-0.3,0-0.5,0.1-0.7,0.4l-0.2,0.2l-84.1,55.3c-0.4,0.2-0.6,0.7-0.5,1.1
			c0.1,0.4,0.4,0.8,0.8,0.9l26.4,7.4L-864.3,1691.9z M-823.5,1605.7l-50.8,55.7l-23.7-6.7L-823.5,1605.7z M-872.4,1663.1l-0.1-0.3
			l0.7-0.8l42.1-46.2L-865,1664l-0.7,0.9c0,0,0,0.1,0,0.1c-0.1,0.2-0.2,0.4-0.2,0.7l0,0.5l1,17.8l-7.2-19.5L-872.4,1663.1z
			 M-862.3,1687.2l-1.2-20.4l10.2,2.9L-862.3,1687.2z M-862.6,1664.7l44.7-61.1l-12.1,70.2L-862.6,1664.7z"/>
	</g>
</g>
<g>
	<g>
		<g>
			<path class="st0" d="M-629.5,1697.3c-22.4,0-40.6-18.2-40.6-40.6c0-22.4,18.2-40.6,40.6-40.6s40.6,18.2,40.6,40.6
				C-588.8,1679.1-607.1,1697.3-629.5,1697.3z M-629.5,1623.6c-18.3,0-33.1,14.9-33.1,33.1c0,18.3,14.9,33.1,33.1,33.1
				s33.1-14.9,33.1-33.1C-596.3,1638.4-611.2,1623.6-629.5,1623.6z"/>
		</g>
		<g>
			<circle class="st0" cx="-629.5" cy="1656.7" r="9.6"/>
		</g>
		<g>
			<path class="st0" d="M-629.5,1682.8c-14.4,0-26.2-11.7-26.2-26.2c0-14.4,11.7-26.2,26.2-26.2c14.4,0,26.2,11.7,26.2,26.2
				S-615,1682.8-629.5,1682.8z M-629.5,1638c-10.3,0-18.7,8.4-18.7,18.7c0,10.3,8.4,18.7,18.7,18.7s18.7-8.4,18.7-18.7
				C-610.8,1646.4-619.2,1638-629.5,1638z"/>
		</g>
		<g>
			<path class="st0" d="M-628.2,1654.3c-0.9-0.6-2-0.5-2.8,0l-34.5-22.6l0.9-7.7l-18.9-12.4l-0.9,7.7l-0.8-0.5
				c-0.6-0.4-1.3-0.2-1.7,0.4c-0.4,0.6-0.2,1.3,0.4,1.7l0.8,0.5l-6.8,4l18.9,12.4l6.8-3.9l1,0.7l0-0.1l33.6,22
				c0,0.9,0.3,1.8,1.2,2.3c1.2,0.8,2.9,0.5,3.7-0.8C-626.7,1656.8-627,1655.1-628.2,1654.3z M-673.6,1634.9l-14.3-9.3l4.4-2.5l9.2,6
				l5.1,3.3L-673.6,1634.9z M-667.9,1630.2l-14.3-9.3l0.6-4.9l14.3,9.3L-667.9,1630.2z"/>
			<path class="st0" d="M-629.7,1659.7L-629.7,1659.7c-0.6,0-1.2-0.2-1.7-0.5c-0.8-0.5-1.3-1.5-1.4-2.5l-32.6-21.3l-0.7-0.4
				l-0.8-0.5l-6.8,3.9l-19.9-13l6.8-4l-0.1-0.1c-0.4-0.3-0.7-0.7-0.8-1.1c-0.1-0.5,0-0.9,0.3-1.3c0.5-0.8,1.7-1,2.5-0.5l0,0l0.9-7.7
				l19.9,13l-0.9,7.7l34,22.2c1-0.5,2.2-0.4,3.1,0.2c0.7,0.5,1.2,1.2,1.4,2c0.2,0.8,0,1.7-0.5,2.4
				C-627.6,1659.2-628.6,1659.7-629.7,1659.7z M-666.3,1633.6l0.7,0.4l33.8,22.1l0,0.3c0,0.8,0.3,1.5,0.9,1.9c1,0.6,2.3,0.3,2.9-0.6
				c0.3-0.5,0.4-1,0.3-1.6c-0.1-0.6-0.4-1-0.9-1.3c-0.7-0.4-1.5-0.4-2.2,0l-0.3,0.2l-35.1-22.9l0.9-7.7l-17.9-11.7l-0.9,7.7l-1.5-1
				c-0.3-0.2-0.8-0.1-1,0.2c-0.1,0.2-0.1,0.3-0.1,0.5c0,0.2,0.1,0.3,0.3,0.4l1.5,1l-6.8,4l17.9,11.7l6.8-3.9L-666.3,1633.6z
				 M-673.6,1635.5l-15.3-10l5.4-3.1l15.3,10L-673.6,1635.5z M-686.9,1625.6l13.3,8.7l3.3-1.9l-13.3-8.7L-686.9,1625.6z
				 M-667.5,1631.1l-15.3-10l0.7-6.1l15.3,10L-667.5,1631.1z M-681.6,1620.6l13.3,8.7l0.4-3.8l-13.3-8.7L-681.6,1620.6z"/>
		</g>
	</g>
</g>
<g>
	<g>
		<g>
			<g>
				<path class="st0" d="M-365.9,1649c0,0-23.5-28-53.3-30.4c-1.3-0.2-2.6-0.2-3.9-0.2c-1.3,0-2.6,0.1-3.9,0.2
					c-29.7,2.3-53.3,30.4-53.3,30.4s23.5,28.1,53.3,30.4c1.3,0.2,2.6,0.2,3.9,0.2c1.3,0,2.6-0.1,3.9-0.2
					C-389.4,1677.1-365.9,1649-365.9,1649z M-420,1671c-1,0.1-2,0.1-3,0.1c-1,0-2,0-3-0.1c-10.8-1.5-19.2-10.8-19.2-22
					c0-11.2,8.4-20.5,19.2-22c1-0.1,2-0.1,3-0.1c1,0,2,0,3,0.1c10.8,1.5,19.2,10.8,19.2,22C-400.8,1660.2-409.2,1669.5-420,1671z
					 M-468.5,1649c2.6-2.4,6-5.4,10.1-8.5c2.7-2,5.4-3.7,8.1-5.3c-2.1,4.2-3.3,8.9-3.3,13.8s1.1,9.6,3.3,13.8
					c-2.6-1.5-5.2-3.2-7.7-5.1C-462.3,1654.6-465.8,1651.5-468.5,1649z M-387.6,1657.5c-2.7,2-5.4,3.8-8.1,5.3
					c2.1-4.2,3.3-8.9,3.3-13.8c0-4.9-1.1-9.6-3.3-13.8c2.6,1.5,5.2,3.2,7.7,5.1c4.2,3.1,7.7,6.2,10.4,8.7
					C-380.1,1651.4-383.5,1654.5-387.6,1657.5z"/>
			</g>
		</g>
		<g>
			<path class="st0" d="M-422.4,1634.6c1.2,1.5,1.9,3.4,1.9,5.5c0,5-4,9-9,9c-3,0-5.7-1.5-7.4-3.8c-0.3,1.2-0.5,2.5-0.5,3.8
				c0,8,6.5,14.4,14.4,14.4c8,0,14.4-6.5,14.4-14.4C-408.6,1641.2-414.7,1634.9-422.4,1634.6z"/>
		</g>
	</g>
</g>
<g>
	<g>
		<path class="st0" d="M-846.8,1850.6c0.5-0.5,1-1.1,1.5-1.7l3.3,0.8l0.4-0.9l0.9-2.3l0.4-0.9l-2.7-1.6c0.2-0.8,0.3-1.5,0.4-2.3
			l3.2-1l-0.1-1l-0.3-2.4l-0.1-1l-3.1-0.1c-0.2-0.8-0.5-1.5-0.8-2.2l2.3-2.4l-0.6-0.8l-1.5-1.9l-0.6-0.8l-2.8,1.5
			c-0.5-0.5-1.1-1-1.8-1.5l0.8-3.4l-0.9-0.4l-2.2-0.9l-0.9-0.4l-1.7,2.8c-0.7-0.2-1.5-0.3-2.2-0.4l-1-3.4l-1,0.1l-2.4,0.3l-1,0.1
			l-0.1,3.2c-0.7,0.2-1.4,0.4-2.1,0.7l-2.5-2.4l-0.8,0.6l-1.9,1.5l-0.8,0.6l1.5,2.8c-0.5,0.5-1,1.1-1.5,1.7l-3.3-0.8l-0.4,0.9
			l-0.9,2.3l-0.4,0.9l2.7,1.6c-0.2,0.7-0.3,1.5-0.4,2.3l-3.2,1l0.1,1l0.3,2.4l0.1,0.9l3.1,0.1c0.2,0.8,0.5,1.5,0.8,2.2l-2.3,2.4
			l0.6,0.8l1.5,1.9l0.6,0.8l2.8-1.5c0.5,0.5,1.1,1,1.8,1.5l-0.8,3.4l0.9,0.4l2.3,0.9l0.9,0.4l1.7-2.8c0.7,0.2,1.5,0.3,2.2,0.4l1,3.4
			l1-0.1l2.4-0.3l0.9-0.1l0.1-3.2c0.7-0.2,1.4-0.4,2.1-0.7l2.5,2.4l0.8-0.6l1.9-1.5l0.8-0.6L-846.8,1850.6z M-857.3,1850.6
			c-5.7,0-10.3-4.6-10.3-10.3c0-5.7,4.6-10.3,10.3-10.3c5.7,0,10.3,4.6,10.3,10.3C-846.9,1846-851.6,1850.6-857.3,1850.6z"/>
		<path class="st0" d="M-829.1,1855.7l-2.1,0.3c0,0-0.1,0-0.1,0c-0.4-0.8-1-1.4-1.6-1.9l0.8-1.9c0.1-0.3,0-0.7-0.4-0.9l-2.6-1.1
			c-0.3-0.1-0.7,0-0.9,0.4l-0.8,2c0,0,0,0.1,0,0.1c-0.3,0-0.7,0-1,0c-0.5,0.1-1,0.2-1.5,0.4l-1.3-1.7c-0.2-0.3-0.6-0.3-0.9-0.1
			l-2.2,1.7c-0.3,0.2-0.3,0.6-0.1,0.9l1.3,1.7c0,0,0.1,0.1,0.1,0.1c-0.4,0.7-0.7,1.5-0.9,2.4l-2.1,0.3c-0.4,0-0.6,0.4-0.6,0.7
			l0.4,2.8c0,0.4,0.4,0.6,0.7,0.6l2.1-0.3c0,0,0.1,0,0.1,0c0.4,0.8,1,1.4,1.6,1.9l-0.8,1.9c-0.1,0.3,0,0.7,0.4,0.9l2.6,1.1
			c0.3,0.1,0.7,0,0.9-0.4l0.8-2c0,0,0-0.1,0-0.1c0.3,0,0.7,0,1,0c0.5-0.1,1-0.2,1.5-0.4l1.3,1.7c0.2,0.3,0.6,0.3,0.9,0.1l2.2-1.7
			c0.3-0.2,0.3-0.6,0.1-0.9l-1.3-1.7c0,0-0.1-0.1-0.1-0.1c0.4-0.7,0.7-1.5,0.9-2.4l2.1-0.3c0.4,0,0.6-0.4,0.6-0.7l-0.4-2.8
			C-828.4,1855.9-828.8,1855.6-829.1,1855.7z M-836.6,1862.2c-1.7,0.2-3.2-1-3.5-2.6c-0.2-1.7,1-3.2,2.6-3.5c1.7-0.2,3.2,1,3.5,2.6
			C-833.8,1860.4-834.9,1861.9-836.6,1862.2z"/>
		<circle class="st0" cx="-857.3" cy="1840.3" r="4.7"/>
		<path class="st0" d="M-857.3,1829.9c-5.7,0-10.3,4.6-10.3,10.3c0,5.7,4.6,10.3,10.3,10.3c5.7,0,10.3-4.6,10.3-10.3
			C-846.9,1834.6-851.6,1829.9-857.3,1829.9z M-857.3,1845c-2.6,0-4.7-2.1-4.7-4.7c0-2.6,2.1-4.7,4.7-4.7c2.6,0,4.7,2.1,4.7,4.7
			C-852.6,1842.9-854.7,1845-857.3,1845z"/>
		<path class="st0" d="M-837.2,1820.2c-12.1-5.5-22.4-5.9-33.2,1.3c-8.3,5.6-11.3,19.4-11.2,21.1c0.1,1.7,1.9,4.2-3.4,7.8
			c-5.4,3.6-6,2.7-5.6,5.2c0.3,1.7,2.2,2.7,2.9,3.6c0.7,0.9,1.4,2,0.4,3.2c-0.6,0.7-2.1,0.9-1.2,3c0.8,1.8,3.3,2,4.2,2.2
			c0.3,0.1-2.3-0.4-3.5,0.1c-0.8,0.4-1.7,1.8-1.2,2.6c0.5,0.9,1.9,1.3,2.3,1.5c0.4,0.2,0.3,1.8,0.3,2.2c0.1,1.8-1,3.4-1.8,5.1
			c-0.8,1.8,0.4,5.5,4.4,6.4c4,0.8,5.5,0.8,8.4,1.1c5.2,0.5,9.1,8.2,9.6,14.5c2.2,0.4,8.8,0.4,11.1,0.4c7.6,0,14.7-1.9,21.1-5.2
			c-3.3-18.4,6.8-20.2,12.1-38C-819.2,1851.1-816.1,1829.8-837.2,1820.2z M-848,1855.5l-0.8,0.6l-2.5-2.4c-0.7,0.3-1.4,0.5-2.1,0.7
			l-0.1,3.2l-0.9,0.1l-2.4,0.3l-1,0.1l-1-3.4c-0.7-0.1-1.5-0.2-2.2-0.4l-1.7,2.8l-0.9-0.4l-2.3-0.9l-0.9-0.4l0.8-3.4
			c-0.6-0.4-1.2-0.9-1.8-1.5l-2.8,1.5l-0.6-0.8l-1.5-1.9l-0.6-0.8l2.3-2.4c-0.3-0.7-0.6-1.4-0.8-2.2l-3.1-0.1l-0.1-0.9l-0.3-2.4
			l-0.1-1l3.2-1c0.1-0.8,0.2-1.6,0.4-2.3l-2.7-1.6l0.4-0.9l0.9-2.3l0.4-0.9l3.3,0.8c0.4-0.6,0.9-1.2,1.5-1.7l-1.5-2.8l0.8-0.6
			l1.9-1.5l0.8-0.6l2.5,2.4c0.7-0.3,1.4-0.5,2.1-0.7l0.1-3.2l1-0.1l2.4-0.3l1-0.1l1,3.4c0.8,0.1,1.5,0.2,2.2,0.4l1.7-2.8l0.9,0.4
			l2.2,0.9l0.9,0.4l-0.8,3.4c0.6,0.4,1.2,0.9,1.8,1.5l2.8-1.5l0.6,0.8l1.5,1.9l0.6,0.8l-2.3,2.4c0.3,0.7,0.6,1.4,0.8,2.2l3.1,0.1
			l0.1,1l0.3,2.4l0.1,1l-3.2,0.9c-0.1,0.8-0.2,1.6-0.4,2.3l2.7,1.6l-0.4,0.9l-0.9,2.3l-0.4,0.9l-3.3-0.8c-0.4,0.6-0.9,1.2-1.5,1.7
			l1.5,2.8l-0.8,0.6L-848,1855.5z M-828.6,1859.8l-2.1,0.3c-0.1,0.9-0.4,1.6-0.9,2.4c0,0,0.1,0,0.1,0.1l1.3,1.7
			c0.2,0.3,0.2,0.7-0.1,0.9l-2.2,1.7c-0.3,0.2-0.7,0.2-0.9-0.1l-1.3-1.7c-0.5,0.2-1,0.3-1.5,0.4c-0.3,0-0.7,0-1,0c0,0,0,0.1,0,0.1
			l-0.8,2c-0.1,0.3-0.5,0.5-0.9,0.4l-2.6-1.1c-0.3-0.1-0.5-0.5-0.4-0.9l0.8-1.9c-0.7-0.5-1.2-1.2-1.6-1.9c0,0-0.1,0-0.1,0l-2.1,0.3
			c-0.4,0.1-0.7-0.2-0.7-0.6l-0.4-2.8c-0.1-0.4,0.2-0.7,0.6-0.7l2.1-0.3c0.1-0.9,0.4-1.6,0.9-2.4c0,0-0.1-0.1-0.1-0.1l-1.3-1.7
			c-0.2-0.3-0.2-0.7,0.1-0.9l2.2-1.7c0.3-0.2,0.7-0.2,0.9,0.1l1.3,1.7c0.5-0.2,1-0.3,1.5-0.4c0.3,0,0.7,0,1,0c0,0,0-0.1,0-0.1l0.8-2
			c0.1-0.3,0.5-0.5,0.9-0.4l2.6,1.1c0.3,0.1,0.5,0.5,0.4,0.9l-0.8,1.9c0.7,0.5,1.2,1.2,1.6,1.9c0,0,0.1,0,0.1,0l2.1-0.3
			c0.4,0,0.7,0.2,0.7,0.6l0.4,2.8C-828,1859.4-828.2,1859.7-828.6,1859.8z"/>
		<path class="st0" d="M-837.4,1856.1c-1.7,0.2-2.9,1.8-2.6,3.5c0.2,1.7,1.8,2.9,3.5,2.6c1.7-0.2,2.9-1.8,2.7-3.5
			C-834.2,1857-835.8,1855.8-837.4,1856.1z"/>
	</g>
</g>
<g>
	<g>
		<g>
			<path class="st0" d="M-572,1819.9c-0.5,0.1-2.4,0.4-2.9,0.4c-0.5,0.1-0.9,0.5-1.3,0.3c-0.4-0.2-0.7-0.2-0.9-0.6
				c-0.2-0.5-0.4-0.8-0.9-0.8c-0.5,0-1.2,0.3-1.7,0.3c-0.5,0-1.4-0.1-1.6,0.2c-0.2,0.3-1.2,1.7-1.4,2c-0.2,0.3-0.7,1.1-1,1.2
				c-0.3,0.1-1.4,0.2-1.5,0.5c-0.1,0.4-0.8,1.5-1.1,1.9c-0.4,0.4-1.2,0.8-1.9,0.8s-1.6-0.1-2.1,0.2c-0.4,0.3-2,1.3-2.5,1.5
				c-0.5,0.2-1.5,0.6-1.7,0.5c-0.2-0.1-1.3-0.1-1.5,0.1c-0.2,0.2-0.2,0.7-0.7,0.7c-0.5,0-1.2,0.4-1.6,0.6c-0.4,0.2-2.3,1.1-3,1.6
				c-0.7,0.5-3,2.1-3.4,2.2c-0.4,0.2-1.8,1-2.3,1.1c-0.5,0.1-1.2-0.4-1.3-0.1c-0.1,0.3-0.2,0.6-0.4,0.8l0,0l0,0c0,0-0.1,0.1-0.1,0.1
				c-0.4,0.2-2.1,1.2-2.6,1.7c-0.5,0.5-0.9,1.5-1.5,2c-0.5,0.5-1.2,1-1.5,1.5c-0.2,0.5-0.8,2-1.2,2.3c-0.4,0.4-1.6,1.8-1.9,2.3
				c-0.3,0.5-0.6,1.5-1.2,1.8c-0.6,0.2-0.6,0.1-0.9,0.4c-0.2,0.3-0.3,0.8-0.6,1c0,0,0,0,0,0c-0.3,0.2-0.9,0.2-1.2,0.8
				c-0.2,0.6-0.3,1.9-0.6,1.7c-0.4-0.3-0.7-0.4-0.7,0.2c0,0.6,0.5,1.1,0.1,1.5c-0.4,0.5-0.6,1.4-1.2,1.5c-0.6,0.1-1.3,0.6-1.6,0.9
				c-0.3,0.4-1.5,2.5-2,2.6c-0.5,0.1-0.9,0.1-1.4,0.1c-0.4,0.1-1.2,0.4-1.2,0.4s-0.5,0-1.1-0.2c-0.6-0.2-1.2-0.4-1.6-0.4
				c-0.5,0.1-1.2,0.8-1.6,0.9c-0.4,0.1-1.3,0.7-1.7,0.8c-0.4,0.1-0.4,0.6-0.7,0.6c-0.3,0-0.5,0.2-0.5-0.1c0-0.3,0.1-0.5-0.5-0.5
				c-0.6,0.1-0.9,0.2-1.4,0.7c-0.5,0.5-0.6,0.8-1.1,0.9c-0.4,0.1-0.8,0.1-0.8,0.1s-0.2-0.3-0.4,0.1c-0.2,0.4-0.4,0.6-0.7,0.7
				c-0.4,0.1-0.5-0.1-0.8,0.1c-0.3,0.2-0.9,1.1-1.2,1.4c-0.2,0.3-0.6,0.7-0.8,0.7c-0.2,0-0.9-0.1-1,0.2c-0.1,0.3-0.1,0.8-0.4,0.9
				c-0.3,0.1-0.6,0.4-0.9,0.2c-0.2-0.2-0.4-0.2-0.6-0.2c-0.2,0-0.6,0.2-1,0.3c-0.2,0-0.3,0-0.4,0c-0.5-0.1-1.1-0.2-1.5-0.2
				c-0.4,0.1-1.2,0.4-1.6,0.1c-0.4-0.3-1.2-0.8-1.4-0.8c-0.2,0-2.1-0.4-2.6-0.7c-0.6-0.2-1.1-0.7-1.1-0.8c-0.1-0.4,0.4-0.7-0.1-0.9
				c-0.5-0.3-1.3-0.7-1.4-0.8c-0.1-0.2-0.6-0.4-0.9-0.4c-0.4,0-1.3,0.2-1.5,0.2c-0.2,0-0.8,0.1-1-0.2s-0.3-0.8-0.5-1
				c-0.2-0.2-0.9-0.1-1.4-0.3c-0.5-0.2-1.3-0.5-1.5-0.7c-0.2-0.1-1-0.4-1.2-0.1c-0.2,0.3-0.6,0.8-0.8,1.1c-0.2,0.2-1.1,0.7-1.4,0.9
				c-0.4,0.2-1.4,1.3-1.4,1.5c-0.1,0.2-0.4,0.4-0.1,0.7c0.3,0.4,0.8,1.1,0.5,1.7c-0.3,0.6-1.1,1.2-1.5,1.6c-0.1,0.1-0.2,0.3-0.3,0.4
				c-0.2,0.2-0.4,0.3-0.7,0.3c-0.4-0.1-1.4-0.2-1.6,0.1c-0.2,0.3-0.5,1.7-0.8,1.7c-0.3,0-0.9,0.2-1.1,0.4c-0.1,0.1-0.4,0.6-0.7,0.9
				l-0.8,0.6c0,0-0.1,0-0.1,0.1c-0.7,0.3-1.6,0.7-1.9,0.8c-0.5,0.1-1,0.2-1.2,0.3c-0.2,0.1-0.9,0-1.3,0.2c-0.4,0.2-0.9,0.6-1.3,0.8
				c-0.4,0.1-1.4,0.1-1.8,0.1c-0.4-0.1-1.9-0.5-2.2-1c-0.3-0.5-0.5-2-0.5-2.4c0-0.5,0.1-1.6-0.4-1.7c-0.5-0.1-0.5,0-1.4,0
				c-0.8,0-1.3,0.2-1.4,0.5c-0.1,0.4-0.1,0.8-0.4,0.9c-0.4,0.2-1.5,0.3-1.4,0.7c0.1,0.4,0.7,0.8,0.2,1c-0.5,0.2-1.3,0.1-0.9,0.5
				c0.4,0.4,0.9,1.2,1.2,1.4c0.3,0.2,1,1.1,0.5,1.1c0,0-0.1,0-0.2,0c-0.8-0.2-1.5-0.2-1.6-0.4c-0.2-0.2-0.3-0.4-0.5-0.1
				c-0.2,0.2-0.8,1.1-0.9,1.3c-0.2,0.2-0.8,0.6-1.1,0.5c-0.4-0.1-1.1-0.5-1.1-0.3s0.4,0.6-0.1,0.7c-0.5,0.1-1.1,0.4-1.5,0.2
				c-0.4-0.2-0.4-0.4-0.6,0c-0.2,0.4-0.2,0.9-0.6,1.1c-0.4,0.1-0.9,0.1-1,0.4c-0.1,0.4,0,0.6-0.3,0.9c-0.3,0.3-0.4,0.5-0.6,0.9
				c-0.2,0.4-0.5,1.2-0.1,1.4c0.4,0.2,1,0.8,0.8,1.2c-0.2,0.4-0.2,0.5-0.1,1.1c0.1,0.5,0.5,0.8,0.5,1.1c-0.1,0.4-0.1,0.8,0.2,1.1
				c0.3,0.3,0.7,0.9,0.8,1.5c0,0,0,0,0,0c0,0,0,0,0,0c0.1,0.6-0.2,1.4,0.2,1.7c0.4,0.3,1.1,1.2,1.7,1.2c0.6,0.1,2.6-0.1,2.9,0.1
				c0,0,0,0,0.1,0l0,0l0,0l0,0c0.3,0.2,0.7,0.6,1.1,0.6h0.9c0.2,0,0.8,0.7,0.9,0.2c0.2-0.4-0.1-0.5,0.5-0.8c0.5-0.2,2.5-0.7,2.8-0.6
				c0.4,0.1,1.1,0.4,1.5,0.2c0.4-0.2,1.3-0.4,1.6-0.4c0,0,0,0,0.1,0l0,0l0,0c0.4,0.1,1.5,0.7,1.9,0.5c0.4-0.2,0.5-0.7,0.8-0.3
				c0.2,0.4,0.5,0.8,0.8,0.4c0.3-0.4,0.9-1.1,1.5-1.1c0.6,0,3.3-0.5,3.8-0.5c0.5-0.1,2.2-0.8,2.6-0.8c0.5-0.1,1.1-0.2,1.2,0.1
				c0.2,0.4,0.5,1.2,0.9,1.2c0.4,0.1,1.1-0.2,1.5-0.1c0,0,0.1,0,0.1,0c0.3,0,0.6,0,0.6,0.3c0.1,0.4,0,1.1,0.2,0.7
				c0.2-0.4,0-0.6,0.5-0.8c0.5-0.2,0.9-0.5,1.8-0.5c0.9-0.1,1.1-0.1,1.9-0.1c0.8,0,1.5,0.3,1.5-0.1c0-0.4-0.2-1.1,0-1.2
				c0.2-0.2,0.6-1.7,1.4-1.7c0.7,0,0.5-0.2,0.9-0.4c0.4-0.2,0.5-0.2,0.9-0.2c0,0,0.8,0.1,1.2,0.4c0.1,0.1,0.2,0.1,0.3,0.2l1.7,1.3v0
				c0.1,0.1,0.2,0.2,0.2,0.3c0.1,0.5-0.1,1.5,0.4,1.5c0.4,0,0.5-0.4,1-0.1c0.5,0.3,0.7,1.1,0.9,0.9c0.2-0.2,0.6-0.4,0.9-0.2
				c0.4,0.2,0.7,0.4,0.7,0.7c0,0.2,0,0.8,0.2,0.7c0.2-0.1,0.9-0.6,1-0.2c0.1,0.4,0.2,0.6,0.4,0.8c0.2,0.1,0.5-0.1,1-0.1
				c0.5,0.1,2,0.4,2.4,0.7c0.4,0.3,0.9,0.6,1.2,0.5c0.4-0.1,0.4-0.3,1-0.3c0.3,0,0.8,0.1,1.1,0.3l0,0v0l0,0c0.2,0.1,0.4,0.3,0.6,0.4
				c0.3,0.3,0.5,0.5,1,0.8c0.5,0.2,1.7,1.1,2.1,1.1c0.4,0.1,0.7,0.1,1,0.4c0.3,0.3,0.5,0.9,0.9,0.9c0.4,0,0.6-0.1,0.9-0.1
				c0.3,0.1,1.2,0.2,1.6,0.6c0.4,0.4,0.2,0.6,0.8,0.8c0.5,0.2,1.8-0.1,1.9,0.2c0.1,0.1,0.1,0.2,0.1,0.4c0,0-0.1,0-0.1,0l0.1,0
				c0.1,0.2,0.1,0.5,0.3,0.8c0,0,0.7,0.9,0.9,1.5c0.2,0.5,1.2,1.5,1.5,1.8c0.3,0.3,0.6,0.8,0.9,1.2c0.2,0.4,0.8,1.3,1.2,1.4
				c0.4,0.1,0.8,0.3,1.4,0.5c0.5,0.2,1.5,0.3,1.9,0.5c0.4,0.2,1.5,0.5,2.1,0.5c0.6,0,0.8-0.1,1.4-0.1c0.6-0.1,0.8,0,1.3-0.2
				c0.5-0.2,1.5-0.9,1.8-1.2c0.4-0.3,1.2-1.4,1.5-1.7c0.4-0.3,1.2-0.5,1.5-0.9c0.3-0.4-0.1-0.4,0.7-0.7c0,0,0,0,0,0l0,0l0,0
				c0.8-0.3,0.9-0.4,1.3-0.7c0.4-0.4,0.8-0.8,1.2-0.9c0.4-0.2,0.9-0.9,1.3-1.2c0.4-0.3,1.5-0.8,1.6-1.1c0.2-0.3,0.8-1.3,1.2-1.5
				c0.4-0.2,0.6-0.5,0.6-0.7c0-0.2,0.2-1.2,0.4-1.5c0.1-0.3,0.4-0.8,0.6-1.2l0.8-0.6l0,0l0,0c0.6-0.3,1.4-0.6,1.7-0.7
				c0.4-0.1,0.7-0.1,1.2-0.1c0.5,0,1.1-0.5,1.3-0.8c0.2-0.3,0.8-1.9,0.9-2.3c0.1-0.3-0.3-1.2-0.5-1.6c0,0,0-0.7-0.1-1.5
				c-0.1-0.7,0.3-2.2,0.4-2.2l-0.8,1.6h-0.4l-0.4,1.6c-0.1,0-0.3-0.1-0.3-0.1c-0.4-0.2-0.2-0.4-0.2-0.7c0,0,0,0,0,0
				c0.1-0.3,0.4-1.1,0.6-1.6c0.2-0.5-0.6-0.6-0.4-1.1c0.2-0.5,0.2-0.2,0.5-0.2c0.3,0,0.1-0.4-0.1-0.5c-0.2-0.1-0.1-0.5,0.1-0.7
				c0.2-0.2,0.4-0.6,0.5-0.8c0.1-0.2,1.4-2.3,1.6-2.6c0.3-0.4,0.9-2.8,1.1-3c0.2-0.2,0.9-2,1.1-2.3c0-0.1,0.1-0.1,0.2-0.2l0,0l0,0
				c0.4-0.4,1.3-1.3,1.6-1.5c0.4-0.3,0.6-0.7,0.8-1c0.2-0.3,0.8-0.6,1.2-0.8c0.4-0.2,2.1-2.2,2.5-2.5c0.4-0.3-0.4-0.4-0.7-0.5
				c-0.3-0.1,0.2-0.8,0.6-1.2c0.5-0.4,0.8-0.8,0.8-0.8s0.5-0.8,0.6-1.2c0.1-0.4,1.1-0.9,1.3-1.2c0.2-0.4,1.3-1.2,1.8-1.7
				s1.1-1.6,1.4-2.5s0-2.3,0-2.5c0-0.2,0.1-1.5,0.4-2.1c0.2-0.7,0.8-2.5,1.1-3.1c0.2-0.2,0.4-0.6,0.6-0.9l0,0
				c0.3-0.4,0.6-0.8,0.6-0.8s0.8-0.9,0.9-1.2c0.2-0.3,0.4-0.6,0.6-1c0.2-0.4,0.5-0.4,0.9-0.5c0.4-0.2,0.5-0.7,0.6-0.9
				c0.1-0.3,0.6-0.4,0.9-0.5c0.2-0.1,0.4-0.4,0.6-0.8l0,0c0-0.1,0.1-0.2,0.1-0.3c0.2-0.5,0.8-1,1.1-1.2c0.3-0.2,0.4-1.9,0.5-2.4
				c0.1-0.5,0.2-0.5,0.4-0.8c0.2-0.4,0.2-1.5,0.2-2s-0.1-1.1-0.1-1.6s0.2-1.5,0.2-1.9c0.1-0.4,0.6-2.8,0.8-3.1
				c0.1-0.3,0.7-2,0.9-2.4c0.2-0.4,0.4-1,0.7-1.4c0.4-0.4,1.2-1.2,1.4-1.4c0.2-0.2,0.8-0.6,0.9-0.9c0.2-0.4,0.7-1.3,0.7-1.3
				C-571.9,1820.5-571.5,1819.8-572,1819.9z M-695.9,1879.1L-695.9,1879.1l0.1-1.8L-695.9,1879.1z M-695.1,1877.7l-0.1,0.3l0.1-0.6
				l0,0L-695.1,1877.7z M-683.9,1881.8l-0.1-0.2L-683.9,1881.8l1.8,0.1L-683.9,1881.8z M-681.3,1877
				C-681.3,1877-681.3,1877.1-681.3,1877C-681.3,1877-681.3,1877-681.3,1877C-681.2,1877-681.3,1877-681.3,1877z M-680.2,1876.6
				c-0.1,0-0.2-0.1-0.4-0.2C-680.4,1876.5-680.2,1876.6-680.2,1876.6z M-679.8,1881.8h-0.5l-0.1-0.2l0.1,0.2h0L-679.8,1881.8l0-1.2
				L-679.8,1881.8z M-676.1,1870.1l-0.1-0.4l0.2,1L-676.1,1870.1z M-670.2,1880.6L-670.2,1880.6l0.2,1.3L-670.2,1880.6z
				 M-670.3,1867.4l0.1,1.5L-670.3,1867.4l0.6-0.2L-670.3,1867.4z M-660.5,1867.2l-0.4-0.4l0,0l0.7,0.6L-660.5,1867.2z M-651.7,1870
				L-651.7,1870L-651.7,1870L-651.7,1870z M-652.9,1878.7L-652.9,1878.7L-652.9,1878.7L-652.9,1878.7z M-651.8,1872.6l-2.5,1
				L-651.8,1872.6l0.6-1.3L-651.8,1872.6z M-634.1,1882.1l-1.4,3h0l1.7-3.5L-634.1,1882.1z M-631.5,1863.8c-0.1,0-0.2,0-0.2,0
				c0,0,0,0,0,0C-631.6,1863.8-631.5,1863.8-631.5,1863.8z M-628.4,1881.8L-628.4,1881.8L-628.4,1881.8L-628.4,1881.8z
				 M-628.5,1873.6l-4.2,2.6l-0.7,0.2l0.7-0.2L-628.5,1873.6l0.6-0.8L-628.5,1873.6z M-627.6,1879.1L-627.6,1879.1l1.5-1.3
				L-627.6,1879.1z M-624.7,1893.3C-624.7,1893.3-624.7,1893.3-624.7,1893.3L-624.7,1893.3L-624.7,1893.3z M-619.4,1892.6
				L-619.4,1892.6l-1.1-1.3L-619.4,1892.6L-619.4,1892.6z M-619.3,1893.5l0-0.4l0.2,1.5L-619.3,1893.5z M-619.2,1854.5l0.4-0.4
				L-619.2,1854.5l4.1,4.6l-0.2,0.1l0.2-0.1L-619.2,1854.5z M-614.7,1876L-614.7,1876l-0.8-0.9v0L-614.7,1876z M-615.4,1886.3
				c-0.4,0.2-0.7,0.3-0.7,0.3s1.5-0.7,1.9-0.9C-614.4,1885.8-615,1886-615.4,1886.3z M-615.1,1850.6l1-1.1l0,0l0,0l0.4-0.4
				L-615.1,1850.6z M-612.5,1874.8c0.1,0.1,0.1,0.1,0.2,0.2C-612.4,1874.9-612.4,1874.8-612.5,1874.8z M-612.8,1873.8
				c0.1-0.1,0.3-0.1,0.5-0.1C-612.4,1873.6-612.6,1873.7-612.8,1873.8z M-611.3,1883.5l-0.1-0.5L-611.3,1883.5L-611.3,1883.5z
				 M-611.3,1883.5L-611.3,1883.5l0.1,0.5L-611.3,1883.5z M-608.1,1878.1L-608.1,1878.1L-608.1,1878.1L-608.1,1878.1z
				 M-603.4,1854.1l-2.9,3l-0.2,0.2l0.2-0.2l0,0L-603.4,1854.1l0.1-0.4L-603.4,1854.1z M-600.4,1849.8
				C-600.4,1849.8-600.4,1849.8-600.4,1849.8c0.1-0.1,0.1-0.2,0.1-0.2C-600.3,1849.6-600.3,1849.7-600.4,1849.8z M-600.1,1848.8
				c0-0.1,0-0.1,0-0.2C-600.1,1848.7-600.1,1848.8-600.1,1848.8C-600.1,1848.8-600.1,1848.8-600.1,1848.8z M-600.1,1848.9
				L-600.1,1848.9C-600.1,1848.9-600.1,1848.9-600.1,1848.9C-600.1,1848.9-600.1,1848.9-600.1,1848.9z M-600,1852.6L-600,1852.6
				l0.4,0L-600,1852.6z M-592.9,1846.7c0.1,0.1,0.2,0.3,0.3,0.5C-592.7,1846.9-592.8,1846.8-592.9,1846.7z M-590.8,1843.2l-1.6-1.8
				l0,0L-590.8,1843.2L-590.8,1843.2z"/>
			<path class="st0" d="M-669.5,1859.7c0.3,0,0.7-0.2,0.9-0.4c0.1-0.1,0.2-0.2,0.3-0.2c0.2-0.2,0.7-0.7,0.6-0.8c0,0,0,0-0.1-0.1
				c-0.3-0.1-1.1-0.4-1.1-0.4c-0.2-0.2-0.6-0.4-0.7-0.1c0,0,0,0.1,0,0.1c0,0.2,0,0.3,0.1,0.5c0,0.3,0.1,0.5,0.1,0.7
				C-669.4,1859.3-670,1859.6-669.5,1859.7z"/>
			<path class="st0" d="M-588.2,1824.3c0.4,0,1-0.4,1.4-0.6c0.4-0.2,1.1-0.6,1.4-0.9c0,0,0.1-0.1,0.1-0.1c0.2-0.2,0.4-0.4,0.5-0.5
				c0.1-0.1,0.3-0.3,0.4-0.4c0.3-0.3,0.6-0.9,0.4-1c0,0,0,0-0.1,0c-0.1,0-0.3,0-0.4,0c-0.3,0-0.6,0-0.8,0.1
				c-0.3,0.3-0.6,0.6-1.1,0.7c-0.4,0.1-0.8,0.2-1.1,0.6c0,0,0,0.1-0.1,0.1C-587.7,1822.7-588.5,1824.1-588.2,1824.3
				C-588.3,1824.3-588.3,1824.3-588.2,1824.3z"/>
			<path class="st0" d="M-691.8,1865.7c0.5,0.2,1.1,0.2,1.4,0.2l0,0l0,0c0.2,0,0.9-0.1,1.5,0c0.3,0,0.5,0.1,0.6,0.3
				c0.4,0.5,0.9,1.2,1.2,1.7c0.1,0.1,0.1,0.2,0.2,0.3c0.3,0.4,0.7,0.9,1,1.3c0.2,0.2,0.4,0.4,0.4,0.4c0.1,0,0.2,0,0.3-0.1
				c0.1,0,0.3,0,0.6,0.1c0.3,0.1,0.6,0.6,0.8,0.6c0.1,0,0.1,0,0.2-0.2c0.1-0.1,0.2-0.3,0.2-0.4c0.2-0.2,0.3-0.4,0.5-0.5
				c0.1,0,0.1-0.1,0.2-0.1c0.4-0.1,0.9,0.3,1.4,0.2c0.1,0,0.2-0.1,0.3-0.1c0.6-0.3,1.6-0.9,2-1.2c0.1,0,0.1-0.1,0.2-0.1
				c0.5-0.2,1-0.5,1.2-0.7c0,0,0,0,0,0c0.1-0.2,0.3-0.5,0.4-0.8c0.1-0.2,0.2-0.4,0.4-0.4c0.3-0.1,0.7,0.2,1.1-0.1
				c0.1-0.1,0.3-0.1,0.5-0.2c0.5-0.2,1.2-0.5,1.5-0.7c0.1,0,0.1-0.1,0.1-0.1c0.1-0.3,0.4-1,0.6-1.2c0.1,0,0.1-0.1,0.2-0.1
				c0.2-0.1,0.3-0.3,0.3-0.6c0-0.2,0-0.7,0-1c0-0.2,0.1-0.4,0.2-0.4c0,0,0,0,0,0c0.3-0.1,0.4-0.3,0.8-0.7c0.1-0.2,0.2-0.3,0.3-0.4
				c0.1-0.2,0.1-0.3,0.3-0.4c0,0,0,0,0,0c0.3-0.2,0.4-0.2,0.5-0.4c0,0,0-0.1,0-0.1c0-0.1,0-0.2,0-0.3c0-0.2-0.1-0.2-0.1-0.6
				c0-0.5-0.4-1.1-0.4-1.1s-0.4-0.2-0.4-0.4c0-0.1-0.1-0.2-0.1-0.3c-0.1-0.2-0.2-0.4-0.5-0.7c-0.1-0.1-0.1-0.1-0.2-0.1
				c-0.5-0.3-1.2-0.2-1.5-0.4c-0.4-0.2-1.2-0.9-1.7-0.8c-0.4,0.1-0.9,0.3-1.4,0.3c-0.1,0-0.2,0-0.4,0c-0.5-0.1-1.1,0.1-1.5,0
				c-0.3,0-0.6-0.3-0.8-0.2c0,0,0,0-0.1,0c0,0,0,0,0,0c0,0-0.1,0.1-0.1,0.1c0,0-0.1,0.1-0.1,0.2c0,0,0,0,0,0c0,0,0,0.1,0,0.1
				c-0.1,0.2-0.1,0.5-0.2,0.7c-0.1,0.4-0.3,0.7-0.6,0.8c-0.2,0.1-0.5,0.2-0.8,0.3c-0.6,0.2-1.3,0.5-1.4,0.7
				c-0.1,0.2-0.4,0.8-0.8,1.1c-0.1,0.1-0.3,0.2-0.5,0.2c-0.6,0.1-2.1-0.1-2.3,0.2c-0.2,0.3-0.5,1.6-1,1.6c-0.4,0-1.2-0.2-1.7-0.1
				c-0.1,0-0.1,0-0.2,0c-0.3,0.1-0.8,0.3-1.1,0.5c0,0,0,0,0,0c0,0-0.1,0.1-0.1,0.1c0,0,0,0-0.1,0.1c0,0,0,0.1-0.1,0.1c0,0,0,0,0,0.1
				c0,0,0,0,0,0c-0.2,0.4-1.1,1.7-0.9,2c0.1,0.2,0.3,0.5,0.3,0.7c0,0.1,0,0.2-0.1,0.2c0,0-0.1,0.1-0.1,0.1c-0.4,0.1-1,0.4-1.1,0.7
				C-692,1865.5-691.9,1865.6-691.8,1865.7z"/>
			<path class="st0" d="M-651.6,1891.2c0.4,0.3,0.7,0.6,1.1,0.4c0.4-0.2,0.5-0.5,0.5-0.5s-0.7-0.3-0.9-0.3
				C-651.2,1890.8-652,1890.9-651.6,1891.2z"/>
			<path class="st0" d="M-602.5,1891.7c0-0.1-0.1-0.2-0.1-0.3c-0.1-0.2-0.1-0.4-0.1-0.4s-0.3-0.3-0.6-0.3c-0.1,0-0.1,0-0.2,0l0,0
				c-0.1,0-0.1,0-0.2,0c-0.2,0-0.3,0-0.4,0.1c-0.1,0.1-0.3,0.1-0.4,0.3c-0.1,0.1-0.1,0.1-0.2,0.2c-0.3,0.2-0.5,0.4-0.7,0.5
				c0,0-0.1,0-0.1,0c-0.1,0-0.3,0-0.5,0c-0.1,0-0.2,0-0.3,0c-0.5,0.1-1,0.2-1,0.5c0,0.2,0,0.3,0,0.5c0,0.1,0,0.3-0.1,0.5
				c-0.2,0.4-0.4,0.7-0.4,0.9c0,0,0,0.1,0,0.1c0,0,0,0.1-0.1,0.1c-0.1,0.2-0.2,0.4-0.3,0.6c0,0,0,0.1-0.1,0.1
				c-0.1,0.2-0.2,0.5-0.3,0.8c0,0.1,0,0.1,0,0.2l0,0c0,0.1,0,0.2,0,0.3c0.1,0.5,0.4,1.2,0.7,1.1c0.4-0.1,0.5-0.4,0.9-0.4
				c0.5-0.1,1.1-0.5,1.1-0.5c0.1-0.1,0.2-0.2,0.2-0.2c0.2-0.3,1.1-1.9,1.5-2.4c0.1-0.1,0.1-0.1,0.2-0.1c0,0,0.1,0,0.1,0
				c0.4-0.2,1.1-0.4,1.3-0.7c0,0,0.1-0.1,0.1-0.1c0-0.1,0-0.3,0.1-0.5c0-0.2,0-0.4,0-0.6C-602.4,1891.8-602.5,1891.7-602.5,1891.7z"
				/>
		</g>
		<g>
			<path class="st2" d="M-626.6,1885.7c-2.4,0-4.3,1.9-4.3,4.3c0,2.4,4.3,6.5,4.3,6.5s4.3-4.2,4.3-6.5
				C-622.3,1887.6-624.2,1885.7-626.6,1885.7"/>
			<path class="st0" d="M-626.6,1890.5c-0.5,0-0.9-0.4-0.9-0.9c0-0.5,0.4-0.9,0.9-0.9c0.5,0,0.9,0.4,0.9,0.9
				C-625.7,1890.1-626.1,1890.5-626.6,1890.5 M-626.6,1887.7c-1.1,0-2,0.9-2,2c0,1.1,0.9,2,2,2c1.1,0,2-0.9,2-2
				C-624.6,1888.5-625.5,1887.7-626.6,1887.7"/>
		</g>
	</g>
</g>
</svg>
