<?xml version="1.0" encoding="utf-8"?>
<!-- Generator: Adobe Illustrator 19.0.0, SVG Export Plug-In . SVG Version: 6.00 Build 0)  -->
<svg version="1.1" id="Layer_1" xmlns="http://www.w3.org/2000/svg" xmlns:xlink="http://www.w3.org/1999/xlink" x="0px" y="0px"
	 viewBox="-912.1 970.6 114.3 61" style="enable-background:new -912.1 970.6 114.3 61;" xml:space="preserve">
<style type="text/css">
	.st0{fill:#3F444E;}
</style>
<g>
	<g>
		<g>
			<g>
				<path class="st0" d="M-797.9,1001c0,0-23.5-28-53.3-30.4c-1.3-0.2-2.6-0.2-3.9-0.2c-1.3,0-2.6,0.1-3.9,0.2
					c-29.7,2.3-53.3,30.4-53.3,30.4s23.5,28.1,53.3,30.4c1.3,0.2,2.6,0.2,3.9,0.2c1.3,0,2.6-0.1,3.9-0.2
					C-821.4,1029.1-797.9,1001-797.9,1001z M-852,1023c-1,0.1-2,0.1-3,0.1c-1,0-2,0-3-0.1c-10.8-1.5-19.2-10.8-19.2-22
					c0-11.2,8.4-20.5,19.2-22c1-0.1,2-0.1,3-0.1c1,0,2,0,3,0.1c10.8,1.5,19.2,10.8,19.2,22C-832.8,1012.2-841.2,1021.5-852,1023z
					 M-900.5,1001c2.6-2.4,6-5.4,10.1-8.5c2.7-2,5.4-3.7,8.1-5.3c-2.1,4.2-3.3,8.9-3.3,13.8c0,4.9,1.1,9.6,3.3,13.8
					c-2.6-1.5-5.2-3.2-7.7-5.1C-894.3,1006.6-897.8,1003.5-900.5,1001z M-819.6,1009.5c-2.7,2-5.4,3.8-8.1,5.3
					c2.1-4.2,3.3-8.9,3.3-13.8s-1.1-9.6-3.3-13.8c2.6,1.5,5.2,3.2,7.7,5.1c4.2,3.1,7.7,6.2,10.4,8.7
					C-812.1,1003.4-815.5,1006.5-819.6,1009.5z"/>
			</g>
		</g>
		<g>
			<path class="st0" d="M-854.4,986.6c1.2,1.5,1.9,3.4,1.9,5.5c0,5-4,9-9,9c-3,0-5.7-1.5-7.4-3.8c-0.3,1.2-0.5,2.5-0.5,3.8
				c0,8,6.5,14.4,14.4,14.4c8,0,14.4-6.5,14.4-14.4C-840.6,993.2-846.7,986.9-854.4,986.6z"/>
		</g>
	</g>
</g>
</svg>
