<?xml version="1.0" encoding="utf-8"?>
<!-- Generator: Adobe Illustrator 19.0.0, SVG Export Plug-In . SVG Version: 6.00 Build 0)  -->
<svg version="1.1" id="Layer_1" xmlns="http://www.w3.org/2000/svg" xmlns:xlink="http://www.w3.org/1999/xlink" x="0px" y="0px"
	 viewBox="-909.6 962.7 104.8 86.6" style="enable-background:new -909.6 962.7 104.8 86.6;" xml:space="preserve">
<style type="text/css">
	.st0{fill:#3299B9;}
	.st1{fill:#40444E;}
</style>
<g>
	<g>
		<g>
			<path class="st0" d="M-845.5,1049.3c-22.4,0-40.6-18.2-40.6-40.6c0-22.4,18.2-40.6,40.6-40.6s40.6,18.2,40.6,40.6
				C-804.8,1031.1-823.1,1049.3-845.5,1049.3z M-845.5,975.6c-18.3,0-33.1,14.9-33.1,33.1c0,18.3,14.9,33.1,33.1,33.1
				s33.1-14.9,33.1-33.1C-812.3,990.4-827.2,975.6-845.5,975.6z"/>
		</g>
		<g>
			<circle class="st0" cx="-845.5" cy="1008.7" r="9.6"/>
		</g>
		<g>
			<path class="st0" d="M-845.5,1034.8c-14.4,0-26.2-11.7-26.2-26.2c0-14.4,11.7-26.2,26.2-26.2c14.4,0,26.2,11.7,26.2,26.2
				C-819.3,1023.1-831,1034.8-845.5,1034.8z M-845.5,990c-10.3,0-18.7,8.4-18.7,18.7c0,10.3,8.4,18.7,18.7,18.7s18.7-8.4,18.7-18.7
				C-826.8,998.4-835.2,990-845.5,990z"/>
		</g>
		<g>
			<path class="st1" d="M-844.2,1006.3c-0.9-0.6-2-0.5-2.8,0l-34.5-22.6l0.9-7.7l-18.9-12.4l-0.9,7.7l-0.8-0.5
				c-0.6-0.4-1.3-0.2-1.7,0.4c-0.4,0.6-0.2,1.3,0.4,1.7l0.8,0.5l-6.8,4l18.9,12.4l6.8-3.9l1,0.7l0-0.1l33.6,22
				c0,0.9,0.3,1.8,1.2,2.3c1.2,0.8,2.9,0.5,3.7-0.8C-842.7,1008.8-843,1007.1-844.2,1006.3z M-889.6,986.9l-14.3-9.3l4.4-2.5l9.2,6
				l5.1,3.3L-889.6,986.9z M-883.9,982.2l-14.3-9.3l0.6-4.9l14.3,9.3L-883.9,982.2z"/>
			<path class="st1" d="M-845.7,1011.7L-845.7,1011.7c-0.6,0-1.2-0.2-1.7-0.5c-0.8-0.5-1.3-1.5-1.4-2.5l-32.6-21.3l-0.7-0.4
				l-0.8-0.5l-6.8,3.9l-19.9-13l6.8-4l-0.1-0.1c-0.4-0.3-0.7-0.7-0.8-1.1c-0.1-0.5,0-0.9,0.3-1.3c0.5-0.8,1.7-1,2.5-0.5l0,0l0.9-7.7
				l19.9,13l-0.9,7.7l34,22.2c1-0.5,2.2-0.4,3.1,0.2c0.7,0.5,1.2,1.2,1.4,2c0.2,0.8,0,1.7-0.5,2.4
				C-843.6,1011.2-844.6,1011.7-845.7,1011.7z M-882.3,985.6l0.7,0.4l33.8,22.1l0,0.3c0,0.8,0.3,1.5,0.9,1.9c1,0.6,2.3,0.3,2.9-0.6
				c0.3-0.5,0.4-1,0.3-1.6c-0.1-0.6-0.4-1-0.9-1.3c-0.7-0.4-1.5-0.4-2.2,0l-0.3,0.2l-35.1-22.9l0.9-7.7l-17.9-11.7l-0.9,7.7l-1.5-1
				c-0.3-0.2-0.8-0.1-1,0.2c-0.1,0.2-0.1,0.3-0.1,0.5c0,0.2,0.1,0.3,0.3,0.4l1.5,1l-6.8,4l17.9,11.7l6.8-3.9L-882.3,985.6z
				 M-889.6,987.5l-15.3-10l5.4-3.1l15.3,10L-889.6,987.5z M-902.9,977.6l13.3,8.7l3.3-1.9l-13.3-8.7L-902.9,977.6z M-883.5,983.1
				l-15.3-10l0.7-6.1l15.3,10L-883.5,983.1z M-897.6,972.6l13.3,8.7l0.4-3.8l-13.3-8.7L-897.6,972.6z"/>
		</g>
	</g>
</g>
</svg>
