<?xml version="1.0" encoding="utf-8"?>
<!-- Generator: Adobe Illustrator 16.0.0, SVG Export Plug-In . SVG Version: 6.00 Build 0)  -->
<!DOCTYPE svg PUBLIC "-//W3C//DTD SVG 1.1//EN" "http://www.w3.org/Graphics/SVG/1.1/DTD/svg11.dtd">
<svg version="1.1" id="Layer_1" xmlns="http://www.w3.org/2000/svg" xmlns:xlink="http://www.w3.org/1999/xlink" x="0px" y="0px"
	 width="144px" height="144px" viewBox="0 0 144 144" enable-background="new 0 0 144 144" xml:space="preserve">
<g>
	<g>
		<path fill="#3F444E" d="M89.471,35.116c-11.684-5.29-21.604-5.717-32.086,1.272c-8.058,5.373-10.898,18.721-10.802,20.335
			c0.096,1.611,1.872,4.06-3.305,7.523c-5.177,3.46-5.829,2.628-5.412,4.992c0.295,1.677,2.124,2.631,2.834,3.506
			c0.712,0.878,1.339,1.962,0.354,3.119c-0.609,0.716-2.028,0.918-1.17,2.887c0.759,1.724,3.234,1.903,4.066,2.098
			c0.302,0.07-2.26-0.368-3.341,0.106c-0.778,0.341-1.677,1.7-1.163,2.552c0.511,0.858,1.855,1.256,2.233,1.495
			c0.375,0.242,0.263,1.753,0.292,2.161c0.119,1.766-1.001,3.294-1.703,4.908c-0.753,1.73,0.417,5.346,4.242,6.151
			c3.824,0.806,5.353,0.772,8.137,1.027c5.015,0.458,8.832,7.882,9.257,14.033c2.164,0.334,8.501,0.354,10.748,0.354
			c7.305,0,14.226-1.816,20.409-5.061c-3.158-17.778,6.6-19.475,11.69-36.656C106.821,64.943,109.844,44.345,89.471,35.116z
			 M79.054,69.166l-0.739,0.57l-2.443-2.33c-0.649,0.285-1.328,0.521-2.031,0.712l-0.066,3.125l-0.914,0.129l-2.33,0.308
			l-0.922,0.126l-0.954-3.251c-0.727-0.073-1.438-0.192-2.132-0.368l-1.607,2.655l-0.858-0.352l-2.171-0.895l-0.861-0.352
			l0.785-3.241c-0.6-0.424-1.17-0.895-1.696-1.409l-2.665,1.468l-0.57-0.736l-1.432-1.859l-0.57-0.736l2.241-2.35
			c-0.315-0.68-0.563-1.396-0.766-2.135l-2.986-0.062l-0.123-0.915l-0.312-2.33l-0.122-0.921l3.118-0.918
			c0.08-0.755,0.209-1.501,0.404-2.224l-2.562-1.551l0.352-0.855l0.895-2.171l0.354-0.862l3.229,0.782
			c0.434-0.59,0.918-1.144,1.438-1.664l-1.488-2.703l0.735-0.563l1.863-1.435l0.735-0.567l2.442,2.33
			c0.653-0.288,1.333-0.523,2.035-0.716l0.063-3.125l0.918-0.126l2.333-0.312l0.918-0.123l0.961,3.251
			c0.723,0.073,1.432,0.192,2.125,0.368l1.607-2.658l0.858,0.355l2.171,0.895l0.861,0.355l-0.785,3.24
			c0.6,0.427,1.17,0.895,1.697,1.408l2.664-1.468l0.566,0.733l1.436,1.862l0.566,0.739l-2.236,2.347
			c0.312,0.679,0.56,1.395,0.762,2.131l2.986,0.06l0.123,0.921l0.312,2.327l0.122,0.925l-3.118,0.918
			c-0.08,0.756-0.206,1.498-0.405,2.221l2.565,1.548l-0.354,0.862l-0.895,2.174l-0.352,0.855l-3.231-0.782
			c-0.435,0.59-0.915,1.144-1.435,1.664l1.487,2.698l-0.735,0.57L79.054,69.166z M97.783,73.329l-2.019,0.268
			c-0.129,0.822-0.41,1.588-0.831,2.277c0.029,0.026,0.065,0.046,0.089,0.08l1.27,1.65c0.219,0.278,0.162,0.679-0.116,0.895
			l-2.154,1.664c-0.281,0.215-0.683,0.163-0.901-0.116l-1.232-1.607c-0.451,0.176-0.925,0.318-1.429,0.385
			c-0.325,0.043-0.646,0.04-0.968,0.033c-0.007,0.036-0.004,0.076-0.02,0.112l-0.803,1.922c-0.129,0.325-0.504,0.48-0.828,0.352
			l-2.516-1.041c-0.328-0.132-0.484-0.507-0.348-0.835l0.769-1.869c-0.637-0.511-1.163-1.144-1.562-1.87
			c-0.033,0.01-0.062,0.03-0.1,0.033l-2.067,0.275c-0.352,0.049-0.673-0.196-0.72-0.547l-0.361-2.701
			c-0.046-0.348,0.199-0.67,0.547-0.716l2.025-0.271c0.126-0.819,0.411-1.584,0.832-2.274c-0.03-0.026-0.066-0.046-0.093-0.079
			l-1.267-1.651c-0.219-0.278-0.165-0.683,0.116-0.898l2.151-1.661c0.281-0.219,0.686-0.162,0.898,0.116l1.239,1.604
			c0.45-0.176,0.921-0.318,1.422-0.384c0.328-0.043,0.652-0.037,0.975-0.03c0.006-0.037,0.006-0.077,0.02-0.113l0.796-1.926
			c0.132-0.325,0.51-0.48,0.835-0.345l2.516,1.038c0.328,0.132,0.48,0.507,0.345,0.832l-0.766,1.873
			c0.633,0.511,1.166,1.144,1.564,1.87c0.033-0.01,0.062-0.03,0.099-0.033l2.065-0.278c0.352-0.046,0.673,0.202,0.719,0.55
			l0.361,2.698C98.383,72.957,98.134,73.282,97.783,73.329z"/>
		<path fill="#3F444E" d="M86.687,73.043c-0.219-1.631,0.925-3.125,2.552-3.341c1.631-0.219,3.129,0.925,3.348,2.552
			c0.215,1.627-0.932,3.125-2.559,3.344C88.4,75.814,86.906,74.671,86.687,73.043z"/>
		<path fill="#3F444E" d="M70.098,42.919c-6.402,0-11.593,5.19-11.593,11.594s5.19,11.593,11.593,11.593
			c6.403,0,11.594-5.19,11.594-11.593S76.501,42.919,70.098,42.919z M70.098,59.743c-2.887,0-5.229-2.34-5.229-5.23
			c0-2.887,2.343-5.23,5.229-5.23c2.891,0,5.23,2.343,5.23,5.23C75.329,57.403,72.989,59.743,70.098,59.743z"/>
	</g>
</g>
</svg>
