<?xml version="1.0" encoding="utf-8"?>
<!-- Generator: Adobe Illustrator 16.0.0, SVG Export Plug-In . SVG Version: 6.00 Build 0)  -->
<!DOCTYPE svg PUBLIC "-//W3C//DTD SVG 1.1//EN" "http://www.w3.org/Graphics/SVG/1.1/DTD/svg11.dtd">
<svg version="1.1" id="Layer_1" xmlns="http://www.w3.org/2000/svg" xmlns:xlink="http://www.w3.org/1999/xlink" x="0px" y="0px"
	 width="144px" height="144px" viewBox="0 0 144 144" enable-background="new 0 0 144 144" xml:space="preserve">
<g>
	<g>
		<g>
			<g>
				<polygon fill="#3F444E" points="23.589,-167.407 23.589,-141.76 46.02,-128.808 46.02,-154.676 				"/>
				<polygon fill="#3F444E" points="68.466,-193.575 24.932,-168.441 47.545,-155.606 68.466,-167.681 90.901,-154.723 
					113.333,-167.669 				"/>
			</g>
			<g>
				<polygon fill="#3F444E" points="45.264,-103.339 67.663,-116.3 46.02,-128.806 46.02,-128.808 23.589,-141.76 23.589,-115.854 
					42.653,-104.846 				"/>
				<polygon fill="#3F444E" points="46.825,-102.433 68.466,-89.945 90.89,-102.895 69.241,-115.403 				"/>
			</g>
			<polygon fill="#3F444E" points="113.333,-142.715 113.333,-167.669 90.901,-154.723 90.901,-129.742 			"/>
		</g>
		<polygon fill="#3F444E" points="113.332,-140.876 70.878,-116.254 113.332,-91.771 		"/>
	</g>
</g>
<g>
	<g>
		<polygon fill="#3F444E" points="288.466,-193.575 244.932,-168.441 267.545,-155.606 288.466,-167.681 310.901,-154.723 
			310.901,-129.742 333.333,-142.715 333.333,-167.669 		"/>
		<polygon fill="#3F444E" points="266.02,-128.806 266.02,-128.808 266.02,-154.676 243.589,-167.407 243.589,-141.76 
			243.589,-115.854 262.653,-104.846 265.264,-103.339 287.663,-116.3 		"/>
		<polygon fill="#3F444E" points="266.825,-102.433 288.466,-89.945 310.89,-102.895 289.241,-115.403 		"/>
		<polygon fill="#3F444E" points="333.332,-91.771 333.332,-140.876 290.878,-116.254 		"/>
	</g>
</g>
<g>
	<g>
		<g>
			<g>
				<path fill="#3F444E" d="M548.276-118.843l-19.287-12.509c-1.7-1.089-3.66-1.33-5.483-0.889
					c-0.617,0.151-1.213,0.376-1.775,0.677l-3.173-2.056c3.769-6.954,5.115-15.257,3.101-23.534
					c-4.292-17.73-22.217-28.648-39.944-24.352c-17.725,4.31-28.646,22.22-24.35,39.947c4.307,17.735,22.225,28.655,39.962,24.353
					c7.011-1.704,12.947-5.569,17.311-10.697l3.308,2.148c-0.153,2.518,0.91,5.06,3.184,6.522l19.284,12.509
					c1.728,1.131,3.775,1.41,5.633,0.957c1.736-0.419,3.312-1.481,4.358-3.095C552.576-112.196,551.627-116.681,548.276-118.843z
					 M495.878-123.164c-14.479,3.52-29.04-5.371-32.553-19.835c-3.516-14.464,5.359-29.044,19.83-32.547
					c14.469-3.521,29.042,5.369,32.567,19.833C519.223-141.249,510.331-126.676,495.878-123.164z"/>
			</g>
		</g>
		<g>
			<rect x="477.53" y="-151.676" fill="#3F444E" width="24.094" height="5.164"/>
		</g>
		<g>
			<rect x="486.995" y="-161.141" fill="#3F444E" width="5.164" height="24.094"/>
		</g>
	</g>
</g>
<g>
	<g>
		<path fill="#3F444E" d="M89.471,35.116c-11.684-5.29-21.604-5.717-32.086,1.272c-8.058,5.373-10.898,18.721-10.802,20.335
			c0.096,1.611,1.872,4.06-3.305,7.523c-5.177,3.46-5.829,2.628-5.412,4.992c0.295,1.677,2.124,2.631,2.834,3.506
			c0.712,0.878,1.339,1.962,0.354,3.119c-0.609,0.716-2.028,0.918-1.17,2.887c0.759,1.724,3.234,1.903,4.066,2.098
			c0.302,0.07-2.26-0.368-3.341,0.106c-0.778,0.341-1.677,1.7-1.163,2.552c0.511,0.858,1.855,1.256,2.233,1.495
			c0.375,0.242,0.263,1.753,0.292,2.161c0.119,1.766-1.001,3.294-1.703,4.908c-0.753,1.73,0.417,5.346,4.242,6.151
			c3.824,0.806,5.353,0.772,8.137,1.027c5.015,0.458,8.832,7.882,9.257,14.033c2.164,0.334,8.501,0.354,10.748,0.354
			c7.305,0,14.226-1.816,20.409-5.061c-3.158-17.778,6.6-19.475,11.69-36.656C106.821,64.943,109.844,44.345,89.471,35.116z
			 M79.054,69.166l-0.739,0.57l-2.443-2.33c-0.649,0.285-1.328,0.521-2.031,0.712l-0.066,3.125l-0.914,0.129l-2.33,0.308
			l-0.922,0.126l-0.954-3.251c-0.727-0.073-1.438-0.192-2.132-0.368l-1.607,2.655l-0.858-0.352l-2.171-0.895l-0.861-0.352
			l0.785-3.241c-0.6-0.424-1.17-0.895-1.696-1.409l-2.665,1.468l-0.57-0.736l-1.432-1.859l-0.57-0.736l2.241-2.35
			c-0.315-0.68-0.563-1.396-0.766-2.135l-2.986-0.062l-0.123-0.915l-0.312-2.33l-0.122-0.921l3.118-0.918
			c0.08-0.755,0.209-1.501,0.404-2.224l-2.562-1.551l0.352-0.855l0.895-2.171l0.354-0.862l3.229,0.782
			c0.434-0.59,0.918-1.144,1.438-1.664l-1.488-2.703l0.735-0.563l1.863-1.435l0.735-0.567l2.442,2.33
			c0.653-0.288,1.333-0.523,2.035-0.716l0.063-3.125l0.918-0.126l2.333-0.312l0.918-0.123l0.961,3.251
			c0.723,0.073,1.432,0.192,2.125,0.368l1.607-2.658l0.858,0.355l2.171,0.895l0.861,0.355l-0.785,3.24
			c0.6,0.427,1.17,0.895,1.697,1.408l2.664-1.468l0.566,0.733l1.436,1.862l0.566,0.739l-2.236,2.347
			c0.312,0.679,0.56,1.395,0.762,2.131l2.986,0.06l0.123,0.921l0.312,2.327l0.122,0.925l-3.118,0.918
			c-0.08,0.756-0.206,1.498-0.405,2.221l2.565,1.548l-0.354,0.862l-0.895,2.174l-0.352,0.855l-3.231-0.782
			c-0.435,0.59-0.915,1.144-1.435,1.664l1.487,2.698l-0.735,0.57L79.054,69.166z M97.783,73.329l-2.019,0.268
			c-0.129,0.822-0.41,1.588-0.831,2.277c0.029,0.026,0.065,0.046,0.089,0.08l1.27,1.65c0.219,0.278,0.162,0.679-0.116,0.895
			l-2.154,1.664c-0.281,0.215-0.683,0.163-0.901-0.116l-1.232-1.607c-0.451,0.176-0.925,0.318-1.429,0.385
			c-0.325,0.043-0.646,0.04-0.968,0.033c-0.007,0.036-0.004,0.076-0.02,0.112l-0.803,1.922c-0.129,0.325-0.504,0.48-0.828,0.352
			l-2.516-1.041c-0.328-0.132-0.484-0.507-0.348-0.835l0.769-1.869c-0.637-0.511-1.163-1.144-1.562-1.87
			c-0.033,0.01-0.062,0.03-0.1,0.033l-2.067,0.275c-0.352,0.049-0.673-0.196-0.72-0.547l-0.361-2.701
			c-0.046-0.348,0.199-0.67,0.547-0.716l2.025-0.271c0.126-0.819,0.411-1.584,0.832-2.274c-0.03-0.026-0.066-0.046-0.093-0.079
			l-1.267-1.651c-0.219-0.278-0.165-0.683,0.116-0.898l2.151-1.661c0.281-0.219,0.686-0.162,0.898,0.116l1.239,1.604
			c0.45-0.176,0.921-0.318,1.422-0.384c0.328-0.043,0.652-0.037,0.975-0.03c0.006-0.037,0.006-0.077,0.02-0.113l0.796-1.926
			c0.132-0.325,0.51-0.48,0.835-0.345l2.516,1.038c0.328,0.132,0.48,0.507,0.345,0.832l-0.766,1.873
			c0.633,0.511,1.166,1.144,1.564,1.87c0.033-0.01,0.062-0.03,0.099-0.033l2.065-0.278c0.352-0.046,0.673,0.202,0.719,0.55
			l0.361,2.698C98.383,72.957,98.134,73.282,97.783,73.329z"/>
		<path fill="#3F444E" d="M86.687,73.043c-0.219-1.631,0.925-3.125,2.552-3.341c1.631-0.219,3.129,0.925,3.348,2.552
			c0.215,1.627-0.932,3.125-2.559,3.344C88.4,75.814,86.906,74.671,86.687,73.043z"/>
		<path fill="#3F444E" d="M70.098,42.919c-6.402,0-11.593,5.19-11.593,11.594s5.19,11.593,11.593,11.593
			c6.403,0,11.594-5.19,11.594-11.593S76.501,42.919,70.098,42.919z M70.098,59.743c-2.887,0-5.229-2.34-5.229-5.23
			c0-2.887,2.343-5.23,5.229-5.23c2.891,0,5.23,2.343,5.23,5.23C75.329,57.403,72.989,59.743,70.098,59.743z"/>
	</g>
</g>
<g>
	<g>
		<polygon fill="#3F444E" points="300.908,50.852 295.918,53.45 291.909,50.852 		"/>
		<polygon fill="#3F444E" points="286.379,50.852 282.371,53.45 277.386,50.852 		"/>
		<polygon fill="#3F444E" points="289.145,51.017 294.244,54.322 289.145,56.983 284.049,54.322 		"/>
		<polygon fill="#3F444E" points="292.495,57.092 295.828,55.352 298.505,57.092 		"/>
		<polygon fill="#3F444E" points="285.799,57.092 279.787,57.092 282.463,55.352 		"/>
		<polygon fill="#3F444E" points="302.523,57.25 302.523,57.247 301.764,57.247 297.5,54.48 303.77,51.21 310.279,57.25 		"/>
		<polygon fill="#3F444E" points="280.793,54.48 276.526,57.247 275.382,57.247 275.386,57.25 267.63,57.25 274.274,51.081 		"/>
		<polygon fill="#3F444E" points="299.82,58.893 288.953,79.839 278.089,58.893 		"/>
		<polygon fill="#3F444E" points="301.671,58.893 310.38,58.893 292.562,76.457 		"/>
		<polygon fill="#3F444E" points="267.522,58.893 276.236,58.893 285.351,76.457 		"/>
		<rect x="276.223" y="101.306" fill="#3F444E" width="23.547" height="4.876"/>
		<g>
			<path fill="#3F444E" d="M327.028,85.63h-78.085V39.886h78.085V85.63z M330.331,34.502h-84.684c-1.226,0-2.217,1.004-2.217,2.245
				v60.938c0,1.234,0.991,2.236,2.217,2.236h84.684c1.243,0,2.238-1.002,2.238-2.236V36.747
				C332.569,35.506,331.574,34.502,330.331,34.502"/>
			<path fill="#3F444E" d="M305.403,107.262h-34.81c-0.883,0-1.614,0.728-1.614,1.624v0.612h38.03v-0.612
				C307.01,107.99,306.289,107.262,305.403,107.262"/>
		</g>
	</g>
</g>
<g>
	<g>
		<g>
			<path fill="#3F444E" d="M492.097,97.632h-13.065V87.1h-21.067V75.845l20.618-33.625h13.515v32.386h5.48V87.1h-5.48V97.632z
				 M482.486,94.181h6.156V83.649h5.48v-5.585h-5.48V45.672h-8.128l-19.095,31.149v6.828h21.066V94.181z M482.486,78.064h-15.637
				l15.637-25.421V78.064z M473.032,74.606h6v-9.749L473.032,74.606z"/>
		</g>
		<g>
			<path fill="#3F444E" d="M514.868,97.632h-13.207V84.427h13.207V97.632z M505.116,94.181h6.298v-6.296h-6.298V94.181z"/>
		</g>
		<g>
			<path fill="#3F444E" d="M536.977,98.346c-11.816,0-19.452-7.323-19.452-18.666V60.602c0-11.065,8.183-19.095,19.452-19.095
				c11.271,0,19.452,7.999,19.452,19.022V79.68C556.429,91.023,548.793,98.346,536.977,98.346z M536.977,44.96
				c-9.269,0-15.997,6.579-15.997,15.642V79.68c0,9.525,5.979,15.212,15.997,15.212c9.865,0,15.998-5.832,15.998-15.212V60.529
				C552.975,51.508,546.246,44.96,536.977,44.96z M536.907,88.525c-5.675,0-9.487-3.751-9.487-9.347V60.958
				c0-5.713,3.96-9.702,9.629-9.702c5.764,0,9.486,3.813,9.486,9.702V79.25C546.535,84.711,542.576,88.525,536.907,88.525z
				 M537.048,54.713c-4.55,0-6.174,3.226-6.174,6.245v18.221c0,3.691,2.256,5.889,6.032,5.889c3.75,0,6.171-2.281,6.171-5.817
				V60.958C543.078,56.989,540.884,54.713,537.048,54.713z"/>
		</g>
	</g>
</g>
<g>
	<g>
		<path fill="#3F444E" d="M58.284,316.161c0.042-6.171,0.958-10.687,2.744-13.552c1.784-2.865,5.342-6.35,10.675-10.448
			c3.13-2.552,5.63-5.307,7.503-8.261c1.874-2.951,2.811-6.258,2.811-9.913c0-4.058-1.069-7.23-3.207-9.521
			c-2.139-2.291-5.19-3.438-9.156-3.438c-3.262,0-6.026,0.97-8.295,2.909c-2.271,1.938-3.428,4.782-3.472,8.526H39.113l-0.133-0.396
			c-0.13-8.459,2.656-14.938,8.362-19.434c5.708-4.493,13.144-6.743,22.311-6.743c9.872,0,17.617,2.502,23.237,7.5
			c5.619,5.005,8.428,11.803,8.428,20.395c0,5.598-1.641,10.777-4.926,15.539c-3.283,4.757-7.392,8.747-12.326,11.964
			c-2.689,2.07-4.453,4.153-5.29,6.246c-0.837,2.094-1.255,4.969-1.255,8.628H58.284z M77.653,343.528H58.216V327h19.438V343.528z"
			/>
	</g>
</g>
<g>
	<g>
		<path fill="#3F444E" d="M255.63,278.695c0,6.116,4.955,11.067,11.067,11.067c5.688,0,10.361-4.283,10.992-9.794h-12.376v-12.245
			C259.852,268.41,255.63,273.055,255.63,278.695z"/>
		<path fill="#3F444E" d="M266.697,267.629c-0.042,0-0.082,0.015-0.123,0.015v11.051h11.19
			C277.764,272.592,272.811,267.629,266.697,267.629z M267.84,268.958c4.454,0.523,8.001,4.042,8.579,8.475h-8.579V268.958z"/>
		<polygon fill="#3F444E" points="282.824,276.406 290.276,277.535 300.463,277.535 302.77,275.22 282.824,275.22 		"/>
		<path fill="#3F444E" d="M282.824,270.368v2.321h26.181c-0.595-0.675-1.096-1.461-1.492-2.321H282.824z"/>
		<path fill="#3F444E" d="M244.261,252.893v9.963h4.444v35.005h53.697c0.023-0.854,0.043-1.723,0.07-2.605h-51.158v-32.4h55.684
			c1.092-3.723,4.099-6.415,7.635-6.415c3.537,0,6.547,2.691,7.631,6.415h3.419v10.837c1.137,0.579,2.067,1.539,2.607,2.744v-13.581
			h4.442v-9.963H244.261z"/>
		<path fill="#3F444E" d="M314.633,273.282c3.292,0,5.957-3.296,5.957-7.36c0-4.068-2.664-7.36-5.957-7.36
			c-3.292,0-5.96,3.292-5.96,7.36C308.673,269.986,311.341,273.282,314.633,273.282z"/>
		<path fill="#3F444E" d="M322.905,275.099c-0.062,0.002-0.115,0.019-0.173,0.027c-0.062-0.018-0.119-0.045-0.18-0.047
			c-0.979-0.119-1.944-0.197-2.915-0.267l-0.02,0.088l2.549,2.157l-3.048,1.529l1.41,2.424l-3.884,8.575l-0.624-12.114l0.558-0.484
			l-0.745-2.715h-2.407l-0.741,2.715l0.561,0.484l-0.626,12.121l-3.89-8.582l1.417-2.424l-3.053-1.529l2.556-2.157l-0.018-0.065
			c-0.692,0.055-1.378,0.09-2.071,0.166c-0.248-0.002-0.5,0.019-0.743,0.07c-0.033,0.002-0.07,0.002-0.103,0.009
			c-0.146,0.016-0.279,0.076-0.406,0.149c-0.443,0.168-0.858,0.421-1.215,0.774l-4.698,4.732l-0.217,0.22l-2.63-0.392l-13.183-2
			c-0.421,2.757-0.755,5.534-0.998,8.315l13.277,1.184l3.325,0.298l0.829,0.072l0.197,0.021c0.384-0.206,3.526-1.585,3.526-1.585
			l0.349-0.394c-0.235,6.632-0.422,13.263-0.509,19.899c0,0.067,0.019,0.123,0.025,0.18c0.258,0,0.521,0,0.784,0l0.895,28.449h8.113
			c0.249-8.296,0.092-22.83,0.019-28.449c0.275,0,0.55,0,0.825,0l0.895,28.449h8.111c0.246-8.296,0.094-22.83,0.024-28.449
			c0.273,0,0.548,0,0.825,0c0-0.053,0.012-0.1,0.021-0.146c1.248-0.067,2.498-0.147,3.742-0.25l-2.194-27.769
			C326.281,276.451,324.696,275.012,322.905,275.099z"/>
	</g>
</g>
<path fill="#3F444E" d="M525.377,317.552H482.62v-63.33h42.757V317.552z M503.999,331.013c-2.396,0-4.353-1.956-4.353-4.371
	c0-2.402,1.957-4.346,4.353-4.346c2.397,0,4.353,1.943,4.353,4.346C508.352,329.057,506.396,331.013,503.999,331.013
	 M497.531,244.936h12.934c0.343,0,0.667,0.445,0.667,0.977c0,0.553-0.324,0.979-0.667,0.979h-12.934
	c-0.363,0-0.646-0.426-0.646-0.979C496.885,245.381,497.168,244.936,497.531,244.936 M521.145,239.458h-34.294
	c-4.15,0-7.515,3.363-7.515,7.513v82.046c0,4.154,3.364,7.525,7.515,7.525h34.294c4.151,0,7.519-3.371,7.519-7.525v-82.046
	C528.664,242.821,525.296,239.458,521.145,239.458"/>
<g>
	<g>
		<rect x="62.296" y="530.723" fill="#3F444E" width="21.885" height="4.532"/>
		<g>
			<path fill="#3F444E" d="M109.52,516.155H36.941v-42.521h72.578V516.155z M112.588,468.631H33.876
				c-1.137,0-2.059,0.932-2.059,2.085v56.641c0,1.147,0.922,2.079,2.059,2.079h78.712c1.157,0,2.082-0.932,2.082-2.079v-56.641
				C114.67,469.562,113.745,468.631,112.588,468.631"/>
			<path fill="#3F444E" d="M89.419,536.259H57.064c-0.82,0-1.5,0.68-1.5,1.51v0.568h35.349v-0.568
				C90.913,536.938,90.243,536.259,89.419,536.259"/>
		</g>
	</g>
</g>
<g>
	<g>
		<path fill="#3F444E" d="M249.862,511.569v-15.136l36.172-22.213v18.277l-19.463,11.603l19.463,11.401v18.277L249.862,511.569z
			 M289.966,511.569v-15.136l36.172-22.213v18.277l-19.464,11.603l19.464,11.401v18.277L289.966,511.569z"/>
	</g>
</g>
<g>
	<g>
		<path fill="#3F444E" d="M466.373,515.348l19.204-11.248l-19.204-11.443v-18.041l35.688,21.92v14.936l-35.688,21.914V515.348z
			 M505.94,515.348l19.203-11.248l-19.203-11.443v-18.041l35.688,21.92v14.936l-35.688,21.914V515.348z"/>
	</g>
</g>
<g>
	<g>
		<path fill="#3F444E" d="M62.75,762.894c0,0.009,0.014,0.017,0.014,0.025c0.04,0.1,0.085,0.173,0.135,0.252
			c0.013,0.009,0.023,0.028,0.031,0.037c0.063,0.081,0.136,0.152,0.212,0.206c0.027,0.009,0.044,0.028,0.067,0.046
			c0.027,0.009,0.059,0.036,0.086,0.054c0.04,0.018,0.076,0.027,0.116,0.045c0.037,0.009,0.066,0.018,0.097,0.028
			c0.104,0.034,0.204,0.043,0.309,0.043l0,0c0.071,0,0.155,0,0.231-0.009c0.011-0.009,0.021-0.018,0.03-0.018
			c0.122-0.027,0.239-0.072,0.342-0.135c0.017-0.018,0.036-0.037,0.054-0.046c0.081-0.062,0.148-0.125,0.211-0.198
			c0.027-0.025,0.05-0.07,0.068-0.099c0.027-0.034,0.058-0.071,0.077-0.107l11.092-21.735l21.575,6.075
			c0.103,0.036,0.209,0.045,0.312,0.045c0.212,0,0.423-0.054,0.608-0.17c0.269-0.181,0.463-0.459,0.515-0.775l13.124-75.874
			c0.082-0.446-0.117-0.9-0.5-1.145c-0.296-0.193-0.661-0.237-0.992-0.121c-0.265,0.032-0.524,0.145-0.718,0.356l-0.153,0.165
			L25.64,725.186c-0.374,0.243-0.57,0.685-0.502,1.13c0.068,0.44,0.389,0.801,0.816,0.922l26.375,7.411L62.75,762.894z
			 M103.479,676.667l-50.772,55.719l-23.729-6.67L103.479,676.667z M54.556,734.096l-0.09-0.252l0.693-0.761l42.079-46.188
			l-35.196,48.118l-0.664,0.905c-0.022,0.031-0.027,0.062-0.045,0.08c-0.116,0.203-0.184,0.428-0.17,0.657l0.027,0.491l1.037,17.754
			l-7.18-19.486L54.556,734.096z M64.708,758.24l-1.192-20.437l10.169,2.859L64.708,758.24z M64.384,735.679l44.662-61.055
			L96.9,744.821L64.384,735.679z"/>
	</g>
</g>
<g>
	<g>
		<g>
			<path fill="#3F444E" d="M297.527,768.309c-22.401,0-40.626-18.224-40.626-40.624c0-22.402,18.225-40.628,40.626-40.628
				c22.401,0,40.625,18.226,40.625,40.628C338.153,750.085,319.928,768.309,297.527,768.309z M297.527,694.557
				c-18.267,0-33.127,14.861-33.127,33.128c0,18.265,14.861,33.124,33.127,33.124c18.266,0,33.126-14.859,33.126-33.124
				C330.654,709.418,315.793,694.557,297.527,694.557z"/>
		</g>
		<g>
			<circle fill="#3F444E" cx="297.528" cy="727.683" r="9.599"/>
		</g>
		<g>
			<path fill="#3F444E" d="M297.528,753.845c-14.428,0-26.165-11.736-26.165-26.162s11.737-26.163,26.165-26.163
				c14.426,0,26.163,11.737,26.163,26.163S311.954,753.845,297.528,753.845z M297.528,709.02c-10.292,0-18.666,8.372-18.666,18.663
				c0,10.29,8.374,18.662,18.666,18.662c10.292,0,18.664-8.372,18.664-18.662C316.192,717.392,307.819,709.02,297.528,709.02z"/>
		</g>
		<g>
			<path fill="#3F444E" d="M298.763,725.333c-0.875-0.573-1.957-0.54-2.8-0.038l-34.523-22.577l0.897-7.704l-18.916-12.373
				l-0.893,7.706l-0.762-0.497c-0.575-0.377-1.346-0.215-1.723,0.361c-0.375,0.57-0.215,1.346,0.36,1.723l0.809,0.528l-6.818,3.974
				l18.923,12.367l6.753-3.938l1.04,0.68l0.008-0.063l33.589,21.969c-0.033,0.9,0.345,1.796,1.152,2.322
				c1.226,0.802,2.871,0.458,3.672-0.769C300.333,727.779,299.99,726.134,298.763,725.333z M253.391,705.883l-14.264-9.326
				l4.356-2.541l9.191,6.012l5.07,3.316L253.391,705.883z M259.114,701.194l-14.261-9.326l0.574-4.944l14.26,9.328L259.114,701.194z
				"/>
			<path fill="#3F444E" d="M297.309,730.741L297.309,730.741c-0.62,0-1.223-0.18-1.743-0.521c-0.832-0.543-1.338-1.454-1.392-2.479
				l-32.631-21.342l-0.726-0.406l-0.763-0.498l-6.753,3.938l-19.926-13.023l6.817-3.974l-0.083-0.054
				c-0.398-0.261-0.671-0.661-0.768-1.128c-0.097-0.467-0.007-0.941,0.253-1.337c0.52-0.795,1.667-1.038,2.464-0.516l0.036,0.023
				l0.893-7.707l19.918,13.029l-0.897,7.704l33.983,22.224c0.983-0.455,2.166-0.379,3.063,0.21c0.712,0.465,1.201,1.181,1.376,2.014
				c0.175,0.834,0.014,1.687-0.452,2.398C299.39,730.201,298.391,730.741,297.309,730.741z M260.684,704.626l0.728,0.407
				l33.842,22.135l-0.011,0.302c-0.028,0.771,0.312,1.464,0.91,1.854c0.951,0.62,2.314,0.331,2.931-0.613
				c0.31-0.474,0.416-1.039,0.3-1.593c-0.116-0.553-0.44-1.028-0.914-1.337c-0.658-0.431-1.543-0.437-2.233-0.026l-0.287,0.171
				l-35.081-22.941l0.897-7.704l-17.914-11.717l-0.892,7.705l-1.487-0.971c-0.32-0.21-0.775-0.109-0.982,0.206
				c-0.103,0.157-0.139,0.346-0.1,0.532c0.039,0.186,0.147,0.346,0.306,0.449l1.535,1.003l-6.818,3.974l17.92,11.711l6.753-3.938
				L260.684,704.626z M253.375,706.513l-15.267-9.982l5.391-3.145l15.264,9.984L253.375,706.513z M240.146,696.583l13.262,8.67
				l3.319-1.936l-13.259-8.672L240.146,696.583z M259.546,702.117l-15.263-9.982l0.712-6.134l15.262,9.984L259.546,702.117z
				 M245.423,691.601l13.258,8.671l0.435-3.753l-13.257-8.672L245.423,691.601z"/>
		</g>
	</g>
</g>
<g>
	<g>
		<g>
			<g>
				<path fill="#3F444E" d="M561.127,720c0,0-23.509-28.046-53.255-30.364c-1.274-0.155-2.566-0.24-3.871-0.24
					c-1.307,0-2.599,0.085-3.873,0.24C470.382,691.954,446.873,720,446.873,720s23.509,28.051,53.255,30.364
					c1.274,0.16,2.566,0.24,3.873,0.24c1.305,0,2.597-0.08,3.871-0.24C537.618,748.051,561.127,720,561.127,720z M506.953,741.987
					c-0.992,0.069-1.976,0.109-2.952,0.109c-0.979,0-1.965-0.04-2.957-0.109c-10.838-1.452-19.228-10.756-19.228-21.987
					s8.39-20.535,19.23-21.987c0.991-0.07,1.978-0.105,2.954-0.105c0.977,0,1.963,0.035,2.955,0.105
					c10.841,1.452,19.228,10.761,19.228,21.987C526.184,731.231,517.794,740.54,506.953,741.987z M458.54,719.995
					c2.554-2.438,5.966-5.448,10.067-8.478c2.676-1.973,5.368-3.745,8.057-5.308c-2.138,4.221-3.27,8.918-3.27,13.79
					s1.132,9.569,3.27,13.795c-2.584-1.507-5.17-3.199-7.741-5.082C464.707,725.628,461.174,722.514,458.54,719.995z
					 M539.395,728.482c-2.679,1.978-5.37,3.75-8.057,5.312c2.138-4.226,3.267-8.923,3.267-13.795s-1.129-9.569-3.267-13.79
					c2.584,1.502,5.167,3.199,7.741,5.077c4.214,3.085,7.749,6.199,10.377,8.723C546.909,722.448,543.494,725.458,539.395,728.482z"
					/>
			</g>
		</g>
		<g>
			<path fill="#3F444E" d="M504.564,705.594c1.177,1.522,1.878,3.425,1.878,5.498c0,4.968-4.028,8.993-8.996,8.993
				c-3.049,0-5.744-1.521-7.371-3.84c-0.321,1.196-0.496,2.458-0.496,3.755c0,7.967,6.457,14.421,14.421,14.421
				c7.962,0,14.419-6.454,14.419-14.421C518.42,712.229,512.266,705.89,504.564,705.594z"/>
		</g>
	</g>
</g>
<g>
	<g>
		<path fill="#3F444E" d="M80.155,921.617c0.537-0.54,1.036-1.116,1.485-1.723l3.347,0.811l0.363-0.887l0.928-2.254l0.368-0.889
			l-2.658-1.604c0.206-0.75,0.337-1.515,0.419-2.301l3.231-0.95l-0.129-0.956l-0.323-2.41l-0.128-0.959l-3.09-0.058
			c-0.211-0.762-0.468-1.502-0.791-2.204l2.316-2.434l-0.584-0.764l-1.488-1.93l-0.585-0.758l-2.76,1.521
			c-0.547-0.531-1.139-1.019-1.759-1.459l0.815-3.354l-0.895-0.371l-2.246-0.924l-0.891-0.365l-1.665,2.75
			c-0.718-0.184-1.451-0.306-2.202-0.381l-0.994-3.366l-0.95,0.128l-2.416,0.324l-0.95,0.128l-0.066,3.238
			c-0.725,0.194-1.431,0.438-2.106,0.739l-2.529-2.414l-0.762,0.585l-1.929,1.49l-0.762,0.583l1.539,2.795
			c-0.538,0.54-1.039,1.116-1.486,1.723l-3.345-0.811l-0.367,0.895l-0.926,2.25l-0.365,0.882l2.651,1.608
			c-0.2,0.748-0.333,1.52-0.417,2.305l-3.229,0.951l0.127,0.952l0.321,2.414l0.128,0.948l3.092,0.062
			c0.211,0.767,0.465,1.506,0.793,2.213l-2.321,2.432l0.594,0.764l1.484,1.923l0.589,0.762l2.76-1.52
			c0.545,0.534,1.134,1.02,1.754,1.46l-0.811,3.355l0.891,0.365l2.25,0.926l0.89,0.363l1.661-2.751
			c0.718,0.184,1.458,0.311,2.206,0.383l0.99,3.369l0.954-0.131l2.414-0.318l0.946-0.133l0.068-3.238
			c0.729-0.199,1.431-0.443,2.104-0.74l2.529,2.414l0.766-0.589l1.928-1.483l0.764-0.594L80.155,921.617z M69.725,921.645
			c-5.714,0-10.348-4.634-10.348-10.348c0-5.717,4.634-10.348,10.348-10.348s10.348,4.631,10.348,10.348
			C80.073,917.011,75.439,921.645,69.725,921.645z"/>
		<path fill="#3F444E" d="M97.857,926.687l-2.142,0.29c-0.038,0-0.068,0.021-0.102,0.031c-0.41-0.75-0.964-1.406-1.621-1.936
			l0.792-1.938c0.14-0.337-0.015-0.725-0.356-0.864l-2.604-1.074c-0.337-0.14-0.727,0.021-0.863,0.361l-0.824,1.993
			c-0.014,0.033-0.014,0.08-0.022,0.113c-0.332-0.002-0.669-0.014-1.01,0.033c-0.516,0.07-1.006,0.215-1.471,0.396l-1.284-1.661
			c-0.217-0.286-0.638-0.348-0.931-0.12l-2.226,1.721c-0.292,0.225-0.348,0.643-0.122,0.929l1.313,1.712
			c0.026,0.031,0.064,0.055,0.096,0.082c-0.437,0.713-0.733,1.506-0.864,2.356l-2.095,0.279c-0.361,0.046-0.616,0.381-0.565,0.739
			l0.373,2.804c0.046,0.359,0.381,0.614,0.746,0.562l2.139-0.283c0.04-0.007,0.069-0.028,0.103-0.038
			c0.412,0.751,0.957,1.407,1.619,1.938l-0.8,1.936c-0.138,0.339,0.022,0.727,0.363,0.866l2.604,1.076
			c0.337,0.135,0.725-0.029,0.859-0.363l0.831-1.991c0.015-0.04,0.013-0.079,0.02-0.117c0.332,0.005,0.664,0.009,1.001-0.033
			c0.522-0.071,1.015-0.22,1.479-0.398l1.275,1.665c0.229,0.286,0.643,0.342,0.935,0.117l2.232-1.721
			c0.288-0.226,0.346-0.642,0.12-0.928l-1.315-1.71c-0.022-0.035-0.062-0.056-0.093-0.082c0.436-0.715,0.73-1.508,0.863-2.358
			l2.091-0.279c0.36-0.044,0.62-0.383,0.571-0.742l-0.372-2.795C98.552,926.897,98.215,926.639,97.857,926.687z M90.371,933.161
			c-1.683,0.224-3.233-0.96-3.459-2.643c-0.226-1.69,0.957-3.238,2.642-3.46c1.69-0.228,3.24,0.957,3.469,2.643
			C93.244,931.387,92.059,932.939,90.371,933.161z"/>
		<circle fill="#3F444E" cx="69.725" cy="911.296" r="4.671"/>
		<path fill="#3F444E" d="M69.725,900.949c-5.714,0-10.348,4.631-10.348,10.348c0,5.714,4.634,10.348,10.348,10.348
			s10.348-4.634,10.348-10.348C80.073,905.58,75.439,900.949,69.725,900.949z M69.725,915.967c-2.578,0-4.669-2.09-4.669-4.67
			c0-2.578,2.091-4.672,4.669-4.672s4.666,2.094,4.666,4.672C74.391,913.877,72.303,915.967,69.725,915.967z"/>
		<path fill="#3F444E" d="M89.793,891.227c-12.1-5.478-22.372-5.925-33.229,1.315c-8.344,5.565-11.287,19.384-11.185,21.056
			c0.098,1.668,1.938,4.206-3.424,7.794c-5.36,3.583-6.038,2.72-5.604,5.165c0.304,1.74,2.199,2.729,2.933,3.634
			c0.739,0.913,1.391,2.031,0.369,3.229c-0.631,0.742-2.102,0.948-1.211,2.987c0.786,1.788,3.349,1.974,4.208,2.173
			c0.314,0.075-2.339-0.376-3.458,0.111c-0.808,0.354-1.736,1.761-1.204,2.646c0.529,0.886,1.922,1.3,2.314,1.546
			c0.385,0.248,0.27,1.813,0.301,2.239c0.124,1.824-1.036,3.41-1.765,5.08c-0.777,1.792,0.432,5.535,4.394,6.372
			c3.96,0.831,5.544,0.798,8.428,1.061c5.191,0.477,9.146,8.164,9.585,14.531c2.239,0.351,8.802,0.37,11.132,0.37
			c7.565,0,14.732-1.883,21.133-5.24c-3.271-18.411,6.835-20.168,12.106-37.959C107.759,922.109,110.891,900.778,89.793,891.227z
			 M79.004,926.485l-0.766,0.589l-2.529-2.414c-0.674,0.297-1.376,0.541-2.104,0.74l-0.068,3.238l-0.946,0.133l-2.414,0.318
			l-0.954,0.131l-0.99-3.369c-0.748-0.072-1.488-0.199-2.206-0.383l-1.661,2.751l-0.89-0.363l-2.25-0.926l-0.891-0.365l0.811-3.355
			c-0.62-0.44-1.209-0.926-1.754-1.46l-2.76,1.52l-0.589-0.762l-1.484-1.923l-0.594-0.764l2.321-2.432
			c-0.328-0.707-0.582-1.446-0.793-2.213l-3.092-0.062l-0.128-0.948l-0.321-2.414l-0.127-0.952l3.229-0.951
			c0.084-0.785,0.217-1.557,0.417-2.305l-2.651-1.608l0.365-0.882l0.926-2.25l0.367-0.895l3.345,0.811
			c0.447-0.606,0.948-1.183,1.486-1.723l-1.539-2.795l0.762-0.583l1.929-1.49l0.762-0.585l2.529,2.414
			c0.676-0.301,1.382-0.545,2.106-0.739l0.066-3.238l0.95-0.128l2.416-0.324l0.95-0.128l0.994,3.366
			c0.751,0.075,1.484,0.197,2.202,0.381l1.665-2.75l0.891,0.365l2.246,0.924l0.895,0.371l-0.815,3.354
			c0.62,0.44,1.212,0.928,1.759,1.459l2.76-1.521l0.585,0.758l1.488,1.93l0.584,0.764l-2.316,2.434
			c0.323,0.702,0.58,1.442,0.791,2.204l3.09,0.058l0.128,0.959l0.323,2.41l0.129,0.956l-3.231,0.95
			c-0.082,0.786-0.213,1.551-0.419,2.301l2.658,1.604l-0.368,0.889l-0.928,2.254l-0.363,0.887l-3.347-0.811
			c-0.449,0.606-0.948,1.183-1.485,1.723l1.541,2.791l-0.764,0.594L79.004,926.485z M98.402,930.793l-2.091,0.279
			c-0.133,0.851-0.428,1.644-0.863,2.358c0.03,0.026,0.07,0.047,0.093,0.082l1.315,1.71c0.226,0.286,0.168,0.702-0.12,0.928
			l-2.232,1.721c-0.292,0.225-0.706,0.169-0.935-0.117l-1.275-1.665c-0.465,0.179-0.957,0.327-1.479,0.398
			c-0.337,0.042-0.669,0.038-1.001,0.033c-0.007,0.038-0.005,0.077-0.02,0.117l-0.831,1.991c-0.135,0.334-0.522,0.498-0.859,0.363
			l-2.604-1.076c-0.341-0.14-0.501-0.527-0.363-0.866l0.8-1.936c-0.662-0.531-1.207-1.188-1.619-1.938
			c-0.033,0.01-0.062,0.031-0.103,0.038l-2.139,0.283c-0.365,0.052-0.7-0.203-0.746-0.562l-0.373-2.804
			c-0.051-0.358,0.204-0.693,0.565-0.739l2.095-0.279c0.131-0.851,0.428-1.644,0.864-2.356c-0.031-0.027-0.069-0.051-0.096-0.082
			l-1.313-1.712c-0.226-0.286-0.17-0.704,0.122-0.929l2.226-1.721c0.293-0.228,0.714-0.166,0.931,0.12l1.284,1.661
			c0.465-0.182,0.955-0.326,1.471-0.396c0.341-0.047,0.678-0.035,1.01-0.033c0.009-0.033,0.009-0.08,0.022-0.113l0.824-1.993
			c0.137-0.341,0.526-0.501,0.863-0.361l2.604,1.074c0.342,0.14,0.496,0.527,0.356,0.864l-0.792,1.938
			c0.657,0.529,1.211,1.186,1.621,1.936c0.033-0.011,0.063-0.031,0.102-0.031l2.142-0.29c0.358-0.048,0.695,0.211,0.744,0.569
			l0.372,2.795C99.022,930.41,98.762,930.749,98.402,930.793z"/>
		<path fill="#3F444E" d="M89.553,927.059c-1.685,0.222-2.867,1.77-2.642,3.46c0.226,1.683,1.776,2.866,3.459,2.643
			c1.688-0.222,2.873-1.774,2.651-3.46C92.793,928.016,91.244,926.831,89.553,927.059z"/>
	</g>
</g>
<g>
	<g>
		<g>
			<path fill="#3F444E" d="M354.99,890.867c-0.469,0.12-2.411,0.358-2.883,0.417c-0.471,0.061-0.939,0.534-1.293,0.296
				c-0.354-0.235-0.705-0.18-0.942-0.648c-0.235-0.477-0.412-0.832-0.882-0.832c-0.471,0-1.178,0.299-1.706,0.299
				c-0.53,0-1.413-0.061-1.589,0.234c-0.178,0.299-1.235,1.658-1.412,1.953c-0.177,0.296-0.707,1.066-1.002,1.186
				c-0.294,0.115-1.354,0.177-1.469,0.531c-0.118,0.355-0.766,1.537-1.119,1.892s-1.176,0.828-1.941,0.828s-1.648-0.059-2.06,0.237
				c-0.413,0.295-2.001,1.303-2.471,1.537c-0.472,0.236-1.473,0.592-1.708,0.533c-0.234-0.06-1.294-0.12-1.529,0.118
				c-0.235,0.235-0.235,0.71-0.706,0.71c-0.47,0-1.236,0.354-1.59,0.592c-0.353,0.234-2.294,1.124-3,1.598
				c-0.706,0.472-3.001,2.07-3.353,2.247c-0.355,0.177-1.826,1.006-2.296,1.064c-0.471,0.061-1.176-0.415-1.294-0.059
				c-0.103,0.303-0.159,0.61-0.437,0.841l-0.005-0.015l-0.01,0.026c-0.041,0.034-0.085,0.064-0.136,0.094
				c-0.415,0.236-2.12,1.184-2.649,1.657s-0.942,1.537-1.473,2.009c-0.529,0.474-1.234,1.007-1.47,1.481
				c-0.235,0.471-0.824,1.952-1.177,2.308c-0.354,0.354-1.646,1.832-1.941,2.307c-0.293,0.473-0.589,1.535-1.176,1.773
				c-0.591,0.235-0.648,0.118-0.883,0.414c-0.23,0.289-0.348,0.806-0.629,0.992c-0.005,0.006-0.013,0.011-0.02,0.015
				c-0.295,0.176-0.941,0.176-1.178,0.828c-0.234,0.649-0.291,1.95-0.645,1.655c-0.354-0.295-0.707-0.415-0.707,0.178
				c0,0.592,0.469,1.065,0.115,1.538c-0.352,0.474-0.587,1.361-1.235,1.479c-0.646,0.118-1.292,0.592-1.588,0.949
				c-0.292,0.353-1.528,2.482-2.001,2.602c-0.471,0.117-0.939,0.059-1.352,0.117c-0.412,0.06-1.237,0.414-1.237,0.414
				s-0.528,0-1.117-0.237c-0.588-0.235-1.177-0.413-1.647-0.355c-0.471,0.062-1.235,0.829-1.648,0.888
				c-0.41,0.059-1.294,0.651-1.705,0.771c-0.412,0.116-0.412,0.648-0.705,0.648c-0.297,0-0.53,0.177-0.53-0.117
				c0-0.296,0.117-0.531-0.471-0.474c-0.589,0.059-0.883,0.236-1.354,0.71c-0.469,0.473-0.646,0.829-1.061,0.888
				c-0.41,0.057-0.82,0.057-0.82,0.057s-0.236-0.293-0.413,0.062c-0.177,0.356-0.353,0.649-0.707,0.711
				c-0.353,0.059-0.529-0.12-0.823,0.117c-0.293,0.236-0.941,1.063-1.176,1.361c-0.234,0.296-0.589,0.709-0.824,0.709
				c-0.236,0-0.883-0.12-1,0.179c-0.119,0.295-0.06,0.828-0.354,0.887s-0.648,0.354-0.883,0.176
				c-0.236-0.176-0.413-0.234-0.647-0.234c-0.17,0-0.559,0.218-0.964,0.293c-0.151,0.025-0.303,0.031-0.449,0
				c-0.527-0.115-1.116-0.234-1.529-0.176c-0.411,0.061-1.176,0.416-1.59,0.117c-0.41-0.295-1.175-0.826-1.41-0.826
				s-2.059-0.415-2.648-0.65c-0.588-0.239-1.059-0.652-1.118-0.829c-0.147-0.448,0.412-0.651-0.057-0.947
				c-0.473-0.296-1.297-0.65-1.413-0.828c-0.119-0.177-0.59-0.354-0.943-0.354c-0.352,0-1.292,0.178-1.528,0.178
				c-0.235,0-0.824,0.06-1.001-0.236s-0.295-0.829-0.529-1.006c-0.234-0.178-0.883-0.059-1.412-0.297
				c-0.529-0.236-1.293-0.531-1.53-0.65c-0.234-0.117-1-0.415-1.176-0.117c-0.177,0.295-0.59,0.828-0.766,1.064
				c-0.178,0.235-1.06,0.71-1.411,0.944c-0.354,0.239-1.354,1.303-1.414,1.48c-0.059,0.179-0.412,0.354-0.115,0.709
				c0.292,0.357,0.822,1.066,0.527,1.657c-0.293,0.592-1.118,1.183-1.471,1.597c-0.121,0.14-0.225,0.267-0.328,0.371
				c-0.203,0.204-0.399,0.32-0.672,0.28c-0.412-0.061-1.41-0.238-1.588,0.059c-0.176,0.296-0.529,1.658-0.825,1.658
				c-0.295,0-0.94,0.237-1.116,0.415c-0.145,0.145-0.447,0.601-0.746,0.927l-0.832,0.556c-0.033,0.018-0.066,0.034-0.102,0.052
				c-0.682,0.323-1.597,0.69-1.912,0.771c-0.469,0.118-0.999,0.179-1.234,0.296c-0.234,0.117-0.941,0-1.294,0.238
				c-0.353,0.235-0.94,0.648-1.294,0.768c-0.353,0.117-1.354,0.117-1.766,0.058c-0.412-0.058-1.883-0.472-2.179-1.005
				c-0.292-0.53-0.528-1.951-0.528-2.427c0-0.472,0.059-1.594-0.413-1.654c-0.471-0.059-0.528,0-1.353,0
				c-0.822,0-1.294,0.178-1.412,0.532c-0.116,0.354-0.059,0.77-0.411,0.946c-0.354,0.176-1.53,0.297-1.413,0.71
				c0.12,0.414,0.707,0.768,0.178,1.008c-0.529,0.235-1.295,0.115-0.883,0.53c0.412,0.413,0.883,1.183,1.178,1.419
				c0.27,0.217,0.987,1.088,0.508,1.088c-0.043,0-0.094-0.008-0.156-0.022c-0.766-0.178-1.471-0.236-1.648-0.414
				c-0.176-0.179-0.293-0.354-0.528-0.118c-0.235,0.237-0.766,1.122-0.942,1.302c-0.176,0.178-0.763,0.591-1.117,0.475
				c-0.353-0.118-1.117-0.532-1.059-0.297c0.058,0.235,0.354,0.59-0.118,0.65c-0.472,0.059-1.059,0.415-1.471,0.178
				c-0.413-0.238-0.413-0.354-0.589,0c-0.177,0.354-0.235,0.946-0.588,1.065c-0.354,0.115-0.941,0.057-1.002,0.414
				c-0.057,0.354,0,0.591-0.292,0.887c-0.296,0.296-0.413,0.474-0.591,0.887c-0.176,0.414-0.529,1.184-0.116,1.361
				c0.411,0.179,0.999,0.768,0.823,1.184c-0.176,0.413-0.234,0.53-0.116,1.063c0.116,0.532,0.528,0.77,0.469,1.126
				c-0.058,0.354-0.116,0.827,0.177,1.121c0.293,0.295,0.697,0.878,0.765,1.461c0,0.002,0,0.002,0,0.002
				c0,0.006,0.002,0.013,0.002,0.017c0.059,0.592-0.177,1.361,0.234,1.657s1.06,1.183,1.707,1.241
				c0.647,0.062,2.587-0.059,2.882,0.062c0.022,0.008,0.045,0.019,0.068,0.031l0,0l-0.015,0.035l0.032-0.025
				c0.294,0.168,0.717,0.608,1.092,0.608h0.941c0.234,0,0.764,0.65,0.941,0.235c0.176-0.411-0.059-0.531,0.471-0.768
				c0.529-0.237,2.471-0.651,2.824-0.594c0.353,0.062,1.117,0.415,1.47,0.239c0.353-0.178,1.296-0.414,1.589-0.414
				c0.018,0,0.039,0.001,0.062,0.005l-0.001,0.025l0.002-0.025c0.375,0.075,1.494,0.688,1.88,0.468
				c0.413-0.236,0.528-0.651,0.767-0.298c0.233,0.356,0.469,0.771,0.764,0.415c0.295-0.354,0.884-1.062,1.471-1.062
				c0.59,0,3.295-0.475,3.826-0.534c0.527-0.061,2.176-0.77,2.646-0.828c0.473-0.059,1.06-0.236,1.236,0.118
				c0.176,0.356,0.471,1.184,0.883,1.244c0.41,0.059,1.116-0.179,1.469-0.12c0.048,0.006,0.094,0.013,0.141,0.019
				c0.302,0.033,0.573,0.027,0.625,0.336c0.06,0.355,0,1.065,0.237,0.711c0.233-0.355,0-0.59,0.47-0.828
				c0.471-0.237,0.883-0.475,1.766-0.533c0.882-0.059,1.117-0.059,1.941-0.059c0.822,0,1.528,0.296,1.528-0.06
				c0-0.354-0.176-1.064,0-1.241c0.177-0.179,0.647-1.715,1.354-1.715c0.705,0,0.529-0.237,0.941-0.413
				c0.413-0.18,0.529-0.239,0.943-0.18c0,0,0.822,0.061,1.234,0.414c0.066,0.057,0.17,0.13,0.289,0.212l1.702,1.261v-0.034
				c0.098,0.101,0.165,0.195,0.186,0.276c0.119,0.473-0.058,1.538,0.354,1.538s0.529-0.356,1-0.059
				c0.47,0.296,0.705,1.122,0.883,0.947c0.177-0.179,0.587-0.355,0.94-0.179c0.354,0.179,0.706,0.415,0.706,0.651
				c0,0.235,0,0.828,0.235,0.709c0.237-0.116,0.883-0.592,1-0.235c0.119,0.354,0.177,0.648,0.411,0.768
				c0.237,0.121,0.53-0.119,1.002-0.059c0.471,0.059,1.999,0.354,2.354,0.651c0.353,0.296,0.882,0.591,1.234,0.532
				c0.354-0.059,0.413-0.296,1.002-0.296c0.345,0,0.754,0.145,1.091,0.322l0,0v0.012l0.003-0.007
				c0.233,0.121,0.434,0.265,0.554,0.384c0.293,0.294,0.527,0.531,0.999,0.768c0.472,0.237,1.708,1.063,2.061,1.124
				c0.354,0.061,0.707,0.116,1,0.415c0.294,0.294,0.528,0.886,0.883,0.886c0.353,0,0.646-0.118,0.942-0.058
				c0.292,0.058,1.235,0.175,1.588,0.594c0.354,0.41,0.234,0.589,0.766,0.768c0.528,0.175,1.764-0.06,1.941,0.233
				c0.062,0.105,0.102,0.223,0.141,0.353c-0.029,0.004-0.052,0.007-0.052,0.007l0.057,0.01c0.069,0.237,0.138,0.515,0.325,0.816
				c0,0,0.707,0.946,0.941,1.479c0.234,0.53,1.177,1.479,1.469,1.774c0.295,0.295,0.649,0.77,0.883,1.183
				c0.236,0.414,0.825,1.301,1.236,1.42c0.414,0.12,0.825,0.296,1.354,0.475c0.529,0.176,1.531,0.293,1.942,0.473
				c0.412,0.178,1.531,0.533,2.118,0.533s0.824-0.061,1.412-0.119c0.588-0.061,0.824,0,1.295-0.176
				c0.472-0.181,1.471-0.89,1.822-1.186c0.354-0.296,1.178-1.36,1.531-1.656s1.234-0.472,1.531-0.885
				c0.293-0.417-0.12-0.356,0.705-0.712c0.004-0.002,0.007-0.002,0.01-0.004l0.031,0.006l-0.019-0.01
				c0.804-0.347,0.922-0.351,1.331-0.701c0.411-0.354,0.764-0.772,1.176-0.947c0.412-0.179,0.883-0.888,1.295-1.183
				c0.412-0.297,1.471-0.829,1.648-1.125c0.176-0.296,0.764-1.302,1.178-1.537c0.41-0.237,0.586-0.533,0.586-0.71
				c0-0.178,0.236-1.185,0.412-1.539c0.137-0.274,0.381-0.833,0.62-1.181l0.821-0.55l-0.014-0.015l0,0
				c0.592-0.276,1.412-0.6,1.691-0.682c0.41-0.115,0.706-0.059,1.234-0.059c0.531,0,1.06-0.531,1.295-0.828
				c0.236-0.294,0.824-1.892,0.942-2.308c0.095-0.336-0.278-1.229-0.451-1.641c0,0-0.02-0.723-0.079-1.493
				c-0.057-0.746,0.332-2.161,0.352-2.244l-0.822,1.594h-0.412l-0.423,1.582c-0.136-0.031-0.256-0.067-0.343-0.104
				c-0.41-0.177-0.234-0.356-0.176-0.65c0.002-0.005,0.002-0.01,0.004-0.015c0.07-0.31,0.412-1.119,0.586-1.645
				c0.176-0.531-0.59-0.588-0.414-1.062c0.176-0.473,0.176-0.237,0.473-0.237c0.295,0,0.117-0.413-0.119-0.474
				c-0.234-0.059-0.115-0.472,0.061-0.709s0.41-0.592,0.529-0.768c0.116-0.179,1.352-2.251,1.648-2.605
				c0.294-0.354,0.939-2.779,1.115-2.955c0.176-0.179,0.882-1.952,1.12-2.25c0.04-0.051,0.107-0.126,0.195-0.216l-0.005-0.005
				l0.005,0.005c0.417-0.438,1.276-1.255,1.569-1.5c0.354-0.294,0.646-0.709,0.823-1.005c0.177-0.297,0.824-0.649,1.177-0.826
				c0.354-0.178,2.061-2.189,2.473-2.485c0.41-0.297-0.412-0.356-0.706-0.474c-0.295-0.118,0.176-0.769,0.647-1.184
				c0.469-0.415,0.763-0.77,0.763-0.77s0.53-0.768,0.588-1.181c0.062-0.415,1.06-0.89,1.297-1.245
				c0.234-0.354,1.294-1.241,1.823-1.715s1.117-1.599,1.412-2.485s0-2.306,0-2.543c0-0.236,0.117-1.479,0.353-2.128
				c0.235-0.651,0.765-2.546,1.118-3.079c0.153-0.231,0.409-0.589,0.649-0.916l0,0c0.308-0.423,0.586-0.798,0.586-0.798
				s0.765-0.946,0.941-1.241s0.412-0.594,0.589-1.007s0.472-0.354,0.882-0.532c0.412-0.178,0.473-0.651,0.589-0.947
				c0.118-0.295,0.591-0.354,0.882-0.472c0.23-0.094,0.388-0.4,0.557-0.781l0,0c0.048-0.107,0.097-0.223,0.149-0.343
				c0.237-0.532,0.824-1.007,1.119-1.186c0.294-0.176,0.411-1.893,0.529-2.363c0.117-0.474,0.177-0.474,0.412-0.829
				c0.235-0.356,0.177-1.479,0.177-1.952s-0.059-1.125-0.059-1.599s0.177-1.537,0.234-1.894c0.058-0.355,0.649-2.838,0.765-3.134
				c0.119-0.295,0.705-2.011,0.883-2.425c0.177-0.415,0.353-1.006,0.706-1.36c0.353-0.356,1.178-1.183,1.354-1.359
				c0.176-0.178,0.764-0.594,0.941-0.949c0.176-0.355,0.704-1.301,0.704-1.301C355.108,891.521,355.462,890.754,354.99,890.867z
				 M231.128,950.082L231.128,950.082l0.146-1.817L231.128,950.082z M231.933,948.706l-0.073,0.295l0.147-0.589l0,0L231.933,948.706
				z M243.087,952.779l-0.064-0.232L243.087,952.779l1.805,0.05L243.087,952.779z M245.737,948.011
				c-0.022,0.021-0.043,0.043-0.06,0.055c0.027-0.021,0.066-0.062,0.104-0.103C245.768,947.978,245.75,947.999,245.737,948.011z
				 M246.844,947.595c-0.091-0.043-0.233-0.109-0.368-0.165C246.611,947.485,246.753,947.552,246.844,947.595z M247.188,952.779
				h-0.489l-0.121-0.228l0.121,0.227h0.001L247.188,952.779l0.049-1.227L247.188,952.779z M250.878,941.121l-0.064-0.38l0.171,1.016
				L250.878,941.121z M256.784,951.624L256.784,951.624l0.214,1.253L256.784,951.624z M256.67,938.409l0.147,1.461L256.67,938.409
				l0.603-0.232L256.67,938.409z M266.462,938.211l-0.439-0.353l0,0l0.715,0.574L266.462,938.211z M275.29,940.993l-0.026-0.043
				l-0.016-0.024L275.29,940.993z M274.111,949.677l0.088-0.07l0.011-0.01L274.111,949.677z M275.248,943.577l-2.485,1.018
				L275.248,943.577l0.631-1.269L275.248,943.577z M292.859,953.074l-1.395,2.953h-0.001l1.673-3.534L292.859,953.074z
				 M295.541,934.837c-0.068,0-0.151-0.014-0.24-0.033c-0.008-0.003-0.017-0.004-0.023-0.007
				C295.375,934.818,295.466,934.837,295.541,934.837z M298.603,952.816l0.02,0.022l0.008,0.012L298.603,952.816z M298.5,944.637
				l-4.169,2.584l-0.696,0.168l0.695-0.168L298.5,944.637l0.572-0.776L298.5,944.637z M299.425,950.143L299.425,950.143l1.518-1.272
				L299.425,950.143z M302.31,964.266c0,0,0,0,0-0.002V964.266L302.31,964.266z M307.598,963.565l-0.075-0.086l-1.02-1.185
				L307.598,963.565L307.598,963.565z M307.698,964.528l-0.04-0.384l0.152,1.454L307.698,964.528z M307.808,925.537l0.394-0.44
				l-0.393,0.438l4.129,4.616l-0.22,0.095l0.219-0.095L307.808,925.537z M312.302,947.022L312.302,947.022l-0.757-0.889v-0.003
				L312.302,947.022z M311.591,957.265c-0.364,0.176-0.657,0.319-0.657,0.319s1.456-0.709,1.898-0.932
				C312.587,956.772,312.035,957.047,311.591,957.265z M311.906,921.558l0.981-1.101l-0.013-0.009l0.013,0.009l0.365-0.408
				L311.906,921.558z M314.531,945.761c0.054,0.062,0.105,0.119,0.16,0.214C314.636,945.88,314.584,945.823,314.531,945.761z
				 M314.244,944.762c0.133-0.09,0.32-0.123,0.53-0.116C314.564,944.639,314.376,944.672,314.244,944.762z M315.65,954.5
				l-0.125-0.51L315.65,954.5L315.65,954.5z M315.656,954.524L315.656,954.524l0.133,0.53L315.656,954.524z M318.864,949.144
				L318.864,949.144L318.864,949.144L318.864,949.144z M323.644,925.107l-2.93,3.04l-0.206,0.215l0.206-0.215l0,0L323.644,925.107
				l0.088-0.445L323.644,925.107z M326.645,920.803c0.001-0.002,0.002-0.004,0.003-0.006c0.055-0.082,0.09-0.164,0.124-0.243
				C326.738,920.635,326.702,920.718,326.645,920.803z M326.886,919.834c-0.009-0.062-0.02-0.119-0.033-0.176
				c0.014,0.057,0.024,0.114,0.033,0.178C326.886,919.834,326.886,919.834,326.886,919.834z M326.889,919.872L326.889,919.872
				c0.001,0.024,0,0.053,0.001,0.077C326.889,919.925,326.89,919.896,326.889,919.872z M326.953,923.6v-0.002l0.354-0.045
				L326.953,923.6z M334.119,917.662c0.088,0.117,0.199,0.281,0.305,0.455C334.318,917.943,334.207,917.779,334.119,917.662z
				 M336.177,914.194l-1.604-1.83l0,0l1.604,1.828V914.194z"/>
			<path fill="#3F444E" d="M257.494,930.684c0.337,0.04,0.673-0.161,0.924-0.364c0.1-0.08,0.185-0.16,0.252-0.229
				c0.205-0.206,0.672-0.676,0.601-0.837c-0.011-0.022-0.032-0.042-0.07-0.051c-0.296-0.059-1.06-0.416-1.06-0.416
				c-0.21-0.154-0.643-0.401-0.702-0.133c-0.009,0.034-0.011,0.079-0.003,0.136c0.02,0.161,0.038,0.313,0.056,0.456
				c0.034,0.282,0.062,0.531,0.062,0.727C257.552,930.269,257.021,930.623,257.494,930.684z"/>
			<path fill="#3F444E" d="M338.751,895.307c0.41,0,1-0.413,1.412-0.591c0.38-0.164,1.107-0.577,1.448-0.873
				c0.027-0.026,0.06-0.05,0.082-0.071c0.17-0.174,0.358-0.362,0.544-0.549c0.137-0.138,0.273-0.275,0.396-0.399
				c0.27-0.271,0.629-0.879,0.422-1.03c-0.02-0.013-0.039-0.03-0.069-0.035c-0.118-0.019-0.269-0.039-0.425-0.049
				c-0.309-0.021-0.633-0.01-0.75,0.107c-0.281,0.281-0.648,0.593-1.06,0.71c-0.413,0.119-0.825,0.178-1.06,0.593
				c-0.015,0.025-0.033,0.058-0.055,0.095c-0.295,0.499-1.148,1.89-0.947,2.072C338.706,895.301,338.726,895.307,338.751,895.307z"
				/>
			<path fill="#3F444E" d="M235.193,936.655c0.47,0.179,1.059,0.239,1.412,0.239l0,0l0,0c0.235,0,0.93-0.076,1.479,0.012
				c0.277,0.043,0.52,0.123,0.639,0.284c0.354,0.472,0.942,1.242,1.235,1.716c0.051,0.08,0.13,0.2,0.218,0.331
				c0.27,0.396,0.668,0.945,0.987,1.312c0.199,0.228,0.368,0.387,0.443,0.369c0.093-0.023,0.177-0.045,0.268-0.053
				c0.144-0.013,0.305,0.002,0.558,0.11c0.308,0.133,0.583,0.567,0.801,0.573c0.072,0.004,0.139-0.04,0.197-0.158
				c0.071-0.144,0.156-0.282,0.245-0.415c0.153-0.222,0.325-0.405,0.505-0.507c0.063-0.036,0.127-0.074,0.191-0.084
				c0.353-0.061,0.884,0.295,1.414,0.176c0.082-0.019,0.189-0.061,0.305-0.111c0.616-0.274,1.594-0.939,1.989-1.188
				c0.056-0.038,0.115-0.07,0.176-0.106c0.457-0.247,1.028-0.463,1.235-0.723c0.002,0,0.002,0,0.002,0
				c0.131-0.169,0.264-0.517,0.406-0.804c0.111-0.227,0.229-0.413,0.357-0.438c0.294-0.061,0.706,0.178,1.118-0.061
				c0.105-0.062,0.285-0.142,0.498-0.23c0.505-0.22,1.189-0.501,1.456-0.714c0.055-0.042,0.09-0.083,0.105-0.119
				c0.117-0.297,0.352-1.007,0.646-1.186c0.065-0.037,0.123-0.077,0.177-0.119c0.185-0.146,0.294-0.312,0.294-0.59
				c0-0.218-0.045-0.688,0.007-1.042c0.029-0.217,0.096-0.39,0.229-0.437c0.017-0.007,0.028-0.015,0.045-0.021
				c0.314-0.117,0.443-0.296,0.777-0.688c0.142-0.163,0.206-0.29,0.256-0.398c0.072-0.15,0.117-0.269,0.289-0.396
				c0.015-0.01,0.027-0.021,0.045-0.034c0.303-0.202,0.433-0.188,0.5-0.445c0.012-0.04,0.021-0.089,0.029-0.146
				c0.016-0.117,0.018-0.195,0.014-0.26c-0.012-0.168-0.073-0.245-0.073-0.627c0-0.533-0.353-1.065-0.353-1.065
				s-0.353-0.177-0.412-0.413c-0.028-0.114-0.052-0.215-0.082-0.31c-0.068-0.216-0.182-0.413-0.506-0.697
				c-0.059-0.053-0.123-0.097-0.191-0.135c-0.479-0.268-1.156-0.243-1.516-0.398c-0.412-0.177-1.176-0.945-1.706-0.768
				c-0.416,0.139-0.905,0.274-1.354,0.298c-0.121,0.006-0.239,0.008-0.352-0.004c-0.529-0.059-1.119,0.061-1.53,0
				c-0.308-0.045-0.552-0.287-0.753-0.231c-0.021,0.007-0.043,0.023-0.064,0.036c-0.012,0.007-0.021,0.008-0.033,0.019
				c-0.031,0.027-0.062,0.067-0.091,0.121c-0.028,0.05-0.054,0.112-0.075,0.184c0,0,0,0,0,0.001c-0.016,0.047-0.027,0.1-0.039,0.149
				c-0.052,0.214-0.099,0.469-0.17,0.714c-0.104,0.362-0.266,0.702-0.6,0.843c-0.218,0.091-0.498,0.188-0.785,0.287
				c-0.644,0.222-1.327,0.455-1.449,0.661c-0.131,0.218-0.393,0.761-0.781,1.075c-0.137,0.108-0.287,0.193-0.455,0.225
				c-0.647,0.118-2.117-0.119-2.295,0.177c-0.176,0.295-0.529,1.596-1,1.596c-0.411,0-1.229-0.18-1.663-0.104
				c-0.062,0.011-0.116,0.024-0.162,0.048c-0.259,0.13-0.769,0.291-1.092,0.533c-0.009,0.007-0.017,0.011-0.023,0.014
				c-0.031,0.026-0.056,0.054-0.083,0.076c-0.019,0.021-0.043,0.038-0.061,0.059c-0.022,0.025-0.034,0.055-0.053,0.083
				c-0.012,0.021-0.03,0.041-0.041,0.064c0,0,0,0,0,0.001c-0.18,0.415-1.059,1.656-0.883,2.01c0.105,0.208,0.285,0.457,0.325,0.652
				c0.019,0.088,0.005,0.164-0.06,0.22c-0.034,0.032-0.08,0.056-0.146,0.073c-0.354,0.089-0.974,0.443-1.06,0.69
				C235.044,936.542,235.075,936.614,235.193,936.655z"/>
			<path fill="#3F444E" d="M275.439,962.213c0.412,0.296,0.706,0.592,1.059,0.415c0.354-0.178,0.473-0.534,0.473-0.534
				s-0.707-0.293-0.884-0.293C275.792,961.801,275.027,961.917,275.439,962.213z"/>
			<path fill="#3F444E" d="M324.511,962.685c-0.04-0.061-0.08-0.167-0.117-0.276c-0.068-0.208-0.117-0.432-0.117-0.432
				s-0.266-0.251-0.638-0.323c-0.061-0.014-0.12-0.031-0.187-0.031l0,0c-0.069,0-0.127,0.002-0.188,0.002
				c-0.16,0.003-0.305,0.029-0.449,0.084c-0.127,0.054-0.261,0.13-0.422,0.269c-0.08,0.069-0.149,0.134-0.219,0.202
				c-0.252,0.242-0.461,0.435-0.729,0.482c-0.037,0.007-0.07,0.023-0.112,0.023c-0.103,0-0.264,0.013-0.45,0.035
				c-0.092,0.011-0.189,0.026-0.289,0.041c-0.498,0.083-1.027,0.236-1.027,0.457c0,0.187,0.031,0.324,0.028,0.472
				c-0.003,0.135-0.032,0.276-0.146,0.476c-0.199,0.353-0.387,0.698-0.368,0.94c0.003,0.043-0.002,0.09,0.016,0.123
				c0,0-0.029,0.059-0.069,0.143c-0.078,0.164-0.207,0.433-0.283,0.628c-0.016,0.037-0.035,0.083-0.054,0.126
				c-0.101,0.236-0.226,0.527-0.274,0.771c-0.012,0.059-0.025,0.117-0.025,0.168l0,0c0,0.062,0.019,0.173,0.047,0.302
				c0.106,0.467,0.383,1.21,0.659,1.118c0.354-0.12,0.471-0.354,0.942-0.416c0.469-0.059,1.13-0.527,1.13-0.527
				c0.096-0.083,0.173-0.164,0.224-0.24c0.209-0.315,1.066-1.89,1.545-2.361c0.06-0.059,0.116-0.104,0.162-0.125
				c0.022-0.01,0.052-0.02,0.078-0.032c0.383-0.16,1.062-0.43,1.271-0.683c0.033-0.037,0.054-0.074,0.061-0.112
				c0.023-0.112,0.045-0.307,0.058-0.508c0.013-0.2,0.016-0.406,0-0.563C324.559,962.813,324.542,962.729,324.511,962.685z"/>
		</g>
		<g>
			<path fill="#FFFFFF" d="M300.397,956.712c-2.364,0-4.279,1.912-4.279,4.275c0,2.365,4.279,6.529,4.279,6.529
				s4.28-4.164,4.28-6.529C304.677,958.624,302.761,956.712,300.397,956.712"/>
			<path fill="#3F444E" d="M300.427,961.494c-0.488,0-0.884-0.394-0.884-0.885c0-0.484,0.396-0.882,0.884-0.882
				c0.49,0,0.887,0.397,0.887,0.882C301.314,961.101,300.917,961.494,300.427,961.494 M300.427,958.652
				c-1.081,0-1.961,0.879-1.961,1.957c0,1.083,0.88,1.959,1.961,1.959c1.085,0,1.961-0.876,1.961-1.959
				C302.388,959.531,301.512,958.652,300.427,958.652"/>
		</g>
	</g>
</g>
</svg>
