<?xml version="1.0" encoding="utf-8"?>
<!-- Generator: Adobe Illustrator 16.0.0, SVG Export Plug-In . SVG Version: 6.00 Build 0)  -->
<!DOCTYPE svg PUBLIC "-//W3C//DTD SVG 1.1//EN" "http://www.w3.org/Graphics/SVG/1.1/DTD/svg11.dtd">
<svg version="1.1" id="Layer_1" xmlns="http://www.w3.org/2000/svg" xmlns:xlink="http://www.w3.org/1999/xlink" x="0px" y="0px"
	 width="144px" height="144px" viewBox="0 0 144 144" enable-background="new 0 0 144 144" xml:space="preserve">
<g>
	<g>
		<g>
			<g>
				<path fill="#3F444E" d="M129.127,72c0,0-23.509-28.046-53.255-30.364c-1.274-0.155-2.566-0.24-3.871-0.24
					c-1.307,0-2.599,0.085-3.873,0.24C38.382,43.954,14.873,72,14.873,72s23.509,28.051,53.255,30.364
					c1.274,0.16,2.566,0.24,3.873,0.24c1.305,0,2.597-0.08,3.871-0.24C105.618,100.051,129.127,72,129.127,72z M74.953,93.987
					c-0.992,0.069-1.976,0.109-2.952,0.109c-0.979,0-1.965-0.04-2.957-0.109C58.206,92.535,49.816,83.231,49.816,72
					s8.39-20.535,19.23-21.987c0.991-0.07,1.978-0.105,2.954-0.105c0.977,0,1.963,0.035,2.955,0.105
					C85.796,51.465,94.184,60.773,94.184,72C94.184,83.231,85.794,92.54,74.953,93.987z M26.54,71.995
					c2.554-2.438,5.966-5.448,10.067-8.478c2.676-1.973,5.368-3.745,8.057-5.308c-2.138,4.221-3.27,8.918-3.27,13.79
					s1.132,9.569,3.27,13.795c-2.584-1.507-5.17-3.199-7.741-5.082C32.707,77.628,29.174,74.514,26.54,71.995z M107.395,80.482
					c-2.679,1.978-5.37,3.75-8.057,5.312c2.138-4.226,3.267-8.923,3.267-13.795s-1.129-9.569-3.267-13.79
					c2.584,1.502,5.167,3.199,7.741,5.077c4.214,3.085,7.749,6.199,10.377,8.723C114.909,74.448,111.494,77.458,107.395,80.482z"/>
			</g>
		</g>
		<g>
			<path fill="#3F444E" d="M72.564,57.594c1.177,1.522,1.878,3.425,1.878,5.498c0,4.968-4.028,8.993-8.996,8.993
				c-3.049,0-5.744-1.521-7.371-3.84C57.755,69.441,57.58,70.703,57.58,72c0,7.967,6.457,14.421,14.421,14.421
				c7.962,0,14.419-6.454,14.419-14.421C86.42,64.229,80.266,57.89,72.564,57.594z"/>
		</g>
	</g>
</g>
</svg>
