<?xml version="1.0" encoding="utf-8"?>
<!-- Generator: Adobe Illustrator 16.0.0, SVG Export Plug-In . SVG Version: 6.00 Build 0)  -->
<!DOCTYPE svg PUBLIC "-//W3C//DTD SVG 1.1//EN" "http://www.w3.org/Graphics/SVG/1.1/DTD/svg11.dtd">
<svg version="1.1" id="Layer_1" xmlns="http://www.w3.org/2000/svg" xmlns:xlink="http://www.w3.org/1999/xlink" x="0px" y="0px"
	 width="144px" height="144px" viewBox="0 0 144 144" enable-background="new 0 0 144 144" xml:space="preserve">
<g>
	<g>
		<g>
			<path fill="#3F444E" d="M138.124,29.878c-0.469,0.12-2.411,0.358-2.883,0.417c-0.471,0.061-0.939,0.534-1.293,0.296
				c-0.354-0.235-0.705-0.18-0.942-0.648c-0.235-0.477-0.412-0.832-0.882-0.832c-0.471,0-1.178,0.299-1.706,0.299
				c-0.53,0-1.413-0.061-1.589,0.234c-0.178,0.299-1.235,1.658-1.412,1.953c-0.177,0.296-0.707,1.066-1.002,1.186
				c-0.294,0.115-1.354,0.177-1.469,0.531c-0.118,0.355-0.766,1.537-1.119,1.892s-1.176,0.828-1.941,0.828s-1.648-0.059-2.06,0.237
				c-0.413,0.295-2.001,1.303-2.471,1.537c-0.472,0.236-1.473,0.592-1.708,0.533c-0.234-0.06-1.294-0.12-1.529,0.118
				c-0.235,0.235-0.235,0.71-0.706,0.71c-0.47,0-1.236,0.354-1.59,0.592c-0.353,0.234-2.294,1.124-3,1.598
				c-0.706,0.472-3.001,2.07-3.353,2.247c-0.355,0.177-1.826,1.006-2.296,1.064c-0.471,0.061-1.176-0.415-1.294-0.059
				c-0.103,0.303-0.159,0.61-0.437,0.841l-0.005-0.015l-0.01,0.026c-0.041,0.034-0.085,0.064-0.136,0.094
				c-0.415,0.236-2.12,1.184-2.649,1.657s-0.942,1.537-1.473,2.009c-0.529,0.474-1.234,1.007-1.47,1.481
				c-0.235,0.471-0.824,1.952-1.177,2.308c-0.354,0.354-1.646,1.832-1.941,2.307c-0.293,0.473-0.589,1.535-1.176,1.773
				c-0.591,0.235-0.648,0.118-0.883,0.414c-0.23,0.289-0.348,0.806-0.629,0.992c-0.005,0.006-0.013,0.011-0.02,0.015
				c-0.295,0.176-0.941,0.176-1.178,0.828c-0.234,0.649-0.291,1.95-0.645,1.655c-0.354-0.295-0.707-0.415-0.707,0.178
				c0,0.592,0.469,1.065,0.115,1.538c-0.352,0.474-0.587,1.361-1.235,1.479c-0.646,0.118-1.292,0.592-1.588,0.949
				c-0.292,0.353-1.528,2.482-2.001,2.602c-0.471,0.117-0.939,0.059-1.352,0.117c-0.412,0.06-1.237,0.414-1.237,0.414
				s-0.528,0-1.117-0.237c-0.588-0.235-1.177-0.413-1.647-0.355c-0.471,0.062-1.235,0.829-1.648,0.888
				c-0.41,0.059-1.294,0.651-1.705,0.771c-0.412,0.116-0.412,0.648-0.705,0.648c-0.297,0-0.53,0.177-0.53-0.117
				c0-0.296,0.117-0.531-0.471-0.474c-0.589,0.059-0.883,0.236-1.354,0.71c-0.469,0.473-0.646,0.829-1.061,0.888
				c-0.41,0.057-0.82,0.057-0.82,0.057s-0.236-0.293-0.413,0.062c-0.177,0.356-0.353,0.649-0.707,0.711
				c-0.353,0.059-0.529-0.12-0.823,0.117c-0.293,0.236-0.941,1.063-1.176,1.361c-0.234,0.296-0.589,0.709-0.824,0.709
				c-0.236,0-0.883-0.12-1,0.179c-0.119,0.295-0.06,0.828-0.354,0.887s-0.648,0.354-0.883,0.176
				c-0.236-0.176-0.413-0.234-0.647-0.234c-0.17,0-0.559,0.218-0.964,0.293c-0.151,0.025-0.303,0.031-0.449,0
				c-0.527-0.115-1.116-0.234-1.529-0.176c-0.411,0.061-1.176,0.416-1.59,0.117c-0.41-0.295-1.175-0.826-1.41-0.826
				s-2.059-0.415-2.648-0.65c-0.588-0.239-1.059-0.652-1.118-0.829c-0.147-0.448,0.412-0.651-0.057-0.947
				c-0.473-0.296-1.297-0.65-1.413-0.828c-0.119-0.177-0.59-0.354-0.943-0.354c-0.352,0-1.292,0.178-1.528,0.178
				c-0.235,0-0.824,0.06-1.001-0.236s-0.295-0.829-0.529-1.006c-0.234-0.178-0.883-0.059-1.412-0.297
				c-0.529-0.236-1.293-0.531-1.53-0.65c-0.234-0.117-1-0.415-1.176-0.117c-0.177,0.295-0.59,0.828-0.766,1.064
				c-0.178,0.235-1.06,0.71-1.411,0.944c-0.354,0.239-1.354,1.303-1.414,1.48c-0.059,0.179-0.412,0.354-0.115,0.709
				c0.292,0.357,0.822,1.066,0.527,1.657c-0.293,0.592-1.118,1.183-1.471,1.597c-0.121,0.14-0.225,0.267-0.328,0.371
				c-0.203,0.204-0.399,0.32-0.672,0.28c-0.412-0.061-1.41-0.238-1.588,0.059c-0.176,0.296-0.529,1.658-0.825,1.658
				c-0.295,0-0.94,0.237-1.116,0.415c-0.145,0.145-0.447,0.601-0.746,0.927l-0.832,0.556c-0.033,0.018-0.066,0.034-0.102,0.052
				c-0.682,0.323-1.597,0.69-1.912,0.771c-0.469,0.118-0.999,0.179-1.234,0.296c-0.234,0.117-0.941,0-1.294,0.238
				c-0.353,0.235-0.94,0.648-1.294,0.768c-0.353,0.117-1.354,0.117-1.766,0.058c-0.412-0.058-1.883-0.472-2.179-1.005
				c-0.292-0.53-0.528-1.951-0.528-2.427c0-0.472,0.059-1.594-0.413-1.654c-0.471-0.059-0.528,0-1.353,0
				c-0.822,0-1.294,0.178-1.412,0.532c-0.116,0.354-0.059,0.77-0.411,0.946c-0.354,0.176-1.53,0.297-1.413,0.71
				c0.12,0.414,0.707,0.768,0.178,1.008c-0.529,0.235-1.295,0.115-0.883,0.53c0.412,0.413,0.883,1.183,1.178,1.419
				c0.27,0.217,0.987,1.088,0.508,1.088c-0.043,0-0.094-0.008-0.156-0.022c-0.766-0.178-1.471-0.236-1.648-0.414
				c-0.176-0.179-0.293-0.354-0.528-0.118c-0.235,0.237-0.766,1.122-0.942,1.302c-0.176,0.178-0.763,0.591-1.117,0.475
				c-0.353-0.118-1.117-0.532-1.059-0.297c0.058,0.235,0.354,0.59-0.118,0.65c-0.472,0.059-1.059,0.415-1.471,0.178
				c-0.413-0.238-0.413-0.354-0.589,0c-0.177,0.354-0.235,0.946-0.588,1.065c-0.354,0.115-0.941,0.057-1.002,0.414
				c-0.057,0.354,0,0.591-0.292,0.887c-0.296,0.296-0.413,0.474-0.591,0.887c-0.176,0.414-0.529,1.184-0.116,1.361
				c0.411,0.179,0.999,0.768,0.823,1.184c-0.176,0.413-0.234,0.53-0.116,1.063c0.116,0.532,0.528,0.77,0.469,1.126
				c-0.058,0.354-0.116,0.827,0.177,1.121c0.293,0.295,0.697,0.878,0.765,1.461c0,0.002,0,0.002,0,0.002
				c0,0.006,0.002,0.013,0.002,0.017c0.059,0.592-0.177,1.361,0.234,1.657s1.06,1.183,1.707,1.241
				c0.647,0.062,2.587-0.059,2.882,0.062c0.022,0.008,0.045,0.019,0.068,0.031l0,0l-0.015,0.035l0.032-0.025
				c0.294,0.168,0.717,0.608,1.092,0.608h0.941c0.234,0,0.764,0.65,0.941,0.235c0.176-0.411-0.059-0.531,0.471-0.768
				c0.529-0.237,2.471-0.651,2.824-0.594c0.353,0.062,1.117,0.415,1.47,0.239c0.353-0.178,1.296-0.414,1.589-0.414
				c0.018,0,0.039,0.001,0.062,0.005l-0.001,0.025l0.002-0.025c0.375,0.075,1.494,0.688,1.88,0.468
				c0.413-0.236,0.528-0.651,0.767-0.298c0.233,0.356,0.469,0.771,0.764,0.415c0.295-0.354,0.884-1.062,1.471-1.062
				c0.59,0,3.295-0.475,3.826-0.534c0.527-0.061,2.176-0.77,2.646-0.828c0.473-0.059,1.06-0.236,1.236,0.118
				c0.176,0.356,0.471,1.184,0.883,1.244c0.41,0.059,1.116-0.179,1.469-0.12c0.048,0.006,0.094,0.013,0.141,0.019
				c0.302,0.033,0.573,0.027,0.625,0.336c0.06,0.355,0,1.065,0.237,0.711c0.233-0.355,0-0.59,0.47-0.828
				c0.471-0.237,0.883-0.475,1.766-0.533c0.882-0.059,1.117-0.059,1.941-0.059c0.822,0,1.528,0.296,1.528-0.06
				c0-0.354-0.176-1.064,0-1.241c0.177-0.179,0.647-1.715,1.354-1.715c0.705,0,0.529-0.237,0.941-0.413
				c0.413-0.18,0.529-0.239,0.943-0.18c0,0,0.822,0.061,1.234,0.414c0.066,0.057,0.17,0.13,0.289,0.212l1.702,1.261v-0.034
				c0.098,0.101,0.165,0.195,0.186,0.276c0.119,0.473-0.058,1.538,0.354,1.538s0.529-0.356,1-0.059
				c0.47,0.296,0.705,1.122,0.883,0.947c0.177-0.179,0.587-0.355,0.94-0.179c0.354,0.179,0.706,0.415,0.706,0.651
				c0,0.235,0,0.828,0.235,0.709c0.237-0.116,0.883-0.592,1-0.235c0.119,0.354,0.177,0.648,0.411,0.768
				c0.237,0.121,0.53-0.119,1.002-0.059c0.471,0.059,1.999,0.354,2.354,0.651c0.353,0.296,0.882,0.591,1.234,0.532
				c0.354-0.059,0.413-0.296,1.002-0.296c0.345,0,0.754,0.145,1.091,0.322l0,0v0.012l0.003-0.007
				c0.233,0.121,0.434,0.265,0.554,0.384c0.293,0.294,0.527,0.531,0.999,0.768c0.472,0.237,1.708,1.063,2.061,1.124
				c0.354,0.061,0.707,0.116,1,0.415c0.294,0.294,0.528,0.886,0.883,0.886c0.353,0,0.646-0.118,0.942-0.058
				c0.292,0.058,1.235,0.175,1.588,0.594c0.354,0.41,0.234,0.589,0.766,0.768c0.528,0.175,1.764-0.06,1.941,0.233
				c0.062,0.105,0.102,0.223,0.141,0.353c-0.029,0.004-0.052,0.007-0.052,0.007l0.057,0.01c0.069,0.237,0.138,0.515,0.325,0.816
				c0,0,0.707,0.946,0.941,1.479c0.234,0.53,1.177,1.479,1.469,1.774c0.295,0.295,0.649,0.77,0.883,1.183
				c0.236,0.414,0.825,1.301,1.236,1.42c0.414,0.12,0.825,0.296,1.354,0.475c0.529,0.176,1.531,0.293,1.942,0.473
				c0.412,0.178,1.531,0.533,2.118,0.533s0.824-0.061,1.412-0.119c0.588-0.061,0.824,0,1.295-0.176
				c0.472-0.181,1.471-0.89,1.822-1.186c0.354-0.296,1.178-1.36,1.531-1.656s1.234-0.472,1.531-0.885
				c0.293-0.417-0.12-0.356,0.705-0.712c0.004-0.002,0.007-0.002,0.01-0.004l0.031,0.006l-0.019-0.01
				c0.804-0.347,0.922-0.351,1.331-0.701c0.411-0.354,0.764-0.772,1.176-0.947c0.412-0.179,0.883-0.888,1.295-1.183
				c0.412-0.297,1.471-0.829,1.648-1.125c0.176-0.296,0.764-1.302,1.178-1.537c0.41-0.237,0.586-0.533,0.586-0.71
				c0-0.178,0.236-1.185,0.412-1.539c0.137-0.274,0.381-0.833,0.62-1.181l0.821-0.55l-0.014-0.015l0,0
				c0.592-0.276,1.412-0.6,1.691-0.682c0.41-0.115,0.706-0.059,1.234-0.059c0.531,0,1.06-0.531,1.295-0.828
				c0.236-0.294,0.824-1.892,0.942-2.308c0.095-0.336-0.278-1.229-0.451-1.641c0,0-0.02-0.723-0.079-1.493
				c-0.057-0.746,0.332-2.161,0.352-2.244l-0.822,1.594h-0.412l-0.423,1.582c-0.136-0.031-0.256-0.067-0.343-0.104
				c-0.41-0.177-0.234-0.356-0.176-0.65c0.002-0.005,0.002-0.01,0.004-0.015c0.07-0.31,0.412-1.119,0.586-1.645
				c0.176-0.531-0.59-0.588-0.414-1.062c0.176-0.473,0.176-0.237,0.473-0.237c0.295,0,0.117-0.413-0.119-0.474
				c-0.234-0.059-0.115-0.472,0.061-0.709s0.41-0.592,0.529-0.768c0.116-0.179,1.352-2.251,1.648-2.605
				c0.294-0.354,0.939-2.779,1.115-2.955c0.176-0.179,0.882-1.952,1.12-2.25c0.04-0.051,0.107-0.126,0.195-0.216l-0.005-0.005
				l0.005,0.005c0.417-0.438,1.276-1.255,1.569-1.5c0.354-0.294,0.646-0.709,0.823-1.005c0.177-0.297,0.824-0.649,1.177-0.826
				c0.354-0.178,2.061-2.189,2.473-2.485c0.41-0.297-0.412-0.356-0.706-0.474c-0.295-0.118,0.176-0.769,0.647-1.184
				c0.469-0.415,0.763-0.77,0.763-0.77s0.53-0.768,0.588-1.181c0.062-0.415,1.06-0.89,1.297-1.245
				c0.234-0.354,1.294-1.241,1.823-1.715s1.117-1.599,1.412-2.485s0-2.306,0-2.543c0-0.236,0.117-1.479,0.353-2.128
				c0.235-0.651,0.765-2.546,1.118-3.079c0.153-0.231,0.409-0.589,0.649-0.916l0,0c0.308-0.423,0.586-0.798,0.586-0.798
				s0.765-0.946,0.941-1.241s0.412-0.594,0.589-1.007s0.472-0.354,0.882-0.532c0.412-0.178,0.473-0.651,0.589-0.947
				c0.118-0.295,0.591-0.354,0.882-0.472c0.23-0.094,0.388-0.4,0.557-0.781l0,0c0.048-0.107,0.097-0.223,0.149-0.343
				c0.237-0.532,0.824-1.007,1.119-1.186c0.294-0.176,0.411-1.893,0.529-2.363c0.117-0.474,0.177-0.474,0.412-0.829
				c0.235-0.356,0.177-1.479,0.177-1.952s-0.059-1.125-0.059-1.599s0.177-1.537,0.234-1.894c0.058-0.355,0.649-2.838,0.765-3.134
				c0.119-0.295,0.705-2.011,0.883-2.425c0.177-0.415,0.353-1.006,0.706-1.36c0.353-0.356,1.178-1.183,1.354-1.359
				c0.176-0.178,0.764-0.594,0.941-0.949c0.176-0.355,0.704-1.301,0.704-1.301C138.242,30.532,138.597,29.765,138.124,29.878z
				 M14.263,89.093L14.263,89.093l0.146-1.817L14.263,89.093z M15.067,87.717l-0.073,0.295l0.147-0.589l0,0L15.067,87.717z
				 M26.222,91.79l-0.064-0.232L26.222,91.79l1.805,0.05L26.222,91.79z M28.871,87.021c-0.022,0.021-0.043,0.043-0.06,0.055
				c0.027-0.021,0.066-0.062,0.104-0.103C28.902,86.988,28.884,87.01,28.871,87.021z M29.979,86.605
				c-0.091-0.043-0.233-0.109-0.368-0.165C29.745,86.496,29.888,86.562,29.979,86.605z M30.322,91.79h-0.489l-0.121-0.228
				l0.121,0.227h0.001L30.322,91.79l0.049-1.227L30.322,91.79z M34.013,80.132l-0.064-0.38l0.171,1.016L34.013,80.132z
				 M39.918,90.635L39.918,90.635l0.214,1.253L39.918,90.635z M39.805,77.42l0.147,1.461L39.805,77.42l0.603-0.232L39.805,77.42z
				 M49.597,77.222l-0.439-0.353l0,0l0.715,0.574L49.597,77.222z M58.424,80.004l-0.026-0.043l-0.016-0.024L58.424,80.004z
				 M57.245,88.688l0.088-0.07l0.011-0.01L57.245,88.688z M58.382,82.588l-2.485,1.018L58.382,82.588l0.631-1.269L58.382,82.588z
				 M75.993,92.085l-1.395,2.953h-0.001l1.673-3.534L75.993,92.085z M78.675,73.848c-0.068,0-0.151-0.014-0.24-0.033
				c-0.008-0.003-0.017-0.004-0.023-0.007C78.509,73.829,78.601,73.848,78.675,73.848z M81.737,91.827l0.02,0.022l0.008,0.012
				L81.737,91.827z M81.634,83.647l-4.169,2.584l-0.696,0.168l0.695-0.168L81.634,83.647l0.572-0.776L81.634,83.647z M82.56,89.153
				L82.56,89.153l1.518-1.272L82.56,89.153z M85.444,103.276c0,0,0,0,0-0.002V103.276L85.444,103.276z M90.732,102.576l-0.075-0.086
				l-1.02-1.185L90.732,102.576L90.732,102.576z M90.832,103.539l-0.04-0.384l0.152,1.454L90.832,103.539z M90.942,64.548
				l0.394-0.44l-0.393,0.438l4.129,4.616l-0.22,0.095l0.219-0.095L90.942,64.548z M95.437,86.033L95.437,86.033l-0.757-0.889v-0.003
				L95.437,86.033z M94.726,96.275c-0.364,0.176-0.657,0.319-0.657,0.319s1.456-0.709,1.898-0.932
				C95.722,95.783,95.169,96.058,94.726,96.275z M95.04,60.568l0.981-1.101l-0.013-0.009l0.013,0.009l0.365-0.408L95.04,60.568z
				 M97.665,84.771c0.054,0.062,0.105,0.119,0.16,0.214C97.771,84.891,97.719,84.834,97.665,84.771z M97.378,83.772
				c0.133-0.09,0.32-0.123,0.53-0.116C97.698,83.649,97.511,83.683,97.378,83.772z M98.784,93.511l-0.125-0.51L98.784,93.511
				L98.784,93.511z M98.79,93.535L98.79,93.535l0.133,0.53L98.79,93.535z M101.998,88.154L101.998,88.154L101.998,88.154
				L101.998,88.154z M106.778,64.118l-2.93,3.04l-0.206,0.215l0.206-0.215l0,0L106.778,64.118l0.088-0.445L106.778,64.118z
				 M109.779,59.813c0.001-0.002,0.002-0.004,0.003-0.006c0.055-0.082,0.09-0.164,0.124-0.243
				C109.872,59.646,109.836,59.729,109.779,59.813z M110.021,58.845c-0.009-0.062-0.02-0.119-0.033-0.176
				c0.014,0.057,0.024,0.114,0.033,0.178C110.021,58.845,110.021,58.845,110.021,58.845z M110.023,58.883L110.023,58.883
				c0.001,0.024,0,0.053,0.001,0.077C110.023,58.936,110.024,58.907,110.023,58.883z M110.087,62.61v-0.002l0.354-0.045
				L110.087,62.61z M117.253,56.673c0.088,0.117,0.199,0.281,0.305,0.455C117.452,56.954,117.341,56.79,117.253,56.673z
				 M119.312,53.205l-1.604-1.83l0,0l1.604,1.828V53.205z"/>
			<path fill="#3F444E" d="M40.628,69.694c0.337,0.04,0.673-0.161,0.924-0.364c0.1-0.08,0.185-0.16,0.252-0.229
				c0.205-0.206,0.672-0.676,0.601-0.837c-0.011-0.022-0.032-0.042-0.07-0.051c-0.296-0.059-1.06-0.416-1.06-0.416
				c-0.21-0.154-0.643-0.401-0.702-0.133c-0.009,0.034-0.011,0.079-0.003,0.136c0.02,0.161,0.038,0.313,0.056,0.456
				c0.034,0.282,0.062,0.531,0.062,0.727C40.687,69.279,40.155,69.634,40.628,69.694z"/>
			<path fill="#3F444E" d="M121.886,34.317c0.41,0,1-0.413,1.412-0.591c0.38-0.164,1.107-0.577,1.448-0.873
				c0.027-0.026,0.06-0.05,0.082-0.071c0.17-0.174,0.358-0.362,0.544-0.549c0.137-0.138,0.273-0.275,0.396-0.399
				c0.27-0.271,0.629-0.879,0.422-1.03c-0.02-0.013-0.039-0.03-0.069-0.035c-0.118-0.019-0.269-0.039-0.425-0.049
				c-0.309-0.021-0.633-0.01-0.75,0.107c-0.281,0.281-0.648,0.593-1.06,0.71c-0.413,0.119-0.825,0.178-1.06,0.593
				c-0.015,0.025-0.033,0.058-0.055,0.095c-0.295,0.499-1.148,1.89-0.947,2.072C121.84,34.312,121.86,34.317,121.886,34.317z"/>
			<path fill="#3F444E" d="M18.327,75.666c0.47,0.179,1.059,0.239,1.412,0.239l0,0l0,0c0.235,0,0.93-0.076,1.479,0.012
				c0.277,0.043,0.52,0.123,0.639,0.284c0.354,0.472,0.942,1.242,1.235,1.716c0.051,0.08,0.13,0.2,0.218,0.331
				c0.27,0.396,0.668,0.945,0.987,1.312c0.199,0.228,0.368,0.387,0.443,0.369c0.093-0.023,0.177-0.045,0.268-0.053
				c0.144-0.013,0.305,0.002,0.558,0.11c0.308,0.133,0.583,0.567,0.801,0.573c0.072,0.004,0.139-0.04,0.197-0.158
				c0.071-0.144,0.156-0.282,0.245-0.415c0.153-0.222,0.325-0.405,0.505-0.507c0.063-0.036,0.127-0.074,0.191-0.084
				c0.353-0.061,0.884,0.295,1.414,0.176c0.082-0.019,0.189-0.061,0.305-0.111c0.616-0.274,1.594-0.939,1.989-1.188
				c0.056-0.038,0.115-0.07,0.176-0.106c0.457-0.247,1.028-0.463,1.235-0.723c0.002,0,0.002,0,0.002,0
				c0.131-0.169,0.264-0.517,0.406-0.804c0.111-0.227,0.229-0.413,0.357-0.438c0.294-0.061,0.706,0.178,1.118-0.061
				c0.105-0.062,0.285-0.142,0.498-0.23c0.505-0.22,1.189-0.501,1.456-0.714c0.055-0.042,0.09-0.083,0.105-0.119
				c0.117-0.297,0.352-1.007,0.646-1.186c0.065-0.037,0.123-0.077,0.177-0.119c0.185-0.146,0.294-0.312,0.294-0.59
				c0-0.218-0.045-0.688,0.007-1.042c0.029-0.217,0.096-0.39,0.229-0.437c0.017-0.007,0.028-0.015,0.045-0.021
				c0.314-0.117,0.443-0.296,0.777-0.688c0.142-0.163,0.206-0.29,0.256-0.398c0.072-0.15,0.117-0.269,0.289-0.396
				c0.015-0.01,0.027-0.021,0.045-0.034c0.303-0.202,0.433-0.188,0.5-0.445c0.012-0.04,0.021-0.089,0.029-0.146
				c0.016-0.117,0.018-0.195,0.014-0.26c-0.012-0.168-0.073-0.245-0.073-0.627c0-0.533-0.353-1.065-0.353-1.065
				s-0.353-0.177-0.412-0.413c-0.028-0.114-0.052-0.215-0.082-0.31c-0.068-0.216-0.182-0.413-0.506-0.697
				c-0.059-0.053-0.123-0.097-0.191-0.135c-0.479-0.268-1.156-0.243-1.516-0.398c-0.412-0.177-1.176-0.945-1.706-0.768
				c-0.416,0.139-0.905,0.274-1.354,0.298c-0.121,0.006-0.239,0.008-0.352-0.004c-0.529-0.059-1.119,0.061-1.53,0
				c-0.308-0.045-0.552-0.287-0.753-0.231c-0.021,0.007-0.043,0.023-0.064,0.036c-0.012,0.007-0.021,0.008-0.033,0.019
				c-0.031,0.027-0.062,0.067-0.091,0.121c-0.028,0.05-0.054,0.112-0.075,0.184c0,0,0,0,0,0.001c-0.016,0.047-0.027,0.1-0.039,0.149
				c-0.052,0.214-0.099,0.469-0.17,0.714c-0.104,0.362-0.266,0.702-0.6,0.843c-0.218,0.091-0.498,0.188-0.785,0.287
				c-0.644,0.222-1.327,0.455-1.449,0.661c-0.131,0.218-0.393,0.761-0.781,1.075c-0.137,0.108-0.287,0.193-0.455,0.225
				c-0.647,0.118-2.117-0.119-2.295,0.177c-0.176,0.295-0.529,1.596-1,1.596c-0.411,0-1.229-0.18-1.663-0.104
				c-0.062,0.011-0.116,0.024-0.162,0.048c-0.259,0.13-0.769,0.291-1.092,0.533c-0.009,0.007-0.017,0.011-0.023,0.014
				c-0.031,0.026-0.056,0.054-0.083,0.076c-0.019,0.021-0.043,0.038-0.061,0.059c-0.022,0.025-0.034,0.055-0.053,0.083
				c-0.012,0.021-0.03,0.041-0.041,0.064c0,0,0,0,0,0.001c-0.18,0.415-1.059,1.656-0.883,2.01c0.105,0.208,0.285,0.457,0.325,0.652
				c0.019,0.088,0.005,0.164-0.06,0.22c-0.034,0.032-0.08,0.056-0.146,0.073c-0.354,0.089-0.974,0.443-1.06,0.69
				C18.179,75.553,18.209,75.625,18.327,75.666z"/>
			<path fill="#3F444E" d="M58.573,101.224c0.412,0.296,0.706,0.592,1.059,0.415c0.354-0.178,0.473-0.534,0.473-0.534
				s-0.707-0.293-0.884-0.293C58.926,100.812,58.161,100.928,58.573,101.224z"/>
			<path fill="#3F444E" d="M107.646,101.695c-0.04-0.061-0.08-0.167-0.117-0.276c-0.068-0.208-0.117-0.432-0.117-0.432
				s-0.266-0.251-0.638-0.323c-0.061-0.014-0.12-0.031-0.187-0.031l0,0c-0.069,0-0.127,0.002-0.188,0.002
				c-0.16,0.003-0.305,0.029-0.449,0.084c-0.127,0.054-0.261,0.13-0.422,0.269c-0.08,0.069-0.149,0.134-0.219,0.202
				c-0.252,0.242-0.461,0.435-0.729,0.482c-0.037,0.007-0.07,0.023-0.112,0.023c-0.103,0-0.264,0.013-0.45,0.035
				c-0.092,0.011-0.189,0.026-0.289,0.041c-0.498,0.083-1.027,0.236-1.027,0.457c0,0.187,0.031,0.324,0.028,0.472
				c-0.003,0.135-0.032,0.276-0.146,0.476c-0.199,0.353-0.387,0.698-0.368,0.94c0.003,0.043-0.002,0.09,0.016,0.123
				c0,0-0.029,0.059-0.069,0.143c-0.078,0.164-0.207,0.433-0.283,0.628c-0.016,0.037-0.035,0.083-0.054,0.126
				c-0.101,0.236-0.226,0.527-0.274,0.771c-0.012,0.059-0.025,0.117-0.025,0.168l0,0c0,0.062,0.019,0.173,0.047,0.302
				c0.106,0.467,0.383,1.21,0.659,1.118c0.354-0.12,0.471-0.354,0.942-0.416c0.469-0.059,1.13-0.527,1.13-0.527
				c0.096-0.083,0.173-0.164,0.224-0.24c0.209-0.315,1.066-1.89,1.545-2.361c0.06-0.059,0.116-0.104,0.162-0.125
				c0.022-0.01,0.052-0.02,0.078-0.032c0.383-0.16,1.062-0.43,1.271-0.683c0.033-0.037,0.054-0.074,0.061-0.112
				c0.023-0.112,0.045-0.307,0.058-0.508c0.013-0.2,0.016-0.406,0-0.563C107.693,101.824,107.676,101.739,107.646,101.695z"/>
		</g>
		<g>
			<path fill="#FFFFFF" d="M83.531,95.723c-2.364,0-4.279,1.912-4.279,4.275c0,2.365,4.279,6.529,4.279,6.529s4.28-4.164,4.28-6.529
				C87.812,97.635,85.896,95.723,83.531,95.723"/>
			<path fill="#3F444E" d="M83.562,100.505c-0.488,0-0.884-0.394-0.884-0.885c0-0.484,0.396-0.882,0.884-0.882
				c0.49,0,0.887,0.397,0.887,0.882C84.448,100.111,84.052,100.505,83.562,100.505 M83.562,97.663c-1.081,0-1.961,0.879-1.961,1.957
				c0,1.083,0.88,1.959,1.961,1.959c1.085,0,1.961-0.876,1.961-1.959C85.522,98.542,84.646,97.663,83.562,97.663"/>
		</g>
	</g>
</g>
</svg>
