<?xml version="1.0" encoding="utf-8"?>
<!-- Generator: Adobe Illustrator 16.0.0, SVG Export Plug-In . SVG Version: 6.00 Build 0)  -->
<!DOCTYPE svg PUBLIC "-//W3C//DTD SVG 1.1//EN" "http://www.w3.org/Graphics/SVG/1.1/DTD/svg11.dtd">
<svg version="1.1" id="Layer_1" xmlns="http://www.w3.org/2000/svg" xmlns:xlink="http://www.w3.org/1999/xlink" x="0px" y="0px"
	 width="144px" height="144px" viewBox="0 0 144 144" enable-background="new 0 0 144 144" xml:space="preserve">
<g>
	<g>
		<path fill="#3F444E" d="M39.63,62.695c0,6.116,4.955,11.067,11.067,11.067c5.688,0,10.361-4.283,10.992-9.794H49.312V51.722
			C43.852,52.41,39.63,57.055,39.63,62.695z"/>
		<path fill="#3F444E" d="M50.697,51.629c-0.042,0-0.082,0.015-0.123,0.015v11.051h11.19C61.764,56.592,56.811,51.629,50.697,51.629
			z M51.84,52.958c4.454,0.523,8.001,4.042,8.579,8.475H51.84V52.958z"/>
		<polygon fill="#3F444E" points="66.824,60.406 74.276,61.535 84.463,61.535 86.77,59.22 66.824,59.22 		"/>
		<path fill="#3F444E" d="M66.824,54.368v2.321h26.181c-0.595-0.675-1.096-1.461-1.492-2.321H66.824z"/>
		<path fill="#3F444E" d="M28.261,36.893v9.963h4.444v35.005h53.697c0.023-0.854,0.043-1.723,0.07-2.605H35.314v-32.4h55.684
			c1.092-3.723,4.099-6.415,7.635-6.415c3.537,0,6.547,2.691,7.631,6.415h3.419v10.837c1.137,0.579,2.067,1.539,2.607,2.744V46.856
			h4.442v-9.963H28.261z"/>
		<path fill="#3F444E" d="M98.633,57.282c3.292,0,5.957-3.296,5.957-7.36c0-4.068-2.664-7.36-5.957-7.36
			c-3.292,0-5.96,3.292-5.96,7.36C92.673,53.986,95.341,57.282,98.633,57.282z"/>
		<path fill="#3F444E" d="M106.905,59.099c-0.062,0.002-0.115,0.019-0.173,0.027c-0.062-0.018-0.119-0.045-0.18-0.047
			c-0.979-0.119-1.944-0.197-2.915-0.267l-0.02,0.088l2.549,2.157l-3.048,1.529l1.41,2.424l-3.884,8.575l-0.624-12.114l0.558-0.484
			l-0.745-2.715h-2.407l-0.741,2.715l0.561,0.484L96.62,73.592l-3.89-8.582l1.417-2.424l-3.053-1.529l2.556-2.157l-0.018-0.065
			c-0.692,0.055-1.378,0.09-2.071,0.166c-0.248-0.002-0.5,0.019-0.743,0.07c-0.033,0.002-0.07,0.002-0.103,0.009
			c-0.146,0.016-0.279,0.076-0.406,0.149c-0.443,0.168-0.858,0.421-1.215,0.774l-4.698,4.732l-0.217,0.22l-2.63-0.392l-13.183-2
			c-0.421,2.757-0.755,5.534-0.998,8.315l13.277,1.184l3.325,0.298l0.829,0.072l0.197,0.021c0.384-0.206,3.526-1.585,3.526-1.585
			l0.349-0.394c-0.235,6.632-0.422,13.263-0.509,19.899c0,0.067,0.019,0.123,0.025,0.18c0.258,0,0.521,0,0.784,0l0.895,28.449h8.113
			c0.249-8.296,0.092-22.83,0.019-28.449c0.275,0,0.55,0,0.825,0l0.895,28.449h8.111c0.246-8.296,0.094-22.83,0.024-28.449
			c0.273,0,0.548,0,0.825,0c0-0.053,0.012-0.1,0.021-0.146c1.248-0.067,2.498-0.147,3.742-0.25l-2.194-27.769
			C110.281,60.451,108.696,59.012,106.905,59.099z"/>
	</g>
</g>
</svg>
