<?xml version="1.0" encoding="utf-8"?>
<!-- Generator: Adobe Illustrator 16.0.0, SVG Export Plug-In . SVG Version: 6.00 Build 0)  -->
<!DOCTYPE svg PUBLIC "-//W3C//DTD SVG 1.1//EN" "http://www.w3.org/Graphics/SVG/1.1/DTD/svg11.dtd">
<svg version="1.1" id="Layer_1" xmlns="http://www.w3.org/2000/svg" xmlns:xlink="http://www.w3.org/1999/xlink" x="0px" y="0px"
	 width="144px" height="144px" viewBox="0 0 144 144" enable-background="new 0 0 144 144" xml:space="preserve">
<path fill="#3F444E" d="M93.377,101.552H50.62v-63.33h42.757V101.552z M71.999,115.013c-2.396,0-4.353-1.956-4.353-4.371
	c0-2.402,1.957-4.346,4.353-4.346c2.397,0,4.353,1.943,4.353,4.346C76.352,113.057,74.396,115.013,71.999,115.013 M65.531,28.936
	h12.934c0.343,0,0.667,0.445,0.667,0.977c0,0.553-0.324,0.979-0.667,0.979H65.531c-0.363,0-0.646-0.426-0.646-0.979
	C64.885,29.381,65.168,28.936,65.531,28.936 M89.145,23.458H54.851c-4.15,0-7.515,3.363-7.515,7.513v82.046
	c0,4.154,3.364,7.525,7.515,7.525h34.294c4.151,0,7.519-3.371,7.519-7.525V30.971C96.664,26.821,93.296,23.458,89.145,23.458"/>
</svg>
