<?xml version="1.0" encoding="utf-8"?>
<!-- Generator: Adobe Illustrator 16.0.0, SVG Export Plug-In . SVG Version: 6.00 Build 0)  -->
<!DOCTYPE svg PUBLIC "-//W3C//DTD SVG 1.1//EN" "http://www.w3.org/Graphics/SVG/1.1/DTD/svg11.dtd">
<svg version="1.1" id="Layer_1" xmlns="http://www.w3.org/2000/svg" xmlns:xlink="http://www.w3.org/1999/xlink" x="0px" y="0px"
	 width="144px" height="144px" viewBox="0 0 144 144" enable-background="new 0 0 144 144" xml:space="preserve">
<g>
	<g>
		<polygon fill="#3F444E" points="84.908,50.852 79.918,53.45 75.909,50.852 		"/>
		<polygon fill="#3F444E" points="70.379,50.852 66.371,53.45 61.386,50.852 		"/>
		<polygon fill="#3F444E" points="73.145,51.017 78.244,54.322 73.145,56.983 68.049,54.322 		"/>
		<polygon fill="#3F444E" points="76.495,57.092 79.828,55.352 82.505,57.092 		"/>
		<polygon fill="#3F444E" points="69.799,57.092 63.787,57.092 66.463,55.352 		"/>
		<polygon fill="#3F444E" points="86.523,57.25 86.523,57.247 85.764,57.247 81.5,54.48 87.77,51.21 94.279,57.25 		"/>
		<polygon fill="#3F444E" points="64.793,54.48 60.526,57.247 59.382,57.247 59.386,57.25 51.63,57.25 58.274,51.081 		"/>
		<polygon fill="#3F444E" points="83.82,58.893 72.953,79.839 62.089,58.893 		"/>
		<polygon fill="#3F444E" points="85.671,58.893 94.38,58.893 76.562,76.457 		"/>
		<polygon fill="#3F444E" points="51.522,58.893 60.236,58.893 69.351,76.457 		"/>
		<rect x="60.223" y="101.306" fill="#3F444E" width="23.547" height="4.876"/>
		<g>
			<path fill="#3F444E" d="M111.028,85.63H32.943V39.886h78.085V85.63z M114.331,34.502H29.647c-1.226,0-2.217,1.004-2.217,2.245
				v60.938c0,1.234,0.991,2.236,2.217,2.236h84.684c1.243,0,2.238-1.002,2.238-2.236V36.747
				C116.569,35.506,115.574,34.502,114.331,34.502"/>
			<path fill="#3F444E" d="M89.403,107.262h-34.81c-0.883,0-1.614,0.728-1.614,1.624v0.612h38.03v-0.612
				C91.01,107.99,90.289,107.262,89.403,107.262"/>
		</g>
	</g>
</g>
</svg>
