<?xml version="1.0" encoding="utf-8"?>
<!-- Generator: Adobe Illustrator 16.0.0, SVG Export Plug-In . SVG Version: 6.00 Build 0)  -->
<!DOCTYPE svg PUBLIC "-//W3C//DTD SVG 1.1//EN" "http://www.w3.org/Graphics/SVG/1.1/DTD/svg11.dtd">
<svg version="1.1" id="Layer_1" xmlns="http://www.w3.org/2000/svg" xmlns:xlink="http://www.w3.org/1999/xlink" x="0px" y="0px"
	 width="144px" height="144px" viewBox="0 0 144 144" enable-background="new 0 0 144 144" xml:space="preserve">
<g>
	<g>
		<g>
			<path fill="#3F444E" d="M60.097,97.632H47.032V87.1H25.964V75.845L46.583,42.22h13.515v32.386h5.48V87.1h-5.48V97.632z
				 M50.486,94.181h6.156V83.649h5.48v-5.585h-5.48V45.672h-8.128L29.419,76.821v6.828h21.066V94.181z M50.486,78.064H34.849
				l15.637-25.421V78.064z M41.032,74.606h6v-9.749L41.032,74.606z"/>
		</g>
		<g>
			<path fill="#3F444E" d="M82.868,97.632H69.661V84.427h13.207V97.632z M73.116,94.181h6.298v-6.296h-6.298V94.181z"/>
		</g>
		<g>
			<path fill="#3F444E" d="M104.977,98.346c-11.816,0-19.452-7.323-19.452-18.666V60.602c0-11.065,8.183-19.095,19.452-19.095
				c11.271,0,19.452,7.999,19.452,19.022V79.68C124.429,91.023,116.793,98.346,104.977,98.346z M104.977,44.96
				c-9.269,0-15.997,6.579-15.997,15.642V79.68c0,9.525,5.979,15.212,15.997,15.212c9.865,0,15.998-5.832,15.998-15.212V60.529
				C120.975,51.508,114.246,44.96,104.977,44.96z M104.907,88.525c-5.675,0-9.487-3.751-9.487-9.347V60.958
				c0-5.713,3.96-9.702,9.629-9.702c5.764,0,9.486,3.813,9.486,9.702V79.25C114.535,84.711,110.576,88.525,104.907,88.525z
				 M105.048,54.713c-4.55,0-6.174,3.226-6.174,6.245v18.221c0,3.691,2.256,5.889,6.032,5.889c3.75,0,6.171-2.281,6.171-5.817
				V60.958C111.078,56.989,108.884,54.713,105.048,54.713z"/>
		</g>
	</g>
</g>
</svg>
