<?xml version="1.0" encoding="utf-8"?>
<!-- Generator: Adobe Illustrator 16.0.0, SVG Export Plug-In . SVG Version: 6.00 Build 0)  -->
<!DOCTYPE svg PUBLIC "-//W3C//DTD SVG 1.1//EN" "http://www.w3.org/Graphics/SVG/1.1/DTD/svg11.dtd">
<svg version="1.1" id="Layer_1" xmlns="http://www.w3.org/2000/svg" xmlns:xlink="http://www.w3.org/1999/xlink" x="0px" y="0px"
	 width="144px" height="144px" viewBox="0 0 144 144" enable-background="new 0 0 144 144" xml:space="preserve">
<g>
	<g>
		<path fill="#3F444E" d="M58.284,100.161c0.042-6.171,0.958-10.687,2.744-13.552c1.784-2.865,5.342-6.35,10.675-10.448
			c3.13-2.552,5.63-5.307,7.503-8.261c1.874-2.951,2.811-6.258,2.811-9.913c0-4.058-1.069-7.23-3.207-9.521
			c-2.139-2.291-5.19-3.438-9.156-3.438c-3.262,0-6.026,0.97-8.295,2.909c-2.271,1.938-3.428,4.782-3.472,8.526H39.113l-0.133-0.396
			c-0.13-8.459,2.656-14.938,8.362-19.434c5.708-4.493,13.144-6.743,22.311-6.743c9.872,0,17.617,2.502,23.237,7.5
			c5.619,5.005,8.428,11.803,8.428,20.395c0,5.598-1.641,10.777-4.926,15.539C93.109,78.08,89,82.07,84.065,85.287
			c-2.689,2.07-4.453,4.153-5.29,6.246c-0.837,2.094-1.255,4.969-1.255,8.628H58.284z M77.653,127.528H58.216V111h19.438V127.528z"
			/>
	</g>
</g>
</svg>
