<?xml version="1.0" encoding="utf-8"?>
<!-- Generator: Adobe Illustrator 16.0.0, SVG Export Plug-In . SVG Version: 6.00 Build 0)  -->
<!DOCTYPE svg PUBLIC "-//W3C//DTD SVG 1.1//EN" "http://www.w3.org/Graphics/SVG/1.1/DTD/svg11.dtd">
<svg version="1.1" id="Layer_1" xmlns="http://www.w3.org/2000/svg" xmlns:xlink="http://www.w3.org/1999/xlink" x="0px" y="0px"
	 width="144px" height="144px" viewBox="0 0 144 144" enable-background="new 0 0 144 144" xml:space="preserve">
<g>
	<g>
		<g>
			<g>
				<polygon fill="#3F444E" points="23.589,48.593 23.589,74.24 46.02,87.192 46.02,61.324 				"/>
				<polygon fill="#3F444E" points="68.466,22.425 24.932,47.559 47.545,60.394 68.466,48.319 90.901,61.277 113.333,48.331 				"/>
			</g>
			<g>
				<polygon fill="#3F444E" points="45.264,112.661 67.663,99.7 46.02,87.194 46.02,87.192 23.589,74.24 23.589,100.146 
					42.653,111.154 				"/>
				<polygon fill="#3F444E" points="46.825,113.567 68.466,126.055 90.89,113.105 69.241,100.597 				"/>
			</g>
			<polygon fill="#3F444E" points="113.333,73.285 113.333,48.331 90.901,61.277 90.901,86.258 			"/>
		</g>
		<polygon fill="#3F444E" points="113.332,75.124 70.878,99.746 113.332,124.229 		"/>
	</g>
</g>
</svg>
