<?xml version="1.0" encoding="utf-8"?>
<!-- Generator: Adobe Illustrator 16.0.0, SVG Export Plug-In . SVG Version: 6.00 Build 0)  -->
<!DOCTYPE svg PUBLIC "-//W3C//DTD SVG 1.1//EN" "http://www.w3.org/Graphics/SVG/1.1/DTD/svg11.dtd">
<svg version="1.1" id="Layer_1" xmlns="http://www.w3.org/2000/svg" xmlns:xlink="http://www.w3.org/1999/xlink" x="0px" y="0px"
	 width="144px" height="144px" viewBox="0 0 144 144" enable-background="new 0 0 144 144" xml:space="preserve">
<g>
	<g>
		<g>
			<path fill="#3F444E" d="M81.527,120.309c-22.401,0-40.626-18.224-40.626-40.624c0-22.402,18.225-40.628,40.626-40.628
				c22.401,0,40.625,18.226,40.625,40.628C122.153,102.085,103.928,120.309,81.527,120.309z M81.527,46.557
				c-18.267,0-33.127,14.861-33.127,33.128c0,18.265,14.861,33.124,33.127,33.124c18.266,0,33.126-14.859,33.126-33.124
				C114.654,61.418,99.793,46.557,81.527,46.557z"/>
		</g>
		<g>
			<circle fill="#3F444E" cx="81.528" cy="79.683" r="9.599"/>
		</g>
		<g>
			<path fill="#3F444E" d="M81.528,105.845c-14.428,0-26.165-11.736-26.165-26.162S67.1,53.52,81.528,53.52
				c14.426,0,26.163,11.737,26.163,26.163S95.954,105.845,81.528,105.845z M81.528,61.02c-10.292,0-18.666,8.372-18.666,18.663
				c0,10.29,8.374,18.662,18.666,18.662c10.292,0,18.664-8.372,18.664-18.662C100.192,69.392,91.819,61.02,81.528,61.02z"/>
		</g>
		<g>
			<path fill="#3F444E" d="M82.763,77.333c-0.875-0.573-1.957-0.54-2.8-0.038L45.439,54.718l0.897-7.704L27.42,34.641l-0.893,7.706
				l-0.762-0.497c-0.575-0.377-1.346-0.215-1.723,0.361c-0.375,0.57-0.215,1.346,0.36,1.723l0.809,0.528l-6.818,3.974l18.923,12.367
				l6.753-3.938l1.04,0.68l0.008-0.063L78.708,79.45c-0.033,0.9,0.345,1.796,1.152,2.322c1.226,0.802,2.871,0.458,3.672-0.769
				C84.333,79.779,83.99,78.134,82.763,77.333z M37.391,57.883l-14.264-9.326l4.356-2.541l9.191,6.012l5.07,3.316L37.391,57.883z
				 M43.114,53.194l-14.261-9.326l0.574-4.944l14.26,9.328L43.114,53.194z"/>
			<path fill="#3F444E" d="M81.309,82.741L81.309,82.741c-0.62,0-1.223-0.18-1.743-0.521c-0.832-0.543-1.338-1.454-1.392-2.479
				L45.543,58.399l-0.726-0.406l-0.763-0.498l-6.753,3.938L17.375,48.409l6.817-3.974l-0.083-0.054
				c-0.398-0.261-0.671-0.661-0.768-1.128c-0.097-0.467-0.007-0.941,0.253-1.337c0.52-0.795,1.667-1.038,2.464-0.516l0.036,0.023
				l0.893-7.707l19.918,13.029l-0.897,7.704l33.983,22.224c0.983-0.455,2.166-0.379,3.063,0.21c0.712,0.465,1.201,1.181,1.376,2.014
				c0.175,0.834,0.014,1.687-0.452,2.398C83.39,82.201,82.391,82.741,81.309,82.741z M44.684,56.626l0.728,0.407l33.842,22.135
				l-0.011,0.302c-0.028,0.771,0.312,1.464,0.91,1.854c0.951,0.62,2.314,0.331,2.931-0.613c0.31-0.474,0.416-1.039,0.3-1.593
				c-0.116-0.553-0.44-1.028-0.914-1.337c-0.658-0.431-1.543-0.437-2.233-0.026l-0.287,0.171L44.869,54.984l0.897-7.704
				L27.853,35.563l-0.892,7.705l-1.487-0.971c-0.32-0.21-0.775-0.109-0.982,0.206c-0.103,0.157-0.139,0.346-0.1,0.532
				c0.039,0.186,0.147,0.346,0.306,0.449l1.535,1.003l-6.818,3.974l17.92,11.711l6.753-3.938L44.684,56.626z M37.375,58.513
				L22.108,48.53l5.391-3.145l15.264,9.984L37.375,58.513z M24.146,48.583l13.262,8.67l3.319-1.936l-13.259-8.672L24.146,48.583z
				 M43.546,54.117l-15.263-9.982l0.712-6.134l15.262,9.984L43.546,54.117z M29.423,43.601l13.258,8.671l0.435-3.753l-13.257-8.672
				L29.423,43.601z"/>
		</g>
	</g>
</g>
</svg>
