<?xml version="1.0" encoding="utf-8"?>
<!-- Generator: Adobe Illustrator 16.0.0, SVG Export Plug-In . SVG Version: 6.00 Build 0)  -->
<!DOCTYPE svg PUBLIC "-//W3C//DTD SVG 1.1//EN" "http://www.w3.org/Graphics/SVG/1.1/DTD/svg11.dtd">
<svg version="1.1" id="Layer_1" xmlns="http://www.w3.org/2000/svg" xmlns:xlink="http://www.w3.org/1999/xlink" x="0px" y="0px"
	 width="144px" height="144px" viewBox="0 0 144 144" enable-background="new 0 0 144 144" xml:space="preserve">
<g>
	<g>
		<path fill="#3F444E" d="M62.75,114.894c0,0.009,0.014,0.017,0.014,0.025c0.04,0.1,0.085,0.173,0.135,0.252
			c0.013,0.009,0.023,0.028,0.031,0.037c0.063,0.081,0.136,0.152,0.212,0.206c0.027,0.009,0.044,0.028,0.067,0.046
			c0.027,0.009,0.059,0.036,0.086,0.054c0.04,0.018,0.076,0.027,0.116,0.045c0.037,0.009,0.066,0.018,0.097,0.028
			c0.104,0.034,0.204,0.043,0.309,0.043l0,0c0.071,0,0.155,0,0.231-0.009c0.011-0.009,0.021-0.018,0.03-0.018
			c0.122-0.027,0.239-0.072,0.342-0.135c0.017-0.018,0.036-0.037,0.054-0.046c0.081-0.062,0.148-0.125,0.211-0.198
			c0.027-0.025,0.05-0.07,0.068-0.099c0.027-0.034,0.058-0.071,0.077-0.107l11.092-21.735l21.575,6.075
			c0.103,0.036,0.209,0.045,0.312,0.045c0.212,0,0.423-0.054,0.608-0.17c0.269-0.181,0.463-0.459,0.515-0.775l13.124-75.874
			c0.082-0.446-0.117-0.9-0.5-1.145c-0.296-0.193-0.661-0.237-0.992-0.121c-0.265,0.032-0.524,0.145-0.718,0.356l-0.153,0.165
			L25.64,77.186c-0.374,0.243-0.57,0.685-0.502,1.13c0.068,0.44,0.389,0.801,0.816,0.922l26.375,7.411L62.75,114.894z
			 M103.479,28.667L52.707,84.386l-23.729-6.67L103.479,28.667z M54.556,86.096l-0.09-0.252l0.693-0.761l42.079-46.188
			L62.042,87.013l-0.664,0.905c-0.022,0.031-0.027,0.062-0.045,0.08c-0.116,0.203-0.184,0.428-0.17,0.657l0.027,0.491l1.037,17.754
			l-7.18-19.486L54.556,86.096z M64.708,110.24l-1.192-20.437l10.169,2.859L64.708,110.24z M64.384,87.679l44.662-61.055
			L96.9,96.821L64.384,87.679z"/>
	</g>
</g>
</svg>
